%TF.GenerationSoftware,KiCad,Pcbnew,(5.1.10)-1*%
%TF.CreationDate,2021-09-02T23:34:50+09:00*%
%TF.ProjectId,bleachedplusplus,626c6561-6368-4656-9470-6c7573706c75,rev?*%
%TF.SameCoordinates,Original*%
%TF.FileFunction,Legend,Top*%
%TF.FilePolarity,Positive*%
%FSLAX46Y46*%
G04 Gerber Fmt 4.6, Leading zero omitted, Abs format (unit mm)*
G04 Created by KiCad (PCBNEW (5.1.10)-1) date 2021-09-02 23:34:50*
%MOMM*%
%LPD*%
G01*
G04 APERTURE LIST*
%ADD10C,0.100000*%
%ADD11C,0.150000*%
%ADD12C,0.120000*%
G04 APERTURE END LIST*
D10*
%TO.C,U1*%
G36*
X86076000Y-88421000D02*
G01*
X85822000Y-88167000D01*
X86203000Y-87913000D01*
X86457000Y-88167000D01*
X86076000Y-88421000D01*
G37*
X86076000Y-88421000D02*
X85822000Y-88167000D01*
X86203000Y-87913000D01*
X86457000Y-88167000D01*
X86076000Y-88421000D01*
G36*
X85060000Y-89183000D02*
G01*
X84806000Y-88929000D01*
X85187000Y-88675000D01*
X85441000Y-88929000D01*
X85060000Y-89183000D01*
G37*
X85060000Y-89183000D02*
X84806000Y-88929000D01*
X85187000Y-88675000D01*
X85441000Y-88929000D01*
X85060000Y-89183000D01*
G36*
X85822000Y-89945000D02*
G01*
X85568000Y-89691000D01*
X85949000Y-89437000D01*
X86203000Y-89691000D01*
X85822000Y-89945000D01*
G37*
X85822000Y-89945000D02*
X85568000Y-89691000D01*
X85949000Y-89437000D01*
X86203000Y-89691000D01*
X85822000Y-89945000D01*
G36*
X85695000Y-88040000D02*
G01*
X85441000Y-87786000D01*
X85822000Y-87532000D01*
X86076000Y-87786000D01*
X85695000Y-88040000D01*
G37*
X85695000Y-88040000D02*
X85441000Y-87786000D01*
X85822000Y-87532000D01*
X86076000Y-87786000D01*
X85695000Y-88040000D01*
G36*
X85441000Y-89564000D02*
G01*
X85187000Y-89310000D01*
X85568000Y-89056000D01*
X85822000Y-89310000D01*
X85441000Y-89564000D01*
G37*
X85441000Y-89564000D02*
X85187000Y-89310000D01*
X85568000Y-89056000D01*
X85822000Y-89310000D01*
X85441000Y-89564000D01*
G36*
X86203000Y-87659000D02*
G01*
X85949000Y-87405000D01*
X86330000Y-87151000D01*
X86584000Y-87405000D01*
X86203000Y-87659000D01*
G37*
X86203000Y-87659000D02*
X85949000Y-87405000D01*
X86330000Y-87151000D01*
X86584000Y-87405000D01*
X86203000Y-87659000D01*
G36*
X85568000Y-88802000D02*
G01*
X85314000Y-88548000D01*
X85695000Y-88294000D01*
X85949000Y-88548000D01*
X85568000Y-88802000D01*
G37*
X85568000Y-88802000D02*
X85314000Y-88548000D01*
X85695000Y-88294000D01*
X85949000Y-88548000D01*
X85568000Y-88802000D01*
G36*
X85187000Y-88421000D02*
G01*
X84933000Y-88167000D01*
X85314000Y-87913000D01*
X85568000Y-88167000D01*
X85187000Y-88421000D01*
G37*
X85187000Y-88421000D02*
X84933000Y-88167000D01*
X85314000Y-87913000D01*
X85568000Y-88167000D01*
X85187000Y-88421000D01*
D11*
X61220000Y-99890000D02*
X61220000Y-82110000D01*
X96780000Y-99890000D02*
X61220000Y-99890000D01*
X96780000Y-82110000D02*
X96780000Y-99890000D01*
X61220000Y-82110000D02*
X96780000Y-82110000D01*
X91700000Y-88750000D02*
X94240000Y-88750000D01*
X91700000Y-93250000D02*
X91700000Y-88750000D01*
X94240000Y-93250000D02*
X91700000Y-93250000D01*
X94250000Y-88750000D02*
X94240000Y-93250000D01*
X66300000Y-94810000D02*
X61220000Y-94810000D01*
X66300000Y-87190000D02*
X61220000Y-87190000D01*
X66300000Y-94810000D02*
X66300000Y-87190000D01*
X59950000Y-87190000D02*
X61220000Y-87190000D01*
X59950000Y-94810000D02*
X59950000Y-87190000D01*
X61220000Y-94810000D02*
X59950000Y-94810000D01*
X91000000Y-91000000D02*
X86000000Y-86000000D01*
X86000000Y-86000000D02*
X81000000Y-91000000D01*
X81000000Y-91000000D02*
X86000000Y-96000000D01*
X86000000Y-96000000D02*
X91000000Y-91000000D01*
X92000000Y-90250000D02*
X92000000Y-91750000D01*
X94000000Y-91750000D02*
X94000000Y-90250000D01*
X94250000Y-89250000D02*
X93750000Y-88750000D01*
X93750000Y-88750000D02*
X92250000Y-88750000D01*
X91750000Y-89250000D02*
X92250000Y-88750000D01*
X94250000Y-92750000D02*
X93750000Y-93250000D01*
X91700000Y-93250000D02*
X92250000Y-93250000D01*
X92250000Y-93250000D02*
X91750000Y-92750000D01*
X94000000Y-91750000D02*
G75*
G02*
X92000000Y-91750000I-1000000J0D01*
G01*
X92000000Y-90250000D02*
G75*
G02*
X94000000Y-90250000I1000000J0D01*
G01*
D10*
%TO.C,RV9*%
X73000000Y-108500000D02*
X72000000Y-108500000D01*
X72500000Y-109000000D02*
X72500000Y-108000000D01*
D12*
X79120000Y-106840000D02*
X79120000Y-107670000D01*
X79120000Y-109290000D02*
X79120000Y-109820000D01*
X79120000Y-112190000D02*
X79120000Y-113370000D01*
X79120000Y-103630000D02*
X74400000Y-103630000D01*
X70590000Y-113370000D02*
X67530000Y-113370000D01*
X79120000Y-113380000D02*
X74400000Y-113380000D01*
X70590000Y-103630000D02*
X67530000Y-103630000D01*
X79120000Y-103630000D02*
X79120000Y-105120000D01*
X67530000Y-103630000D02*
X67530000Y-113370000D01*
D10*
%TO.C,RV8*%
X96000000Y-108500000D02*
X95000000Y-108500000D01*
X95500000Y-109000000D02*
X95500000Y-108000000D01*
D12*
X102120000Y-106840000D02*
X102120000Y-107670000D01*
X102120000Y-109290000D02*
X102120000Y-109820000D01*
X102120000Y-112190000D02*
X102120000Y-113370000D01*
X102120000Y-103630000D02*
X97400000Y-103630000D01*
X93590000Y-113370000D02*
X90530000Y-113370000D01*
X102120000Y-113380000D02*
X97400000Y-113380000D01*
X93590000Y-103630000D02*
X90530000Y-103630000D01*
X102120000Y-103630000D02*
X102120000Y-105120000D01*
X90530000Y-103630000D02*
X90530000Y-113370000D01*
D10*
%TO.C,RV7*%
X118500000Y-108000000D02*
X118500000Y-109000000D01*
X119000000Y-108500000D02*
X118000000Y-108500000D01*
D12*
X116840000Y-101880000D02*
X117670000Y-101880000D01*
X119290000Y-101880000D02*
X119820000Y-101880000D01*
X122190000Y-101880000D02*
X123370000Y-101880000D01*
X113630000Y-101880000D02*
X113630000Y-106600000D01*
X123370000Y-110410000D02*
X123370000Y-113470000D01*
X123380000Y-101880000D02*
X123380000Y-106600000D01*
X113630000Y-110410000D02*
X113630000Y-113470000D01*
X113630000Y-101880000D02*
X115120000Y-101880000D01*
X113630000Y-113470000D02*
X123370000Y-113470000D01*
D10*
%TO.C,RV6*%
X141500000Y-108000000D02*
X141500000Y-109000000D01*
X142000000Y-108500000D02*
X141000000Y-108500000D01*
D12*
X139840000Y-101880000D02*
X140670000Y-101880000D01*
X142290000Y-101880000D02*
X142820000Y-101880000D01*
X145190000Y-101880000D02*
X146370000Y-101880000D01*
X136630000Y-101880000D02*
X136630000Y-106600000D01*
X146370000Y-110410000D02*
X146370000Y-113470000D01*
X146380000Y-101880000D02*
X146380000Y-106600000D01*
X136630000Y-110410000D02*
X136630000Y-113470000D01*
X136630000Y-101880000D02*
X138120000Y-101880000D01*
X136630000Y-113470000D02*
X146370000Y-113470000D01*
D10*
%TO.C,RV5*%
X164500000Y-108000000D02*
X164500000Y-109000000D01*
X165000000Y-108500000D02*
X164000000Y-108500000D01*
D12*
X162840000Y-101880000D02*
X163670000Y-101880000D01*
X165290000Y-101880000D02*
X165820000Y-101880000D01*
X168190000Y-101880000D02*
X169370000Y-101880000D01*
X159630000Y-101880000D02*
X159630000Y-106600000D01*
X169370000Y-110410000D02*
X169370000Y-113470000D01*
X169380000Y-101880000D02*
X169380000Y-106600000D01*
X159630000Y-110410000D02*
X159630000Y-113470000D01*
X159630000Y-101880000D02*
X161120000Y-101880000D01*
X159630000Y-113470000D02*
X169370000Y-113470000D01*
D10*
%TO.C,RV4*%
X173500000Y-85000000D02*
X173500000Y-84000000D01*
X173000000Y-84500000D02*
X174000000Y-84500000D01*
D12*
X175160000Y-91120000D02*
X174330000Y-91120000D01*
X172710000Y-91120000D02*
X172180000Y-91120000D01*
X169810000Y-91120000D02*
X168630000Y-91120000D01*
X178370000Y-91120000D02*
X178370000Y-86400000D01*
X168630000Y-82590000D02*
X168630000Y-79530000D01*
X168620000Y-91120000D02*
X168620000Y-86400000D01*
X178370000Y-82590000D02*
X178370000Y-79530000D01*
X178370000Y-91120000D02*
X176880000Y-91120000D01*
X178370000Y-79530000D02*
X168630000Y-79530000D01*
D10*
%TO.C,RV3*%
X150500000Y-85000000D02*
X150500000Y-84000000D01*
X150000000Y-84500000D02*
X151000000Y-84500000D01*
D12*
X152160000Y-91120000D02*
X151330000Y-91120000D01*
X149710000Y-91120000D02*
X149180000Y-91120000D01*
X146810000Y-91120000D02*
X145630000Y-91120000D01*
X155370000Y-91120000D02*
X155370000Y-86400000D01*
X145630000Y-82590000D02*
X145630000Y-79530000D01*
X145620000Y-91120000D02*
X145620000Y-86400000D01*
X155370000Y-82590000D02*
X155370000Y-79530000D01*
X155370000Y-91120000D02*
X153880000Y-91120000D01*
X155370000Y-79530000D02*
X145630000Y-79530000D01*
D10*
%TO.C,RV2*%
X127500000Y-85000000D02*
X127500000Y-84000000D01*
X127000000Y-84500000D02*
X128000000Y-84500000D01*
D12*
X129160000Y-91120000D02*
X128330000Y-91120000D01*
X126710000Y-91120000D02*
X126180000Y-91120000D01*
X123810000Y-91120000D02*
X122630000Y-91120000D01*
X132370000Y-91120000D02*
X132370000Y-86400000D01*
X122630000Y-82590000D02*
X122630000Y-79530000D01*
X122620000Y-91120000D02*
X122620000Y-86400000D01*
X132370000Y-82590000D02*
X132370000Y-79530000D01*
X132370000Y-91120000D02*
X130880000Y-91120000D01*
X132370000Y-79530000D02*
X122630000Y-79530000D01*
D10*
%TO.C,RV1*%
X104500000Y-85000000D02*
X104500000Y-84000000D01*
X104000000Y-84500000D02*
X105000000Y-84500000D01*
D12*
X106160000Y-91120000D02*
X105330000Y-91120000D01*
X103710000Y-91120000D02*
X103180000Y-91120000D01*
X100810000Y-91120000D02*
X99630000Y-91120000D01*
X109370000Y-91120000D02*
X109370000Y-86400000D01*
X99630000Y-82590000D02*
X99630000Y-79530000D01*
X99620000Y-91120000D02*
X99620000Y-86400000D01*
X109370000Y-82590000D02*
X109370000Y-79530000D01*
X109370000Y-91120000D02*
X107880000Y-91120000D01*
X109370000Y-79530000D02*
X99630000Y-79530000D01*
%TO.C,H4*%
D11*
X181238095Y-74752380D02*
X181238095Y-73752380D01*
X181238095Y-74228571D02*
X181809523Y-74228571D01*
X181809523Y-74752380D02*
X181809523Y-73752380D01*
X182714285Y-74085714D02*
X182714285Y-74752380D01*
X182476190Y-73704761D02*
X182238095Y-74419047D01*
X182857142Y-74419047D01*
%TO.C,H3*%
X181238095Y-112752380D02*
X181238095Y-111752380D01*
X181238095Y-112228571D02*
X181809523Y-112228571D01*
X181809523Y-112752380D02*
X181809523Y-111752380D01*
X182190476Y-111752380D02*
X182809523Y-111752380D01*
X182476190Y-112133333D01*
X182619047Y-112133333D01*
X182714285Y-112180952D01*
X182761904Y-112228571D01*
X182809523Y-112323809D01*
X182809523Y-112561904D01*
X182761904Y-112657142D01*
X182714285Y-112704761D01*
X182619047Y-112752380D01*
X182333333Y-112752380D01*
X182238095Y-112704761D01*
X182190476Y-112657142D01*
%TO.C,H2*%
X63238095Y-112752380D02*
X63238095Y-111752380D01*
X63238095Y-112228571D02*
X63809523Y-112228571D01*
X63809523Y-112752380D02*
X63809523Y-111752380D01*
X64238095Y-111847619D02*
X64285714Y-111800000D01*
X64380952Y-111752380D01*
X64619047Y-111752380D01*
X64714285Y-111800000D01*
X64761904Y-111847619D01*
X64809523Y-111942857D01*
X64809523Y-112038095D01*
X64761904Y-112180952D01*
X64190476Y-112752380D01*
X64809523Y-112752380D01*
%TO.C,H1*%
X63238095Y-74752380D02*
X63238095Y-73752380D01*
X63238095Y-74228571D02*
X63809523Y-74228571D01*
X63809523Y-74752380D02*
X63809523Y-73752380D01*
X64809523Y-74752380D02*
X64238095Y-74752380D01*
X64523809Y-74752380D02*
X64523809Y-73752380D01*
X64428571Y-73895238D01*
X64333333Y-73990476D01*
X64238095Y-74038095D01*
%TO.C,U1*%
X64248095Y-87742380D02*
X64248095Y-88551904D01*
X64295714Y-88647142D01*
X64343333Y-88694761D01*
X64438571Y-88742380D01*
X64629047Y-88742380D01*
X64724285Y-88694761D01*
X64771904Y-88647142D01*
X64819523Y-88551904D01*
X64819523Y-87742380D01*
X65819523Y-88742380D02*
X65248095Y-88742380D01*
X65533809Y-88742380D02*
X65533809Y-87742380D01*
X65438571Y-87885238D01*
X65343333Y-87980476D01*
X65248095Y-88028095D01*
X82266666Y-91376666D02*
X82266666Y-90676666D01*
X82500000Y-91176666D01*
X82733333Y-90676666D01*
X82733333Y-91376666D01*
X83066666Y-91376666D02*
X83066666Y-90676666D01*
X83466666Y-91376666D02*
X83166666Y-90976666D01*
X83466666Y-90676666D02*
X83066666Y-91076666D01*
X84100000Y-91376666D02*
X83766666Y-91376666D01*
X83766666Y-90676666D01*
X84300000Y-90743333D02*
X84333333Y-90710000D01*
X84400000Y-90676666D01*
X84566666Y-90676666D01*
X84633333Y-90710000D01*
X84666666Y-90743333D01*
X84700000Y-90810000D01*
X84700000Y-90876666D01*
X84666666Y-90976666D01*
X84266666Y-91376666D01*
X84700000Y-91376666D01*
X85300000Y-90676666D02*
X85166666Y-90676666D01*
X85100000Y-90710000D01*
X85066666Y-90743333D01*
X85000000Y-90843333D01*
X84966666Y-90976666D01*
X84966666Y-91243333D01*
X85000000Y-91310000D01*
X85033333Y-91343333D01*
X85100000Y-91376666D01*
X85233333Y-91376666D01*
X85300000Y-91343333D01*
X85333333Y-91310000D01*
X85366666Y-91243333D01*
X85366666Y-91076666D01*
X85333333Y-91010000D01*
X85300000Y-90976666D01*
X85233333Y-90943333D01*
X85100000Y-90943333D01*
X85033333Y-90976666D01*
X85000000Y-91010000D01*
X84966666Y-91076666D01*
X85600000Y-90676666D02*
X86066666Y-90676666D01*
X85600000Y-91376666D01*
X86066666Y-91376666D01*
X86633333Y-90676666D02*
X86500000Y-90676666D01*
X86433333Y-90710000D01*
X86400000Y-90743333D01*
X86333333Y-90843333D01*
X86300000Y-90976666D01*
X86300000Y-91243333D01*
X86333333Y-91310000D01*
X86366666Y-91343333D01*
X86433333Y-91376666D01*
X86566666Y-91376666D01*
X86633333Y-91343333D01*
X86666666Y-91310000D01*
X86700000Y-91243333D01*
X86700000Y-91076666D01*
X86666666Y-91010000D01*
X86633333Y-90976666D01*
X86566666Y-90943333D01*
X86433333Y-90943333D01*
X86366666Y-90976666D01*
X86333333Y-91010000D01*
X86300000Y-91076666D01*
X87300000Y-90910000D02*
X87300000Y-91376666D01*
X87133333Y-90643333D02*
X86966666Y-91143333D01*
X87400000Y-91143333D01*
X87566666Y-90676666D02*
X87800000Y-91376666D01*
X88033333Y-90676666D01*
X88500000Y-91010000D02*
X88266666Y-91010000D01*
X88266666Y-91376666D02*
X88266666Y-90676666D01*
X88600000Y-90676666D01*
X88766666Y-90676666D02*
X89166666Y-90676666D01*
X88966666Y-91376666D02*
X88966666Y-90676666D01*
X89700000Y-90910000D02*
X89700000Y-91376666D01*
X89533333Y-90643333D02*
X89366666Y-91143333D01*
X89800000Y-91143333D01*
%TO.C,RV9*%
X68684761Y-105112380D02*
X68351428Y-104636190D01*
X68113333Y-105112380D02*
X68113333Y-104112380D01*
X68494285Y-104112380D01*
X68589523Y-104160000D01*
X68637142Y-104207619D01*
X68684761Y-104302857D01*
X68684761Y-104445714D01*
X68637142Y-104540952D01*
X68589523Y-104588571D01*
X68494285Y-104636190D01*
X68113333Y-104636190D01*
X68970476Y-104112380D02*
X69303809Y-105112380D01*
X69637142Y-104112380D01*
X70018095Y-105112380D02*
X70208571Y-105112380D01*
X70303809Y-105064761D01*
X70351428Y-105017142D01*
X70446666Y-104874285D01*
X70494285Y-104683809D01*
X70494285Y-104302857D01*
X70446666Y-104207619D01*
X70399047Y-104160000D01*
X70303809Y-104112380D01*
X70113333Y-104112380D01*
X70018095Y-104160000D01*
X69970476Y-104207619D01*
X69922857Y-104302857D01*
X69922857Y-104540952D01*
X69970476Y-104636190D01*
X70018095Y-104683809D01*
X70113333Y-104731428D01*
X70303809Y-104731428D01*
X70399047Y-104683809D01*
X70446666Y-104636190D01*
X70494285Y-104540952D01*
%TO.C,RV8*%
X91624761Y-105082380D02*
X91291428Y-104606190D01*
X91053333Y-105082380D02*
X91053333Y-104082380D01*
X91434285Y-104082380D01*
X91529523Y-104130000D01*
X91577142Y-104177619D01*
X91624761Y-104272857D01*
X91624761Y-104415714D01*
X91577142Y-104510952D01*
X91529523Y-104558571D01*
X91434285Y-104606190D01*
X91053333Y-104606190D01*
X91910476Y-104082380D02*
X92243809Y-105082380D01*
X92577142Y-104082380D01*
X93053333Y-104510952D02*
X92958095Y-104463333D01*
X92910476Y-104415714D01*
X92862857Y-104320476D01*
X92862857Y-104272857D01*
X92910476Y-104177619D01*
X92958095Y-104130000D01*
X93053333Y-104082380D01*
X93243809Y-104082380D01*
X93339047Y-104130000D01*
X93386666Y-104177619D01*
X93434285Y-104272857D01*
X93434285Y-104320476D01*
X93386666Y-104415714D01*
X93339047Y-104463333D01*
X93243809Y-104510952D01*
X93053333Y-104510952D01*
X92958095Y-104558571D01*
X92910476Y-104606190D01*
X92862857Y-104701428D01*
X92862857Y-104891904D01*
X92910476Y-104987142D01*
X92958095Y-105034761D01*
X93053333Y-105082380D01*
X93243809Y-105082380D01*
X93339047Y-105034761D01*
X93386666Y-104987142D01*
X93434285Y-104891904D01*
X93434285Y-104701428D01*
X93386666Y-104606190D01*
X93339047Y-104558571D01*
X93243809Y-104510952D01*
%TO.C,RV7*%
X115362380Y-112195238D02*
X114886190Y-112528571D01*
X115362380Y-112766666D02*
X114362380Y-112766666D01*
X114362380Y-112385714D01*
X114410000Y-112290476D01*
X114457619Y-112242857D01*
X114552857Y-112195238D01*
X114695714Y-112195238D01*
X114790952Y-112242857D01*
X114838571Y-112290476D01*
X114886190Y-112385714D01*
X114886190Y-112766666D01*
X114362380Y-111909523D02*
X115362380Y-111576190D01*
X114362380Y-111242857D01*
X114362380Y-111004761D02*
X114362380Y-110338095D01*
X115362380Y-110766666D01*
%TO.C,RV6*%
X138212380Y-112285238D02*
X137736190Y-112618571D01*
X138212380Y-112856666D02*
X137212380Y-112856666D01*
X137212380Y-112475714D01*
X137260000Y-112380476D01*
X137307619Y-112332857D01*
X137402857Y-112285238D01*
X137545714Y-112285238D01*
X137640952Y-112332857D01*
X137688571Y-112380476D01*
X137736190Y-112475714D01*
X137736190Y-112856666D01*
X137212380Y-111999523D02*
X138212380Y-111666190D01*
X137212380Y-111332857D01*
X137212380Y-110570952D02*
X137212380Y-110761428D01*
X137260000Y-110856666D01*
X137307619Y-110904285D01*
X137450476Y-110999523D01*
X137640952Y-111047142D01*
X138021904Y-111047142D01*
X138117142Y-110999523D01*
X138164761Y-110951904D01*
X138212380Y-110856666D01*
X138212380Y-110666190D01*
X138164761Y-110570952D01*
X138117142Y-110523333D01*
X138021904Y-110475714D01*
X137783809Y-110475714D01*
X137688571Y-110523333D01*
X137640952Y-110570952D01*
X137593333Y-110666190D01*
X137593333Y-110856666D01*
X137640952Y-110951904D01*
X137688571Y-110999523D01*
X137783809Y-111047142D01*
%TO.C,RV5*%
X161202380Y-112325238D02*
X160726190Y-112658571D01*
X161202380Y-112896666D02*
X160202380Y-112896666D01*
X160202380Y-112515714D01*
X160250000Y-112420476D01*
X160297619Y-112372857D01*
X160392857Y-112325238D01*
X160535714Y-112325238D01*
X160630952Y-112372857D01*
X160678571Y-112420476D01*
X160726190Y-112515714D01*
X160726190Y-112896666D01*
X160202380Y-112039523D02*
X161202380Y-111706190D01*
X160202380Y-111372857D01*
X160202380Y-110563333D02*
X160202380Y-111039523D01*
X160678571Y-111087142D01*
X160630952Y-111039523D01*
X160583333Y-110944285D01*
X160583333Y-110706190D01*
X160630952Y-110610952D01*
X160678571Y-110563333D01*
X160773809Y-110515714D01*
X161011904Y-110515714D01*
X161107142Y-110563333D01*
X161154761Y-110610952D01*
X161202380Y-110706190D01*
X161202380Y-110944285D01*
X161154761Y-111039523D01*
X161107142Y-111087142D01*
%TO.C,RV4*%
X170502380Y-89825238D02*
X170026190Y-90158571D01*
X170502380Y-90396666D02*
X169502380Y-90396666D01*
X169502380Y-90015714D01*
X169550000Y-89920476D01*
X169597619Y-89872857D01*
X169692857Y-89825238D01*
X169835714Y-89825238D01*
X169930952Y-89872857D01*
X169978571Y-89920476D01*
X170026190Y-90015714D01*
X170026190Y-90396666D01*
X169502380Y-89539523D02*
X170502380Y-89206190D01*
X169502380Y-88872857D01*
X169835714Y-88110952D02*
X170502380Y-88110952D01*
X169454761Y-88349047D02*
X170169047Y-88587142D01*
X170169047Y-87968095D01*
%TO.C,RV3*%
X147302380Y-89785238D02*
X146826190Y-90118571D01*
X147302380Y-90356666D02*
X146302380Y-90356666D01*
X146302380Y-89975714D01*
X146350000Y-89880476D01*
X146397619Y-89832857D01*
X146492857Y-89785238D01*
X146635714Y-89785238D01*
X146730952Y-89832857D01*
X146778571Y-89880476D01*
X146826190Y-89975714D01*
X146826190Y-90356666D01*
X146302380Y-89499523D02*
X147302380Y-89166190D01*
X146302380Y-88832857D01*
X146302380Y-88594761D02*
X146302380Y-87975714D01*
X146683333Y-88309047D01*
X146683333Y-88166190D01*
X146730952Y-88070952D01*
X146778571Y-88023333D01*
X146873809Y-87975714D01*
X147111904Y-87975714D01*
X147207142Y-88023333D01*
X147254761Y-88070952D01*
X147302380Y-88166190D01*
X147302380Y-88451904D01*
X147254761Y-88547142D01*
X147207142Y-88594761D01*
%TO.C,RV2*%
X124392380Y-89865238D02*
X123916190Y-90198571D01*
X124392380Y-90436666D02*
X123392380Y-90436666D01*
X123392380Y-90055714D01*
X123440000Y-89960476D01*
X123487619Y-89912857D01*
X123582857Y-89865238D01*
X123725714Y-89865238D01*
X123820952Y-89912857D01*
X123868571Y-89960476D01*
X123916190Y-90055714D01*
X123916190Y-90436666D01*
X123392380Y-89579523D02*
X124392380Y-89246190D01*
X123392380Y-88912857D01*
X123487619Y-88627142D02*
X123440000Y-88579523D01*
X123392380Y-88484285D01*
X123392380Y-88246190D01*
X123440000Y-88150952D01*
X123487619Y-88103333D01*
X123582857Y-88055714D01*
X123678095Y-88055714D01*
X123820952Y-88103333D01*
X124392380Y-88674761D01*
X124392380Y-88055714D01*
%TO.C,RV1*%
X101332380Y-89625238D02*
X100856190Y-89958571D01*
X101332380Y-90196666D02*
X100332380Y-90196666D01*
X100332380Y-89815714D01*
X100380000Y-89720476D01*
X100427619Y-89672857D01*
X100522857Y-89625238D01*
X100665714Y-89625238D01*
X100760952Y-89672857D01*
X100808571Y-89720476D01*
X100856190Y-89815714D01*
X100856190Y-90196666D01*
X100332380Y-89339523D02*
X101332380Y-89006190D01*
X100332380Y-88672857D01*
X101332380Y-87815714D02*
X101332380Y-88387142D01*
X101332380Y-88101428D02*
X100332380Y-88101428D01*
X100475238Y-88196666D01*
X100570476Y-88291904D01*
X100618095Y-88387142D01*
%TD*%
M02*
