%TF.GenerationSoftware,KiCad,Pcbnew,(5.1.10)-1*%
%TF.CreationDate,2021-09-02T23:50:42+09:00*%
%TF.ProjectId,bleachedplusplus,626c6561-6368-4656-9470-6c7573706c75,rev?*%
%TF.SameCoordinates,Original*%
%TF.FileFunction,Legend,Top*%
%TF.FilePolarity,Positive*%
%FSLAX46Y46*%
G04 Gerber Fmt 4.6, Leading zero omitted, Abs format (unit mm)*
G04 Created by KiCad (PCBNEW (5.1.10)-1) date 2021-09-02 23:50:42*
%MOMM*%
%LPD*%
G01*
G04 APERTURE LIST*
%ADD10C,0.100000*%
%ADD11C,0.120000*%
%ADD12C,0.150000*%
G04 APERTURE END LIST*
D10*
X68604761Y-90561904D02*
X68604761Y-91133333D01*
X68566666Y-91247619D01*
X68490476Y-91323809D01*
X68376190Y-91361904D01*
X68300000Y-91361904D01*
X69366666Y-91361904D02*
X68985714Y-91361904D01*
X68985714Y-90561904D01*
X70090476Y-91285714D02*
X70052380Y-91323809D01*
X69938095Y-91361904D01*
X69861904Y-91361904D01*
X69747619Y-91323809D01*
X69671428Y-91247619D01*
X69633333Y-91171428D01*
X69595238Y-91019047D01*
X69595238Y-90904761D01*
X69633333Y-90752380D01*
X69671428Y-90676190D01*
X69747619Y-90600000D01*
X69861904Y-90561904D01*
X69938095Y-90561904D01*
X70052380Y-90600000D01*
X70090476Y-90638095D01*
X70661904Y-90561904D02*
X70661904Y-91133333D01*
X70623809Y-91247619D01*
X70547619Y-91323809D01*
X70433333Y-91361904D01*
X70357142Y-91361904D01*
X71423809Y-91361904D02*
X71042857Y-91361904D01*
X71042857Y-90561904D01*
X72147619Y-91285714D02*
X72109523Y-91323809D01*
X71995238Y-91361904D01*
X71919047Y-91361904D01*
X71804761Y-91323809D01*
X71728571Y-91247619D01*
X71690476Y-91171428D01*
X71652380Y-91019047D01*
X71652380Y-90904761D01*
X71690476Y-90752380D01*
X71728571Y-90676190D01*
X71804761Y-90600000D01*
X71919047Y-90561904D01*
X71995238Y-90561904D01*
X72109523Y-90600000D01*
X72147619Y-90638095D01*
X72719047Y-90561904D02*
X72719047Y-91133333D01*
X72680952Y-91247619D01*
X72604761Y-91323809D01*
X72490476Y-91361904D01*
X72414285Y-91361904D01*
X73480952Y-91361904D02*
X73100000Y-91361904D01*
X73100000Y-90561904D01*
X74204761Y-91285714D02*
X74166666Y-91323809D01*
X74052380Y-91361904D01*
X73976190Y-91361904D01*
X73861904Y-91323809D01*
X73785714Y-91247619D01*
X73747619Y-91171428D01*
X73709523Y-91019047D01*
X73709523Y-90904761D01*
X73747619Y-90752380D01*
X73785714Y-90676190D01*
X73861904Y-90600000D01*
X73976190Y-90561904D01*
X74052380Y-90561904D01*
X74166666Y-90600000D01*
X74204761Y-90638095D01*
X74776190Y-90561904D02*
X74776190Y-91133333D01*
X74738095Y-91247619D01*
X74661904Y-91323809D01*
X74547619Y-91361904D01*
X74471428Y-91361904D01*
X75538095Y-91361904D02*
X75157142Y-91361904D01*
X75157142Y-90561904D01*
X76261904Y-91285714D02*
X76223809Y-91323809D01*
X76109523Y-91361904D01*
X76033333Y-91361904D01*
X75919047Y-91323809D01*
X75842857Y-91247619D01*
X75804761Y-91171428D01*
X75766666Y-91019047D01*
X75766666Y-90904761D01*
X75804761Y-90752380D01*
X75842857Y-90676190D01*
X75919047Y-90600000D01*
X76033333Y-90561904D01*
X76109523Y-90561904D01*
X76223809Y-90600000D01*
X76261904Y-90638095D01*
D11*
%TO.C,RV9*%
X67530000Y-103630000D02*
X67530000Y-113370000D01*
X79120000Y-103630000D02*
X79120000Y-105120000D01*
X70590000Y-103630000D02*
X67530000Y-103630000D01*
X79120000Y-113380000D02*
X74400000Y-113380000D01*
X70590000Y-113370000D02*
X67530000Y-113370000D01*
X79120000Y-103630000D02*
X74400000Y-103630000D01*
X79120000Y-112190000D02*
X79120000Y-113370000D01*
X79120000Y-109290000D02*
X79120000Y-109820000D01*
X79120000Y-106840000D02*
X79120000Y-107670000D01*
%TO.C,RV8*%
X90530000Y-103630000D02*
X90530000Y-113370000D01*
X102120000Y-103630000D02*
X102120000Y-105120000D01*
X93590000Y-103630000D02*
X90530000Y-103630000D01*
X102120000Y-113380000D02*
X97400000Y-113380000D01*
X93590000Y-113370000D02*
X90530000Y-113370000D01*
X102120000Y-103630000D02*
X97400000Y-103630000D01*
X102120000Y-112190000D02*
X102120000Y-113370000D01*
X102120000Y-109290000D02*
X102120000Y-109820000D01*
X102120000Y-106840000D02*
X102120000Y-107670000D01*
%TO.C,RV7*%
X113630000Y-113470000D02*
X123370000Y-113470000D01*
X113630000Y-101880000D02*
X115120000Y-101880000D01*
X113630000Y-110410000D02*
X113630000Y-113470000D01*
X123380000Y-101880000D02*
X123380000Y-106600000D01*
X123370000Y-110410000D02*
X123370000Y-113470000D01*
X113630000Y-101880000D02*
X113630000Y-106600000D01*
X122190000Y-101880000D02*
X123370000Y-101880000D01*
X119290000Y-101880000D02*
X119820000Y-101880000D01*
X116840000Y-101880000D02*
X117670000Y-101880000D01*
%TO.C,RV6*%
X136630000Y-113470000D02*
X146370000Y-113470000D01*
X136630000Y-101880000D02*
X138120000Y-101880000D01*
X136630000Y-110410000D02*
X136630000Y-113470000D01*
X146380000Y-101880000D02*
X146380000Y-106600000D01*
X146370000Y-110410000D02*
X146370000Y-113470000D01*
X136630000Y-101880000D02*
X136630000Y-106600000D01*
X145190000Y-101880000D02*
X146370000Y-101880000D01*
X142290000Y-101880000D02*
X142820000Y-101880000D01*
X139840000Y-101880000D02*
X140670000Y-101880000D01*
%TO.C,RV5*%
X159630000Y-113470000D02*
X169370000Y-113470000D01*
X159630000Y-101880000D02*
X161120000Y-101880000D01*
X159630000Y-110410000D02*
X159630000Y-113470000D01*
X169380000Y-101880000D02*
X169380000Y-106600000D01*
X169370000Y-110410000D02*
X169370000Y-113470000D01*
X159630000Y-101880000D02*
X159630000Y-106600000D01*
X168190000Y-101880000D02*
X169370000Y-101880000D01*
X165290000Y-101880000D02*
X165820000Y-101880000D01*
X162840000Y-101880000D02*
X163670000Y-101880000D01*
%TO.C,RV4*%
X178370000Y-79530000D02*
X168630000Y-79530000D01*
X178370000Y-91120000D02*
X176880000Y-91120000D01*
X178370000Y-82590000D02*
X178370000Y-79530000D01*
X168620000Y-91120000D02*
X168620000Y-86400000D01*
X168630000Y-82590000D02*
X168630000Y-79530000D01*
X178370000Y-91120000D02*
X178370000Y-86400000D01*
X169810000Y-91120000D02*
X168630000Y-91120000D01*
X172710000Y-91120000D02*
X172180000Y-91120000D01*
X175160000Y-91120000D02*
X174330000Y-91120000D01*
%TO.C,RV3*%
X155370000Y-79530000D02*
X145630000Y-79530000D01*
X155370000Y-91120000D02*
X153880000Y-91120000D01*
X155370000Y-82590000D02*
X155370000Y-79530000D01*
X145620000Y-91120000D02*
X145620000Y-86400000D01*
X145630000Y-82590000D02*
X145630000Y-79530000D01*
X155370000Y-91120000D02*
X155370000Y-86400000D01*
X146810000Y-91120000D02*
X145630000Y-91120000D01*
X149710000Y-91120000D02*
X149180000Y-91120000D01*
X152160000Y-91120000D02*
X151330000Y-91120000D01*
%TO.C,RV2*%
X132370000Y-79530000D02*
X122630000Y-79530000D01*
X132370000Y-91120000D02*
X130880000Y-91120000D01*
X132370000Y-82590000D02*
X132370000Y-79530000D01*
X122620000Y-91120000D02*
X122620000Y-86400000D01*
X122630000Y-82590000D02*
X122630000Y-79530000D01*
X132370000Y-91120000D02*
X132370000Y-86400000D01*
X123810000Y-91120000D02*
X122630000Y-91120000D01*
X126710000Y-91120000D02*
X126180000Y-91120000D01*
X129160000Y-91120000D02*
X128330000Y-91120000D01*
%TO.C,RV1*%
X109370000Y-79530000D02*
X99630000Y-79530000D01*
X109370000Y-91120000D02*
X107880000Y-91120000D01*
X109370000Y-82590000D02*
X109370000Y-79530000D01*
X99620000Y-91120000D02*
X99620000Y-86400000D01*
X99630000Y-82590000D02*
X99630000Y-79530000D01*
X109370000Y-91120000D02*
X109370000Y-86400000D01*
X100810000Y-91120000D02*
X99630000Y-91120000D01*
X103710000Y-91120000D02*
X103180000Y-91120000D01*
X106160000Y-91120000D02*
X105330000Y-91120000D01*
D12*
%TO.C,U1*%
X92250000Y-93250000D02*
X91750000Y-92750000D01*
X91700000Y-93250000D02*
X92250000Y-93250000D01*
X94250000Y-92750000D02*
X93750000Y-93250000D01*
X91750000Y-89250000D02*
X92250000Y-88750000D01*
X93750000Y-88750000D02*
X92250000Y-88750000D01*
X94250000Y-89250000D02*
X93750000Y-88750000D01*
X94000000Y-91750000D02*
X94000000Y-90250000D01*
X92000000Y-90250000D02*
X92000000Y-91750000D01*
X86000000Y-96000000D02*
X91000000Y-91000000D01*
X81000000Y-91000000D02*
X86000000Y-96000000D01*
X86000000Y-86000000D02*
X81000000Y-91000000D01*
X91000000Y-91000000D02*
X86000000Y-86000000D01*
X61220000Y-94810000D02*
X59950000Y-94810000D01*
X59950000Y-94810000D02*
X59950000Y-87190000D01*
X59950000Y-87190000D02*
X61220000Y-87190000D01*
X66300000Y-94810000D02*
X66300000Y-87190000D01*
X66300000Y-87190000D02*
X61220000Y-87190000D01*
X66300000Y-94810000D02*
X61220000Y-94810000D01*
X94250000Y-88750000D02*
X94240000Y-93250000D01*
X94240000Y-93250000D02*
X91700000Y-93250000D01*
X91700000Y-93250000D02*
X91700000Y-88750000D01*
X91700000Y-88750000D02*
X94240000Y-88750000D01*
X61220000Y-82110000D02*
X96780000Y-82110000D01*
X96780000Y-82110000D02*
X96780000Y-99890000D01*
X96780000Y-99890000D02*
X61220000Y-99890000D01*
X61220000Y-99890000D02*
X61220000Y-82110000D01*
D10*
G36*
X85187000Y-88421000D02*
G01*
X84933000Y-88167000D01*
X85314000Y-87913000D01*
X85568000Y-88167000D01*
X85187000Y-88421000D01*
G37*
X85187000Y-88421000D02*
X84933000Y-88167000D01*
X85314000Y-87913000D01*
X85568000Y-88167000D01*
X85187000Y-88421000D01*
G36*
X85568000Y-88802000D02*
G01*
X85314000Y-88548000D01*
X85695000Y-88294000D01*
X85949000Y-88548000D01*
X85568000Y-88802000D01*
G37*
X85568000Y-88802000D02*
X85314000Y-88548000D01*
X85695000Y-88294000D01*
X85949000Y-88548000D01*
X85568000Y-88802000D01*
G36*
X86203000Y-87659000D02*
G01*
X85949000Y-87405000D01*
X86330000Y-87151000D01*
X86584000Y-87405000D01*
X86203000Y-87659000D01*
G37*
X86203000Y-87659000D02*
X85949000Y-87405000D01*
X86330000Y-87151000D01*
X86584000Y-87405000D01*
X86203000Y-87659000D01*
G36*
X85441000Y-89564000D02*
G01*
X85187000Y-89310000D01*
X85568000Y-89056000D01*
X85822000Y-89310000D01*
X85441000Y-89564000D01*
G37*
X85441000Y-89564000D02*
X85187000Y-89310000D01*
X85568000Y-89056000D01*
X85822000Y-89310000D01*
X85441000Y-89564000D01*
G36*
X85695000Y-88040000D02*
G01*
X85441000Y-87786000D01*
X85822000Y-87532000D01*
X86076000Y-87786000D01*
X85695000Y-88040000D01*
G37*
X85695000Y-88040000D02*
X85441000Y-87786000D01*
X85822000Y-87532000D01*
X86076000Y-87786000D01*
X85695000Y-88040000D01*
G36*
X85822000Y-89945000D02*
G01*
X85568000Y-89691000D01*
X85949000Y-89437000D01*
X86203000Y-89691000D01*
X85822000Y-89945000D01*
G37*
X85822000Y-89945000D02*
X85568000Y-89691000D01*
X85949000Y-89437000D01*
X86203000Y-89691000D01*
X85822000Y-89945000D01*
G36*
X85060000Y-89183000D02*
G01*
X84806000Y-88929000D01*
X85187000Y-88675000D01*
X85441000Y-88929000D01*
X85060000Y-89183000D01*
G37*
X85060000Y-89183000D02*
X84806000Y-88929000D01*
X85187000Y-88675000D01*
X85441000Y-88929000D01*
X85060000Y-89183000D01*
G36*
X86076000Y-88421000D02*
G01*
X85822000Y-88167000D01*
X86203000Y-87913000D01*
X86457000Y-88167000D01*
X86076000Y-88421000D01*
G37*
X86076000Y-88421000D02*
X85822000Y-88167000D01*
X86203000Y-87913000D01*
X86457000Y-88167000D01*
X86076000Y-88421000D01*
D12*
X94000000Y-91750000D02*
G75*
G02*
X92000000Y-91750000I-1000000J0D01*
G01*
X92000000Y-90250000D02*
G75*
G02*
X94000000Y-90250000I1000000J0D01*
G01*
%TO.C,RV9*%
D10*
X80123809Y-113361904D02*
X79857142Y-112980952D01*
X79666666Y-113361904D02*
X79666666Y-112561904D01*
X79971428Y-112561904D01*
X80047619Y-112600000D01*
X80085714Y-112638095D01*
X80123809Y-112714285D01*
X80123809Y-112828571D01*
X80085714Y-112904761D01*
X80047619Y-112942857D01*
X79971428Y-112980952D01*
X79666666Y-112980952D01*
X80352380Y-112561904D02*
X80619047Y-113361904D01*
X80885714Y-112561904D01*
X81190476Y-113361904D02*
X81342857Y-113361904D01*
X81419047Y-113323809D01*
X81457142Y-113285714D01*
X81533333Y-113171428D01*
X81571428Y-113019047D01*
X81571428Y-112714285D01*
X81533333Y-112638095D01*
X81495238Y-112600000D01*
X81419047Y-112561904D01*
X81266666Y-112561904D01*
X81190476Y-112600000D01*
X81152380Y-112638095D01*
X81114285Y-112714285D01*
X81114285Y-112904761D01*
X81152380Y-112980952D01*
X81190476Y-113019047D01*
X81266666Y-113057142D01*
X81419047Y-113057142D01*
X81495238Y-113019047D01*
X81533333Y-112980952D01*
X81571428Y-112904761D01*
%TO.C,RV8*%
X103123809Y-113361904D02*
X102857142Y-112980952D01*
X102666666Y-113361904D02*
X102666666Y-112561904D01*
X102971428Y-112561904D01*
X103047619Y-112600000D01*
X103085714Y-112638095D01*
X103123809Y-112714285D01*
X103123809Y-112828571D01*
X103085714Y-112904761D01*
X103047619Y-112942857D01*
X102971428Y-112980952D01*
X102666666Y-112980952D01*
X103352380Y-112561904D02*
X103619047Y-113361904D01*
X103885714Y-112561904D01*
X104266666Y-112904761D02*
X104190476Y-112866666D01*
X104152380Y-112828571D01*
X104114285Y-112752380D01*
X104114285Y-112714285D01*
X104152380Y-112638095D01*
X104190476Y-112600000D01*
X104266666Y-112561904D01*
X104419047Y-112561904D01*
X104495238Y-112600000D01*
X104533333Y-112638095D01*
X104571428Y-112714285D01*
X104571428Y-112752380D01*
X104533333Y-112828571D01*
X104495238Y-112866666D01*
X104419047Y-112904761D01*
X104266666Y-112904761D01*
X104190476Y-112942857D01*
X104152380Y-112980952D01*
X104114285Y-113057142D01*
X104114285Y-113209523D01*
X104152380Y-113285714D01*
X104190476Y-113323809D01*
X104266666Y-113361904D01*
X104419047Y-113361904D01*
X104495238Y-113323809D01*
X104533333Y-113285714D01*
X104571428Y-113209523D01*
X104571428Y-113057142D01*
X104533333Y-112980952D01*
X104495238Y-112942857D01*
X104419047Y-112904761D01*
%TO.C,RV7*%
X124423809Y-113361904D02*
X124157142Y-112980952D01*
X123966666Y-113361904D02*
X123966666Y-112561904D01*
X124271428Y-112561904D01*
X124347619Y-112600000D01*
X124385714Y-112638095D01*
X124423809Y-112714285D01*
X124423809Y-112828571D01*
X124385714Y-112904761D01*
X124347619Y-112942857D01*
X124271428Y-112980952D01*
X123966666Y-112980952D01*
X124652380Y-112561904D02*
X124919047Y-113361904D01*
X125185714Y-112561904D01*
X125376190Y-112561904D02*
X125909523Y-112561904D01*
X125566666Y-113361904D01*
%TO.C,RV6*%
X147423809Y-113361904D02*
X147157142Y-112980952D01*
X146966666Y-113361904D02*
X146966666Y-112561904D01*
X147271428Y-112561904D01*
X147347619Y-112600000D01*
X147385714Y-112638095D01*
X147423809Y-112714285D01*
X147423809Y-112828571D01*
X147385714Y-112904761D01*
X147347619Y-112942857D01*
X147271428Y-112980952D01*
X146966666Y-112980952D01*
X147652380Y-112561904D02*
X147919047Y-113361904D01*
X148185714Y-112561904D01*
X148795238Y-112561904D02*
X148642857Y-112561904D01*
X148566666Y-112600000D01*
X148528571Y-112638095D01*
X148452380Y-112752380D01*
X148414285Y-112904761D01*
X148414285Y-113209523D01*
X148452380Y-113285714D01*
X148490476Y-113323809D01*
X148566666Y-113361904D01*
X148719047Y-113361904D01*
X148795238Y-113323809D01*
X148833333Y-113285714D01*
X148871428Y-113209523D01*
X148871428Y-113019047D01*
X148833333Y-112942857D01*
X148795238Y-112904761D01*
X148719047Y-112866666D01*
X148566666Y-112866666D01*
X148490476Y-112904761D01*
X148452380Y-112942857D01*
X148414285Y-113019047D01*
%TO.C,RV5*%
X170423809Y-113361904D02*
X170157142Y-112980952D01*
X169966666Y-113361904D02*
X169966666Y-112561904D01*
X170271428Y-112561904D01*
X170347619Y-112600000D01*
X170385714Y-112638095D01*
X170423809Y-112714285D01*
X170423809Y-112828571D01*
X170385714Y-112904761D01*
X170347619Y-112942857D01*
X170271428Y-112980952D01*
X169966666Y-112980952D01*
X170652380Y-112561904D02*
X170919047Y-113361904D01*
X171185714Y-112561904D01*
X171833333Y-112561904D02*
X171452380Y-112561904D01*
X171414285Y-112942857D01*
X171452380Y-112904761D01*
X171528571Y-112866666D01*
X171719047Y-112866666D01*
X171795238Y-112904761D01*
X171833333Y-112942857D01*
X171871428Y-113019047D01*
X171871428Y-113209523D01*
X171833333Y-113285714D01*
X171795238Y-113323809D01*
X171719047Y-113361904D01*
X171528571Y-113361904D01*
X171452380Y-113323809D01*
X171414285Y-113285714D01*
%TO.C,RV4*%
X168023809Y-92461904D02*
X167757142Y-92080952D01*
X167566666Y-92461904D02*
X167566666Y-91661904D01*
X167871428Y-91661904D01*
X167947619Y-91700000D01*
X167985714Y-91738095D01*
X168023809Y-91814285D01*
X168023809Y-91928571D01*
X167985714Y-92004761D01*
X167947619Y-92042857D01*
X167871428Y-92080952D01*
X167566666Y-92080952D01*
X168252380Y-91661904D02*
X168519047Y-92461904D01*
X168785714Y-91661904D01*
X169395238Y-91928571D02*
X169395238Y-92461904D01*
X169204761Y-91623809D02*
X169014285Y-92195238D01*
X169509523Y-92195238D01*
%TO.C,RV3*%
X145023809Y-92461904D02*
X144757142Y-92080952D01*
X144566666Y-92461904D02*
X144566666Y-91661904D01*
X144871428Y-91661904D01*
X144947619Y-91700000D01*
X144985714Y-91738095D01*
X145023809Y-91814285D01*
X145023809Y-91928571D01*
X144985714Y-92004761D01*
X144947619Y-92042857D01*
X144871428Y-92080952D01*
X144566666Y-92080952D01*
X145252380Y-91661904D02*
X145519047Y-92461904D01*
X145785714Y-91661904D01*
X145976190Y-91661904D02*
X146471428Y-91661904D01*
X146204761Y-91966666D01*
X146319047Y-91966666D01*
X146395238Y-92004761D01*
X146433333Y-92042857D01*
X146471428Y-92119047D01*
X146471428Y-92309523D01*
X146433333Y-92385714D01*
X146395238Y-92423809D01*
X146319047Y-92461904D01*
X146090476Y-92461904D01*
X146014285Y-92423809D01*
X145976190Y-92385714D01*
%TO.C,RV2*%
X122023809Y-92461904D02*
X121757142Y-92080952D01*
X121566666Y-92461904D02*
X121566666Y-91661904D01*
X121871428Y-91661904D01*
X121947619Y-91700000D01*
X121985714Y-91738095D01*
X122023809Y-91814285D01*
X122023809Y-91928571D01*
X121985714Y-92004761D01*
X121947619Y-92042857D01*
X121871428Y-92080952D01*
X121566666Y-92080952D01*
X122252380Y-91661904D02*
X122519047Y-92461904D01*
X122785714Y-91661904D01*
X123014285Y-91738095D02*
X123052380Y-91700000D01*
X123128571Y-91661904D01*
X123319047Y-91661904D01*
X123395238Y-91700000D01*
X123433333Y-91738095D01*
X123471428Y-91814285D01*
X123471428Y-91890476D01*
X123433333Y-92004761D01*
X122976190Y-92461904D01*
X123471428Y-92461904D01*
%TO.C,RV1*%
X99123809Y-92461904D02*
X98857142Y-92080952D01*
X98666666Y-92461904D02*
X98666666Y-91661904D01*
X98971428Y-91661904D01*
X99047619Y-91700000D01*
X99085714Y-91738095D01*
X99123809Y-91814285D01*
X99123809Y-91928571D01*
X99085714Y-92004761D01*
X99047619Y-92042857D01*
X98971428Y-92080952D01*
X98666666Y-92080952D01*
X99352380Y-91661904D02*
X99619047Y-92461904D01*
X99885714Y-91661904D01*
X100571428Y-92461904D02*
X100114285Y-92461904D01*
X100342857Y-92461904D02*
X100342857Y-91661904D01*
X100266666Y-91776190D01*
X100190476Y-91852380D01*
X100114285Y-91890476D01*
%TO.C,U1*%
D12*
X82266666Y-91376666D02*
X82266666Y-90676666D01*
X82500000Y-91176666D01*
X82733333Y-90676666D01*
X82733333Y-91376666D01*
X83066666Y-91376666D02*
X83066666Y-90676666D01*
X83466666Y-91376666D02*
X83166666Y-90976666D01*
X83466666Y-90676666D02*
X83066666Y-91076666D01*
X84100000Y-91376666D02*
X83766666Y-91376666D01*
X83766666Y-90676666D01*
X84300000Y-90743333D02*
X84333333Y-90710000D01*
X84400000Y-90676666D01*
X84566666Y-90676666D01*
X84633333Y-90710000D01*
X84666666Y-90743333D01*
X84700000Y-90810000D01*
X84700000Y-90876666D01*
X84666666Y-90976666D01*
X84266666Y-91376666D01*
X84700000Y-91376666D01*
X85300000Y-90676666D02*
X85166666Y-90676666D01*
X85100000Y-90710000D01*
X85066666Y-90743333D01*
X85000000Y-90843333D01*
X84966666Y-90976666D01*
X84966666Y-91243333D01*
X85000000Y-91310000D01*
X85033333Y-91343333D01*
X85100000Y-91376666D01*
X85233333Y-91376666D01*
X85300000Y-91343333D01*
X85333333Y-91310000D01*
X85366666Y-91243333D01*
X85366666Y-91076666D01*
X85333333Y-91010000D01*
X85300000Y-90976666D01*
X85233333Y-90943333D01*
X85100000Y-90943333D01*
X85033333Y-90976666D01*
X85000000Y-91010000D01*
X84966666Y-91076666D01*
X85600000Y-90676666D02*
X86066666Y-90676666D01*
X85600000Y-91376666D01*
X86066666Y-91376666D01*
X86633333Y-90676666D02*
X86500000Y-90676666D01*
X86433333Y-90710000D01*
X86400000Y-90743333D01*
X86333333Y-90843333D01*
X86300000Y-90976666D01*
X86300000Y-91243333D01*
X86333333Y-91310000D01*
X86366666Y-91343333D01*
X86433333Y-91376666D01*
X86566666Y-91376666D01*
X86633333Y-91343333D01*
X86666666Y-91310000D01*
X86700000Y-91243333D01*
X86700000Y-91076666D01*
X86666666Y-91010000D01*
X86633333Y-90976666D01*
X86566666Y-90943333D01*
X86433333Y-90943333D01*
X86366666Y-90976666D01*
X86333333Y-91010000D01*
X86300000Y-91076666D01*
X87300000Y-90910000D02*
X87300000Y-91376666D01*
X87133333Y-90643333D02*
X86966666Y-91143333D01*
X87400000Y-91143333D01*
X87566666Y-90676666D02*
X87800000Y-91376666D01*
X88033333Y-90676666D01*
X88500000Y-91010000D02*
X88266666Y-91010000D01*
X88266666Y-91376666D02*
X88266666Y-90676666D01*
X88600000Y-90676666D01*
X88766666Y-90676666D02*
X89166666Y-90676666D01*
X88966666Y-91376666D02*
X88966666Y-90676666D01*
X89700000Y-90910000D02*
X89700000Y-91376666D01*
X89533333Y-90643333D02*
X89366666Y-91143333D01*
X89800000Y-91143333D01*
%TD*%
M02*
