M48
; DRILL file {KiCad (5.1.10)-1} date 09/02/21 23:34:52
; FORMAT={-:-/ absolute / metric / decimal}
; #@! TF.CreationDate,2021-09-02T23:34:52+09:00
; #@! TF.GenerationSoftware,Kicad,Pcbnew,(5.1.10)-1
FMAT,2
METRIC
T1C1.000
T2C1.100
T3C2.700
%
G90
G05
T1
X80.0Y-106.0
X80.0Y-108.5
X80.0Y-111.0
X102.0Y-92.0
X103.0Y-106.0
X103.0Y-108.5
X103.0Y-111.0
X104.5Y-92.0
X107.0Y-92.0
X116.0Y-101.0
X118.5Y-101.0
X121.0Y-101.0
X125.0Y-92.0
X127.5Y-92.0
X130.0Y-92.0
X139.0Y-101.0
X141.5Y-101.0
X144.0Y-101.0
X148.0Y-92.0
X150.5Y-92.0
X153.0Y-92.0
X162.0Y-101.0
X164.5Y-101.0
X167.0Y-101.0
X171.0Y-92.0
X173.5Y-92.0
X176.0Y-92.0
T2
X62.49Y-83.38
X62.49Y-98.62
X65.03Y-83.38
X65.03Y-98.62
X67.57Y-83.38
X67.57Y-98.62
X70.11Y-83.38
X70.11Y-98.62
X72.65Y-83.38
X72.65Y-98.62
X75.19Y-83.38
X75.19Y-98.62
X77.73Y-83.38
X77.73Y-98.62
X80.27Y-83.38
X80.27Y-98.62
X82.81Y-83.38
X82.81Y-98.62
X85.35Y-83.38
X85.35Y-98.62
X87.89Y-83.38
X87.89Y-98.62
X90.43Y-83.38
X90.43Y-98.62
X92.97Y-83.38
X92.97Y-98.62
X95.51Y-83.38
X95.51Y-98.62
T3
X64.0Y-78.0
X64.0Y-116.0
X182.0Y-78.0
X182.0Y-116.0
T2
G00X72.85Y-103.7
M15
G01X72.15Y-103.7
M16
G05
G00X72.85Y-113.3
M15
G01X72.15Y-113.3
M16
G05
G00X95.85Y-103.7
M15
G01X95.15Y-103.7
M16
G05
G00X95.85Y-113.3
M15
G01X95.15Y-113.3
M16
G05
G00X99.7Y-84.85
M15
G01X99.7Y-84.15
M16
G05
G00X109.3Y-84.85
M15
G01X109.3Y-84.15
M16
G05
G00X113.7Y-108.15
M15
G01X113.7Y-108.85
M16
G05
G00X122.7Y-84.85
M15
G01X122.7Y-84.15
M16
G05
G00X123.3Y-108.15
M15
G01X123.3Y-108.85
M16
G05
G00X132.3Y-84.85
M15
G01X132.3Y-84.15
M16
G05
G00X136.7Y-108.15
M15
G01X136.7Y-108.85
M16
G05
G00X145.7Y-84.85
M15
G01X145.7Y-84.15
M16
G05
G00X146.3Y-108.15
M15
G01X146.3Y-108.85
M16
G05
G00X155.3Y-84.85
M15
G01X155.3Y-84.15
M16
G05
G00X159.7Y-108.15
M15
G01X159.7Y-108.85
M16
G05
G00X168.7Y-84.85
M15
G01X168.7Y-84.15
M16
G05
G00X169.3Y-108.15
M15
G01X169.3Y-108.85
M16
G05
G00X178.3Y-84.85
M15
G01X178.3Y-84.15
M16
G05
T0
M30
