%TF.GenerationSoftware,KiCad,Pcbnew,(5.1.10)-1*%
%TF.CreationDate,2021-08-17T18:48:40+09:00*%
%TF.ProjectId,bleachedplusplus,626c6561-6368-4656-9470-6c7573706c75,rev?*%
%TF.SameCoordinates,Original*%
%TF.FileFunction,Soldermask,Top*%
%TF.FilePolarity,Negative*%
%FSLAX46Y46*%
G04 Gerber Fmt 4.6, Leading zero omitted, Abs format (unit mm)*
G04 Created by KiCad (PCBNEW (5.1.10)-1) date 2021-08-17 18:48:40*
%MOMM*%
%LPD*%
G01*
G04 APERTURE LIST*
%ADD10R,1.800000X1.800000*%
%ADD11C,1.800000*%
%ADD12O,3.240000X2.720000*%
%ADD13O,2.720000X3.240000*%
%ADD14C,4.700000*%
%ADD15R,1.600000X1.600000*%
%ADD16C,1.600000*%
G04 APERTURE END LIST*
D10*
%TO.C,RV9*%
X80000000Y-111000000D03*
D11*
X80000000Y-108500000D03*
X80000000Y-106000000D03*
D12*
X72500000Y-103700000D03*
X72500000Y-113300000D03*
%TD*%
D10*
%TO.C,RV8*%
X103000000Y-111000000D03*
D11*
X103000000Y-108500000D03*
X103000000Y-106000000D03*
D12*
X95500000Y-103700000D03*
X95500000Y-113300000D03*
%TD*%
D10*
%TO.C,RV7*%
X121000000Y-101000000D03*
D11*
X118500000Y-101000000D03*
X116000000Y-101000000D03*
D13*
X113700000Y-108500000D03*
X123300000Y-108500000D03*
%TD*%
D10*
%TO.C,RV6*%
X144000000Y-101000000D03*
D11*
X141500000Y-101000000D03*
X139000000Y-101000000D03*
D13*
X136700000Y-108500000D03*
X146300000Y-108500000D03*
%TD*%
D10*
%TO.C,RV5*%
X167000000Y-101000000D03*
D11*
X164500000Y-101000000D03*
X162000000Y-101000000D03*
D13*
X159700000Y-108500000D03*
X169300000Y-108500000D03*
%TD*%
D10*
%TO.C,RV4*%
X171000000Y-92000000D03*
D11*
X173500000Y-92000000D03*
X176000000Y-92000000D03*
D13*
X178300000Y-84500000D03*
X168700000Y-84500000D03*
%TD*%
D10*
%TO.C,RV3*%
X148000000Y-92000000D03*
D11*
X150500000Y-92000000D03*
X153000000Y-92000000D03*
D13*
X155300000Y-84500000D03*
X145700000Y-84500000D03*
%TD*%
D10*
%TO.C,RV2*%
X125000000Y-92000000D03*
D11*
X127500000Y-92000000D03*
X130000000Y-92000000D03*
D13*
X132300000Y-84500000D03*
X122700000Y-84500000D03*
%TD*%
D10*
%TO.C,RV1*%
X102000000Y-92000000D03*
D11*
X104500000Y-92000000D03*
X107000000Y-92000000D03*
D13*
X109300000Y-84500000D03*
X99700000Y-84500000D03*
%TD*%
D14*
%TO.C,REF\u002A\u002A*%
X182000000Y-116000000D03*
%TD*%
%TO.C,REF\u002A\u002A*%
X182000000Y-78000000D03*
%TD*%
%TO.C,REF\u002A\u002A*%
X64000000Y-78000000D03*
%TD*%
%TO.C,REF\u002A\u002A*%
X64000000Y-116000000D03*
%TD*%
D15*
%TO.C,U1*%
X62490000Y-98620000D03*
D16*
X65030000Y-98620000D03*
X67570000Y-98620000D03*
X70110000Y-98620000D03*
X72650000Y-98620000D03*
X75190000Y-98620000D03*
X77730000Y-98620000D03*
X80270000Y-98620000D03*
X82810000Y-98620000D03*
X85350000Y-98620000D03*
X87890000Y-98620000D03*
X90430000Y-98620000D03*
X92970000Y-98620000D03*
X62490000Y-83380000D03*
X65030000Y-83380000D03*
X67570000Y-83380000D03*
X70110000Y-83380000D03*
X72650000Y-83380000D03*
X75190000Y-83380000D03*
X77730000Y-83380000D03*
X80270000Y-83380000D03*
X82810000Y-83380000D03*
X85350000Y-83380000D03*
X87890000Y-83380000D03*
X90430000Y-83380000D03*
X92970000Y-83380000D03*
X95510000Y-98620000D03*
X95510000Y-83380000D03*
%TD*%
M02*
