%TF.GenerationSoftware,KiCad,Pcbnew,(5.1.10)-1*%
%TF.CreationDate,2021-08-17T18:48:40+09:00*%
%TF.ProjectId,bleachedplusplus,626c6561-6368-4656-9470-6c7573706c75,rev?*%
%TF.SameCoordinates,Original*%
%TF.FileFunction,Copper,L2,Bot*%
%TF.FilePolarity,Positive*%
%FSLAX46Y46*%
G04 Gerber Fmt 4.6, Leading zero omitted, Abs format (unit mm)*
G04 Created by KiCad (PCBNEW (5.1.10)-1) date 2021-08-17 18:48:40*
%MOMM*%
%LPD*%
G01*
G04 APERTURE LIST*
%TA.AperFunction,ComponentPad*%
%ADD10R,1.800000X1.800000*%
%TD*%
%TA.AperFunction,ComponentPad*%
%ADD11C,1.800000*%
%TD*%
%TA.AperFunction,ComponentPad*%
%ADD12O,3.240000X2.720000*%
%TD*%
%TA.AperFunction,ComponentPad*%
%ADD13O,2.720000X3.240000*%
%TD*%
%TA.AperFunction,ComponentPad*%
%ADD14C,4.700000*%
%TD*%
%TA.AperFunction,ComponentPad*%
%ADD15R,1.600000X1.600000*%
%TD*%
%TA.AperFunction,ComponentPad*%
%ADD16C,1.600000*%
%TD*%
%TA.AperFunction,Conductor*%
%ADD17C,0.254000*%
%TD*%
%TA.AperFunction,Conductor*%
%ADD18C,0.100000*%
%TD*%
G04 APERTURE END LIST*
D10*
%TO.P,RV9,1*%
%TO.N,+3V3*%
X80000000Y-111000000D03*
D11*
%TO.P,RV9,2*%
%TO.N,a8*%
X80000000Y-108500000D03*
%TO.P,RV9,3*%
%TO.N,GND*%
X80000000Y-106000000D03*
D12*
%TO.P,RV9,*%
%TO.N,*%
X72500000Y-103700000D03*
X72500000Y-113300000D03*
%TD*%
D10*
%TO.P,RV8,1*%
%TO.N,+3V3*%
X103000000Y-111000000D03*
D11*
%TO.P,RV8,2*%
%TO.N,a7*%
X103000000Y-108500000D03*
%TO.P,RV8,3*%
%TO.N,GND*%
X103000000Y-106000000D03*
D12*
%TO.P,RV8,*%
%TO.N,*%
X95500000Y-103700000D03*
X95500000Y-113300000D03*
%TD*%
D10*
%TO.P,RV7,1*%
%TO.N,+3V3*%
X121000000Y-101000000D03*
D11*
%TO.P,RV7,2*%
%TO.N,a6*%
X118500000Y-101000000D03*
%TO.P,RV7,3*%
%TO.N,GND*%
X116000000Y-101000000D03*
D13*
%TO.P,RV7,*%
%TO.N,*%
X113700000Y-108500000D03*
X123300000Y-108500000D03*
%TD*%
D10*
%TO.P,RV6,1*%
%TO.N,+3V3*%
X144000000Y-101000000D03*
D11*
%TO.P,RV6,2*%
%TO.N,a5*%
X141500000Y-101000000D03*
%TO.P,RV6,3*%
%TO.N,GND*%
X139000000Y-101000000D03*
D13*
%TO.P,RV6,*%
%TO.N,*%
X136700000Y-108500000D03*
X146300000Y-108500000D03*
%TD*%
D10*
%TO.P,RV5,1*%
%TO.N,+3V3*%
X167000000Y-101000000D03*
D11*
%TO.P,RV5,2*%
%TO.N,a4*%
X164500000Y-101000000D03*
%TO.P,RV5,3*%
%TO.N,GND*%
X162000000Y-101000000D03*
D13*
%TO.P,RV5,*%
%TO.N,*%
X159700000Y-108500000D03*
X169300000Y-108500000D03*
%TD*%
D10*
%TO.P,RV4,1*%
%TO.N,+3V3*%
X171000000Y-92000000D03*
D11*
%TO.P,RV4,2*%
%TO.N,a3*%
X173500000Y-92000000D03*
%TO.P,RV4,3*%
%TO.N,GND*%
X176000000Y-92000000D03*
D13*
%TO.P,RV4,*%
%TO.N,*%
X178300000Y-84500000D03*
X168700000Y-84500000D03*
%TD*%
D10*
%TO.P,RV3,1*%
%TO.N,+3V3*%
X148000000Y-92000000D03*
D11*
%TO.P,RV3,2*%
%TO.N,a2*%
X150500000Y-92000000D03*
%TO.P,RV3,3*%
%TO.N,GND*%
X153000000Y-92000000D03*
D13*
%TO.P,RV3,*%
%TO.N,*%
X155300000Y-84500000D03*
X145700000Y-84500000D03*
%TD*%
D10*
%TO.P,RV2,1*%
%TO.N,+3V3*%
X125000000Y-92000000D03*
D11*
%TO.P,RV2,2*%
%TO.N,a1*%
X127500000Y-92000000D03*
%TO.P,RV2,3*%
%TO.N,GND*%
X130000000Y-92000000D03*
D13*
%TO.P,RV2,*%
%TO.N,*%
X132300000Y-84500000D03*
X122700000Y-84500000D03*
%TD*%
D10*
%TO.P,RV1,1*%
%TO.N,+3V3*%
X102000000Y-92000000D03*
D11*
%TO.P,RV1,2*%
%TO.N,a0*%
X104500000Y-92000000D03*
%TO.P,RV1,3*%
%TO.N,GND*%
X107000000Y-92000000D03*
D13*
%TO.P,RV1,*%
%TO.N,*%
X109300000Y-84500000D03*
X99700000Y-84500000D03*
%TD*%
D14*
%TO.P,REF\u002A\u002A,1*%
%TO.N,N/C*%
X182000000Y-116000000D03*
%TD*%
%TO.P,REF\u002A\u002A,1*%
%TO.N,N/C*%
X182000000Y-78000000D03*
%TD*%
%TO.P,REF\u002A\u002A,1*%
%TO.N,N/C*%
X64000000Y-78000000D03*
%TD*%
%TO.P,REF\u002A\u002A,1*%
%TO.N,N/C*%
X64000000Y-116000000D03*
%TD*%
D15*
%TO.P,U1,1*%
%TO.N,GND*%
X62490000Y-98620000D03*
D16*
%TO.P,U1,2*%
%TO.N,Net-(U1-Pad2)*%
X65030000Y-98620000D03*
%TO.P,U1,3*%
%TO.N,Net-(U1-Pad3)*%
X67570000Y-98620000D03*
%TO.P,U1,4*%
%TO.N,Net-(U1-Pad4)*%
X70110000Y-98620000D03*
%TO.P,U1,5*%
%TO.N,Net-(U1-Pad5)*%
X72650000Y-98620000D03*
%TO.P,U1,6*%
%TO.N,Net-(U1-Pad6)*%
X75190000Y-98620000D03*
%TO.P,U1,7*%
%TO.N,Net-(U1-Pad7)*%
X77730000Y-98620000D03*
%TO.P,U1,8*%
%TO.N,Net-(U1-Pad8)*%
X80270000Y-98620000D03*
%TO.P,U1,9*%
%TO.N,Net-(U1-Pad9)*%
X82810000Y-98620000D03*
%TO.P,U1,10*%
%TO.N,Net-(U1-Pad10)*%
X85350000Y-98620000D03*
%TO.P,U1,11*%
%TO.N,Net-(U1-Pad11)*%
X87890000Y-98620000D03*
%TO.P,U1,12*%
%TO.N,Net-(U1-Pad12)*%
X90430000Y-98620000D03*
%TO.P,U1,13*%
%TO.N,Net-(U1-Pad13)*%
X92970000Y-98620000D03*
%TO.P,U1,33*%
%TO.N,Net-(U1-Pad33)*%
X62490000Y-83380000D03*
%TO.P,U1,32*%
%TO.N,GND*%
X65030000Y-83380000D03*
%TO.P,U1,31*%
%TO.N,+3V3*%
X67570000Y-83380000D03*
%TO.P,U1,30*%
%TO.N,Net-(U1-Pad30)*%
X70110000Y-83380000D03*
%TO.P,U1,29*%
%TO.N,a8*%
X72650000Y-83380000D03*
%TO.P,U1,28*%
%TO.N,a7*%
X75190000Y-83380000D03*
%TO.P,U1,27*%
%TO.N,a6*%
X77730000Y-83380000D03*
%TO.P,U1,26*%
%TO.N,a5*%
X80270000Y-83380000D03*
%TO.P,U1,25*%
%TO.N,a4*%
X82810000Y-83380000D03*
%TO.P,U1,24*%
%TO.N,a3*%
X85350000Y-83380000D03*
%TO.P,U1,23*%
%TO.N,a2*%
X87890000Y-83380000D03*
%TO.P,U1,22*%
%TO.N,a1*%
X90430000Y-83380000D03*
%TO.P,U1,21*%
%TO.N,a0*%
X92970000Y-83380000D03*
%TO.P,U1,14*%
%TO.N,Net-(U1-Pad14)*%
X95510000Y-98620000D03*
%TO.P,U1,20*%
%TO.N,Net-(U1-Pad20)*%
X95510000Y-83380000D03*
%TD*%
D17*
%TO.N,GND*%
X182648126Y-74726714D02*
X183271572Y-74914943D01*
X183846579Y-75220681D01*
X184351247Y-75632279D01*
X184766362Y-76134067D01*
X185076105Y-76706924D01*
X185268682Y-77329039D01*
X185340001Y-78007594D01*
X185340000Y-115967721D01*
X185273286Y-116648126D01*
X185085057Y-117271570D01*
X184779323Y-117846573D01*
X184367721Y-118351248D01*
X183865933Y-118766362D01*
X183293077Y-119076104D01*
X182670961Y-119268682D01*
X181992417Y-119340000D01*
X64032279Y-119340000D01*
X63351874Y-119273286D01*
X62728430Y-119085057D01*
X62153427Y-118779323D01*
X61648752Y-118367721D01*
X61233638Y-117865933D01*
X60923896Y-117293077D01*
X60731318Y-116670961D01*
X60660000Y-115992417D01*
X60660000Y-115706003D01*
X61015000Y-115706003D01*
X61015000Y-116293997D01*
X61129712Y-116870692D01*
X61354727Y-117413928D01*
X61681399Y-117902826D01*
X62097174Y-118318601D01*
X62586072Y-118645273D01*
X63129308Y-118870288D01*
X63706003Y-118985000D01*
X64293997Y-118985000D01*
X64870692Y-118870288D01*
X65413928Y-118645273D01*
X65902826Y-118318601D01*
X66318601Y-117902826D01*
X66645273Y-117413928D01*
X66870288Y-116870692D01*
X66985000Y-116293997D01*
X66985000Y-115706003D01*
X179015000Y-115706003D01*
X179015000Y-116293997D01*
X179129712Y-116870692D01*
X179354727Y-117413928D01*
X179681399Y-117902826D01*
X180097174Y-118318601D01*
X180586072Y-118645273D01*
X181129308Y-118870288D01*
X181706003Y-118985000D01*
X182293997Y-118985000D01*
X182870692Y-118870288D01*
X183413928Y-118645273D01*
X183902826Y-118318601D01*
X184318601Y-117902826D01*
X184645273Y-117413928D01*
X184870288Y-116870692D01*
X184985000Y-116293997D01*
X184985000Y-115706003D01*
X184870288Y-115129308D01*
X184645273Y-114586072D01*
X184318601Y-114097174D01*
X183902826Y-113681399D01*
X183413928Y-113354727D01*
X182870692Y-113129712D01*
X182293997Y-113015000D01*
X181706003Y-113015000D01*
X181129308Y-113129712D01*
X180586072Y-113354727D01*
X180097174Y-113681399D01*
X179681399Y-114097174D01*
X179354727Y-114586072D01*
X179129712Y-115129308D01*
X179015000Y-115706003D01*
X66985000Y-115706003D01*
X66870288Y-115129308D01*
X66645273Y-114586072D01*
X66318601Y-114097174D01*
X65902826Y-113681399D01*
X65413928Y-113354727D01*
X65281805Y-113300000D01*
X70235348Y-113300000D01*
X70273867Y-113691088D01*
X70387943Y-114067147D01*
X70573193Y-114413725D01*
X70822497Y-114717503D01*
X71126275Y-114966807D01*
X71472853Y-115152057D01*
X71848912Y-115266133D01*
X72142002Y-115295000D01*
X72857998Y-115295000D01*
X73151088Y-115266133D01*
X73527147Y-115152057D01*
X73873725Y-114966807D01*
X74177503Y-114717503D01*
X74426807Y-114413725D01*
X74612057Y-114067147D01*
X74726133Y-113691088D01*
X74764652Y-113300000D01*
X93235348Y-113300000D01*
X93273867Y-113691088D01*
X93387943Y-114067147D01*
X93573193Y-114413725D01*
X93822497Y-114717503D01*
X94126275Y-114966807D01*
X94472853Y-115152057D01*
X94848912Y-115266133D01*
X95142002Y-115295000D01*
X95857998Y-115295000D01*
X96151088Y-115266133D01*
X96527147Y-115152057D01*
X96873725Y-114966807D01*
X97177503Y-114717503D01*
X97426807Y-114413725D01*
X97612057Y-114067147D01*
X97726133Y-113691088D01*
X97764652Y-113300000D01*
X97726133Y-112908912D01*
X97612057Y-112532853D01*
X97426807Y-112186275D01*
X97177503Y-111882497D01*
X96873725Y-111633193D01*
X96527147Y-111447943D01*
X96151088Y-111333867D01*
X95857998Y-111305000D01*
X95142002Y-111305000D01*
X94848912Y-111333867D01*
X94472853Y-111447943D01*
X94126275Y-111633193D01*
X93822497Y-111882497D01*
X93573193Y-112186275D01*
X93387943Y-112532853D01*
X93273867Y-112908912D01*
X93235348Y-113300000D01*
X74764652Y-113300000D01*
X74726133Y-112908912D01*
X74612057Y-112532853D01*
X74426807Y-112186275D01*
X74177503Y-111882497D01*
X73873725Y-111633193D01*
X73527147Y-111447943D01*
X73151088Y-111333867D01*
X72857998Y-111305000D01*
X72142002Y-111305000D01*
X71848912Y-111333867D01*
X71472853Y-111447943D01*
X71126275Y-111633193D01*
X70822497Y-111882497D01*
X70573193Y-112186275D01*
X70387943Y-112532853D01*
X70273867Y-112908912D01*
X70235348Y-113300000D01*
X65281805Y-113300000D01*
X64870692Y-113129712D01*
X64293997Y-113015000D01*
X63706003Y-113015000D01*
X63129308Y-113129712D01*
X62586072Y-113354727D01*
X62097174Y-113681399D01*
X61681399Y-114097174D01*
X61354727Y-114586072D01*
X61129712Y-115129308D01*
X61015000Y-115706003D01*
X60660000Y-115706003D01*
X60660000Y-110100000D01*
X78461928Y-110100000D01*
X78461928Y-111900000D01*
X78474188Y-112024482D01*
X78510498Y-112144180D01*
X78569463Y-112254494D01*
X78648815Y-112351185D01*
X78745506Y-112430537D01*
X78855820Y-112489502D01*
X78975518Y-112525812D01*
X79100000Y-112538072D01*
X80900000Y-112538072D01*
X81024482Y-112525812D01*
X81144180Y-112489502D01*
X81254494Y-112430537D01*
X81351185Y-112351185D01*
X81430537Y-112254494D01*
X81489502Y-112144180D01*
X81525812Y-112024482D01*
X81538072Y-111900000D01*
X81538072Y-110100000D01*
X101461928Y-110100000D01*
X101461928Y-111900000D01*
X101474188Y-112024482D01*
X101510498Y-112144180D01*
X101569463Y-112254494D01*
X101648815Y-112351185D01*
X101745506Y-112430537D01*
X101855820Y-112489502D01*
X101975518Y-112525812D01*
X102100000Y-112538072D01*
X103900000Y-112538072D01*
X104024482Y-112525812D01*
X104144180Y-112489502D01*
X104254494Y-112430537D01*
X104351185Y-112351185D01*
X104430537Y-112254494D01*
X104489502Y-112144180D01*
X104525812Y-112024482D01*
X104538072Y-111900000D01*
X104538072Y-110100000D01*
X104525812Y-109975518D01*
X104489502Y-109855820D01*
X104430537Y-109745506D01*
X104351185Y-109648815D01*
X104254494Y-109569463D01*
X104154697Y-109516120D01*
X104192312Y-109478505D01*
X104360299Y-109227095D01*
X104476011Y-108947743D01*
X104535000Y-108651184D01*
X104535000Y-108348816D01*
X104493863Y-108142003D01*
X111705000Y-108142003D01*
X111705000Y-108857998D01*
X111733867Y-109151088D01*
X111847943Y-109527147D01*
X112033193Y-109873725D01*
X112282498Y-110177503D01*
X112586276Y-110426807D01*
X112932854Y-110612057D01*
X113308913Y-110726133D01*
X113700000Y-110764652D01*
X114091088Y-110726133D01*
X114467147Y-110612057D01*
X114813725Y-110426807D01*
X115117503Y-110177503D01*
X115366807Y-109873725D01*
X115552057Y-109527147D01*
X115666133Y-109151087D01*
X115695000Y-108857997D01*
X115695000Y-108142003D01*
X121305000Y-108142003D01*
X121305000Y-108857998D01*
X121333867Y-109151088D01*
X121447943Y-109527147D01*
X121633193Y-109873725D01*
X121882498Y-110177503D01*
X122186276Y-110426807D01*
X122532854Y-110612057D01*
X122908913Y-110726133D01*
X123300000Y-110764652D01*
X123691088Y-110726133D01*
X124067147Y-110612057D01*
X124413725Y-110426807D01*
X124717503Y-110177503D01*
X124966807Y-109873725D01*
X125152057Y-109527147D01*
X125266133Y-109151087D01*
X125295000Y-108857997D01*
X125295000Y-108142003D01*
X134705000Y-108142003D01*
X134705000Y-108857998D01*
X134733867Y-109151088D01*
X134847943Y-109527147D01*
X135033193Y-109873725D01*
X135282498Y-110177503D01*
X135586276Y-110426807D01*
X135932854Y-110612057D01*
X136308913Y-110726133D01*
X136700000Y-110764652D01*
X137091088Y-110726133D01*
X137467147Y-110612057D01*
X137813725Y-110426807D01*
X138117503Y-110177503D01*
X138366807Y-109873725D01*
X138552057Y-109527147D01*
X138666133Y-109151087D01*
X138695000Y-108857997D01*
X138695000Y-108142003D01*
X144305000Y-108142003D01*
X144305000Y-108857998D01*
X144333867Y-109151088D01*
X144447943Y-109527147D01*
X144633193Y-109873725D01*
X144882498Y-110177503D01*
X145186276Y-110426807D01*
X145532854Y-110612057D01*
X145908913Y-110726133D01*
X146300000Y-110764652D01*
X146691088Y-110726133D01*
X147067147Y-110612057D01*
X147413725Y-110426807D01*
X147717503Y-110177503D01*
X147966807Y-109873725D01*
X148152057Y-109527147D01*
X148266133Y-109151087D01*
X148295000Y-108857997D01*
X148295000Y-108142003D01*
X157705000Y-108142003D01*
X157705000Y-108857998D01*
X157733867Y-109151088D01*
X157847943Y-109527147D01*
X158033193Y-109873725D01*
X158282498Y-110177503D01*
X158586276Y-110426807D01*
X158932854Y-110612057D01*
X159308913Y-110726133D01*
X159700000Y-110764652D01*
X160091088Y-110726133D01*
X160467147Y-110612057D01*
X160813725Y-110426807D01*
X161117503Y-110177503D01*
X161366807Y-109873725D01*
X161552057Y-109527147D01*
X161666133Y-109151087D01*
X161695000Y-108857997D01*
X161695000Y-108142003D01*
X167305000Y-108142003D01*
X167305000Y-108857998D01*
X167333867Y-109151088D01*
X167447943Y-109527147D01*
X167633193Y-109873725D01*
X167882498Y-110177503D01*
X168186276Y-110426807D01*
X168532854Y-110612057D01*
X168908913Y-110726133D01*
X169300000Y-110764652D01*
X169691088Y-110726133D01*
X170067147Y-110612057D01*
X170413725Y-110426807D01*
X170717503Y-110177503D01*
X170966807Y-109873725D01*
X171152057Y-109527147D01*
X171266133Y-109151087D01*
X171295000Y-108857997D01*
X171295000Y-108142002D01*
X171266133Y-107848912D01*
X171152057Y-107472853D01*
X170966807Y-107126275D01*
X170717503Y-106822497D01*
X170413725Y-106573193D01*
X170067146Y-106387943D01*
X169691087Y-106273867D01*
X169300000Y-106235348D01*
X168908912Y-106273867D01*
X168532853Y-106387943D01*
X168186275Y-106573193D01*
X167882497Y-106822497D01*
X167633193Y-107126275D01*
X167447943Y-107472854D01*
X167333867Y-107848913D01*
X167305000Y-108142003D01*
X161695000Y-108142003D01*
X161695000Y-108142002D01*
X161666133Y-107848912D01*
X161552057Y-107472853D01*
X161366807Y-107126275D01*
X161117503Y-106822497D01*
X160813725Y-106573193D01*
X160467146Y-106387943D01*
X160091087Y-106273867D01*
X159700000Y-106235348D01*
X159308912Y-106273867D01*
X158932853Y-106387943D01*
X158586275Y-106573193D01*
X158282497Y-106822497D01*
X158033193Y-107126275D01*
X157847943Y-107472854D01*
X157733867Y-107848913D01*
X157705000Y-108142003D01*
X148295000Y-108142003D01*
X148295000Y-108142002D01*
X148266133Y-107848912D01*
X148152057Y-107472853D01*
X147966807Y-107126275D01*
X147717503Y-106822497D01*
X147413725Y-106573193D01*
X147067146Y-106387943D01*
X146691087Y-106273867D01*
X146300000Y-106235348D01*
X145908912Y-106273867D01*
X145532853Y-106387943D01*
X145186275Y-106573193D01*
X144882497Y-106822497D01*
X144633193Y-107126275D01*
X144447943Y-107472854D01*
X144333867Y-107848913D01*
X144305000Y-108142003D01*
X138695000Y-108142003D01*
X138695000Y-108142002D01*
X138666133Y-107848912D01*
X138552057Y-107472853D01*
X138366807Y-107126275D01*
X138117503Y-106822497D01*
X137813725Y-106573193D01*
X137467146Y-106387943D01*
X137091087Y-106273867D01*
X136700000Y-106235348D01*
X136308912Y-106273867D01*
X135932853Y-106387943D01*
X135586275Y-106573193D01*
X135282497Y-106822497D01*
X135033193Y-107126275D01*
X134847943Y-107472854D01*
X134733867Y-107848913D01*
X134705000Y-108142003D01*
X125295000Y-108142003D01*
X125295000Y-108142002D01*
X125266133Y-107848912D01*
X125152057Y-107472853D01*
X124966807Y-107126275D01*
X124717503Y-106822497D01*
X124413725Y-106573193D01*
X124067146Y-106387943D01*
X123691087Y-106273867D01*
X123300000Y-106235348D01*
X122908912Y-106273867D01*
X122532853Y-106387943D01*
X122186275Y-106573193D01*
X121882497Y-106822497D01*
X121633193Y-107126275D01*
X121447943Y-107472854D01*
X121333867Y-107848913D01*
X121305000Y-108142003D01*
X115695000Y-108142003D01*
X115695000Y-108142002D01*
X115666133Y-107848912D01*
X115552057Y-107472853D01*
X115366807Y-107126275D01*
X115117503Y-106822497D01*
X114813725Y-106573193D01*
X114467146Y-106387943D01*
X114091087Y-106273867D01*
X113700000Y-106235348D01*
X113308912Y-106273867D01*
X112932853Y-106387943D01*
X112586275Y-106573193D01*
X112282497Y-106822497D01*
X112033193Y-107126275D01*
X111847943Y-107472854D01*
X111733867Y-107848913D01*
X111705000Y-108142003D01*
X104493863Y-108142003D01*
X104476011Y-108052257D01*
X104360299Y-107772905D01*
X104192312Y-107521495D01*
X103978505Y-107307688D01*
X103835690Y-107212262D01*
X103884475Y-107064080D01*
X103000000Y-106179605D01*
X102115525Y-107064080D01*
X102164310Y-107212262D01*
X102021495Y-107307688D01*
X101807688Y-107521495D01*
X101639701Y-107772905D01*
X101523989Y-108052257D01*
X101465000Y-108348816D01*
X101465000Y-108651184D01*
X101523989Y-108947743D01*
X101639701Y-109227095D01*
X101807688Y-109478505D01*
X101845303Y-109516120D01*
X101745506Y-109569463D01*
X101648815Y-109648815D01*
X101569463Y-109745506D01*
X101510498Y-109855820D01*
X101474188Y-109975518D01*
X101461928Y-110100000D01*
X81538072Y-110100000D01*
X81525812Y-109975518D01*
X81489502Y-109855820D01*
X81430537Y-109745506D01*
X81351185Y-109648815D01*
X81254494Y-109569463D01*
X81154697Y-109516120D01*
X81192312Y-109478505D01*
X81360299Y-109227095D01*
X81476011Y-108947743D01*
X81535000Y-108651184D01*
X81535000Y-108348816D01*
X81476011Y-108052257D01*
X81360299Y-107772905D01*
X81192312Y-107521495D01*
X80978505Y-107307688D01*
X80835690Y-107212262D01*
X80884475Y-107064080D01*
X80000000Y-106179605D01*
X79115525Y-107064080D01*
X79164310Y-107212262D01*
X79021495Y-107307688D01*
X78807688Y-107521495D01*
X78639701Y-107772905D01*
X78523989Y-108052257D01*
X78465000Y-108348816D01*
X78465000Y-108651184D01*
X78523989Y-108947743D01*
X78639701Y-109227095D01*
X78807688Y-109478505D01*
X78845303Y-109516120D01*
X78745506Y-109569463D01*
X78648815Y-109648815D01*
X78569463Y-109745506D01*
X78510498Y-109855820D01*
X78474188Y-109975518D01*
X78461928Y-110100000D01*
X60660000Y-110100000D01*
X60660000Y-106066553D01*
X78459009Y-106066553D01*
X78501603Y-106365907D01*
X78601778Y-106651199D01*
X78681739Y-106800792D01*
X78935920Y-106884475D01*
X79820395Y-106000000D01*
X80179605Y-106000000D01*
X81064080Y-106884475D01*
X81318261Y-106800792D01*
X81449158Y-106528225D01*
X81524365Y-106235358D01*
X81533660Y-106066553D01*
X101459009Y-106066553D01*
X101501603Y-106365907D01*
X101601778Y-106651199D01*
X101681739Y-106800792D01*
X101935920Y-106884475D01*
X102820395Y-106000000D01*
X103179605Y-106000000D01*
X104064080Y-106884475D01*
X104318261Y-106800792D01*
X104449158Y-106528225D01*
X104524365Y-106235358D01*
X104540991Y-105933447D01*
X104498397Y-105634093D01*
X104398222Y-105348801D01*
X104318261Y-105199208D01*
X104064080Y-105115525D01*
X103179605Y-106000000D01*
X102820395Y-106000000D01*
X101935920Y-105115525D01*
X101681739Y-105199208D01*
X101550842Y-105471775D01*
X101475635Y-105764642D01*
X101459009Y-106066553D01*
X81533660Y-106066553D01*
X81540991Y-105933447D01*
X81498397Y-105634093D01*
X81398222Y-105348801D01*
X81318261Y-105199208D01*
X81064080Y-105115525D01*
X80179605Y-106000000D01*
X79820395Y-106000000D01*
X78935920Y-105115525D01*
X78681739Y-105199208D01*
X78550842Y-105471775D01*
X78475635Y-105764642D01*
X78459009Y-106066553D01*
X60660000Y-106066553D01*
X60660000Y-103700000D01*
X70235348Y-103700000D01*
X70273867Y-104091088D01*
X70387943Y-104467147D01*
X70573193Y-104813725D01*
X70822497Y-105117503D01*
X71126275Y-105366807D01*
X71472853Y-105552057D01*
X71848912Y-105666133D01*
X72142002Y-105695000D01*
X72857998Y-105695000D01*
X73151088Y-105666133D01*
X73527147Y-105552057D01*
X73873725Y-105366807D01*
X74177503Y-105117503D01*
X74326524Y-104935920D01*
X79115525Y-104935920D01*
X80000000Y-105820395D01*
X80884475Y-104935920D01*
X80800792Y-104681739D01*
X80528225Y-104550842D01*
X80235358Y-104475635D01*
X79933447Y-104459009D01*
X79634093Y-104501603D01*
X79348801Y-104601778D01*
X79199208Y-104681739D01*
X79115525Y-104935920D01*
X74326524Y-104935920D01*
X74426807Y-104813725D01*
X74612057Y-104467147D01*
X74726133Y-104091088D01*
X74764652Y-103700000D01*
X93235348Y-103700000D01*
X93273867Y-104091088D01*
X93387943Y-104467147D01*
X93573193Y-104813725D01*
X93822497Y-105117503D01*
X94126275Y-105366807D01*
X94472853Y-105552057D01*
X94848912Y-105666133D01*
X95142002Y-105695000D01*
X95857998Y-105695000D01*
X96151088Y-105666133D01*
X96527147Y-105552057D01*
X96873725Y-105366807D01*
X97177503Y-105117503D01*
X97326524Y-104935920D01*
X102115525Y-104935920D01*
X103000000Y-105820395D01*
X103884475Y-104935920D01*
X103800792Y-104681739D01*
X103528225Y-104550842D01*
X103235358Y-104475635D01*
X102933447Y-104459009D01*
X102634093Y-104501603D01*
X102348801Y-104601778D01*
X102199208Y-104681739D01*
X102115525Y-104935920D01*
X97326524Y-104935920D01*
X97426807Y-104813725D01*
X97612057Y-104467147D01*
X97726133Y-104091088D01*
X97764652Y-103700000D01*
X97726133Y-103308912D01*
X97612057Y-102932853D01*
X97426807Y-102586275D01*
X97177503Y-102282497D01*
X96911361Y-102064080D01*
X115115525Y-102064080D01*
X115199208Y-102318261D01*
X115471775Y-102449158D01*
X115764642Y-102524365D01*
X116066553Y-102540991D01*
X116365907Y-102498397D01*
X116651199Y-102398222D01*
X116800792Y-102318261D01*
X116884475Y-102064080D01*
X116000000Y-101179605D01*
X115115525Y-102064080D01*
X96911361Y-102064080D01*
X96873725Y-102033193D01*
X96527147Y-101847943D01*
X96151088Y-101733867D01*
X95857998Y-101705000D01*
X95142002Y-101705000D01*
X94848912Y-101733867D01*
X94472853Y-101847943D01*
X94126275Y-102033193D01*
X93822497Y-102282497D01*
X93573193Y-102586275D01*
X93387943Y-102932853D01*
X93273867Y-103308912D01*
X93235348Y-103700000D01*
X74764652Y-103700000D01*
X74726133Y-103308912D01*
X74612057Y-102932853D01*
X74426807Y-102586275D01*
X74177503Y-102282497D01*
X73873725Y-102033193D01*
X73527147Y-101847943D01*
X73151088Y-101733867D01*
X72857998Y-101705000D01*
X72142002Y-101705000D01*
X71848912Y-101733867D01*
X71472853Y-101847943D01*
X71126275Y-102033193D01*
X70822497Y-102282497D01*
X70573193Y-102586275D01*
X70387943Y-102932853D01*
X70273867Y-103308912D01*
X70235348Y-103700000D01*
X60660000Y-103700000D01*
X60660000Y-101066553D01*
X114459009Y-101066553D01*
X114501603Y-101365907D01*
X114601778Y-101651199D01*
X114681739Y-101800792D01*
X114935920Y-101884475D01*
X115820395Y-101000000D01*
X116179605Y-101000000D01*
X117064080Y-101884475D01*
X117212262Y-101835690D01*
X117307688Y-101978505D01*
X117521495Y-102192312D01*
X117772905Y-102360299D01*
X118052257Y-102476011D01*
X118348816Y-102535000D01*
X118651184Y-102535000D01*
X118947743Y-102476011D01*
X119227095Y-102360299D01*
X119478505Y-102192312D01*
X119516120Y-102154697D01*
X119569463Y-102254494D01*
X119648815Y-102351185D01*
X119745506Y-102430537D01*
X119855820Y-102489502D01*
X119975518Y-102525812D01*
X120100000Y-102538072D01*
X121900000Y-102538072D01*
X122024482Y-102525812D01*
X122144180Y-102489502D01*
X122254494Y-102430537D01*
X122351185Y-102351185D01*
X122430537Y-102254494D01*
X122489502Y-102144180D01*
X122513800Y-102064080D01*
X138115525Y-102064080D01*
X138199208Y-102318261D01*
X138471775Y-102449158D01*
X138764642Y-102524365D01*
X139066553Y-102540991D01*
X139365907Y-102498397D01*
X139651199Y-102398222D01*
X139800792Y-102318261D01*
X139884475Y-102064080D01*
X139000000Y-101179605D01*
X138115525Y-102064080D01*
X122513800Y-102064080D01*
X122525812Y-102024482D01*
X122538072Y-101900000D01*
X122538072Y-101066553D01*
X137459009Y-101066553D01*
X137501603Y-101365907D01*
X137601778Y-101651199D01*
X137681739Y-101800792D01*
X137935920Y-101884475D01*
X138820395Y-101000000D01*
X139179605Y-101000000D01*
X140064080Y-101884475D01*
X140212262Y-101835690D01*
X140307688Y-101978505D01*
X140521495Y-102192312D01*
X140772905Y-102360299D01*
X141052257Y-102476011D01*
X141348816Y-102535000D01*
X141651184Y-102535000D01*
X141947743Y-102476011D01*
X142227095Y-102360299D01*
X142478505Y-102192312D01*
X142516120Y-102154697D01*
X142569463Y-102254494D01*
X142648815Y-102351185D01*
X142745506Y-102430537D01*
X142855820Y-102489502D01*
X142975518Y-102525812D01*
X143100000Y-102538072D01*
X144900000Y-102538072D01*
X145024482Y-102525812D01*
X145144180Y-102489502D01*
X145254494Y-102430537D01*
X145351185Y-102351185D01*
X145430537Y-102254494D01*
X145489502Y-102144180D01*
X145513800Y-102064080D01*
X161115525Y-102064080D01*
X161199208Y-102318261D01*
X161471775Y-102449158D01*
X161764642Y-102524365D01*
X162066553Y-102540991D01*
X162365907Y-102498397D01*
X162651199Y-102398222D01*
X162800792Y-102318261D01*
X162884475Y-102064080D01*
X162000000Y-101179605D01*
X161115525Y-102064080D01*
X145513800Y-102064080D01*
X145525812Y-102024482D01*
X145538072Y-101900000D01*
X145538072Y-101066553D01*
X160459009Y-101066553D01*
X160501603Y-101365907D01*
X160601778Y-101651199D01*
X160681739Y-101800792D01*
X160935920Y-101884475D01*
X161820395Y-101000000D01*
X162179605Y-101000000D01*
X163064080Y-101884475D01*
X163212262Y-101835690D01*
X163307688Y-101978505D01*
X163521495Y-102192312D01*
X163772905Y-102360299D01*
X164052257Y-102476011D01*
X164348816Y-102535000D01*
X164651184Y-102535000D01*
X164947743Y-102476011D01*
X165227095Y-102360299D01*
X165478505Y-102192312D01*
X165516120Y-102154697D01*
X165569463Y-102254494D01*
X165648815Y-102351185D01*
X165745506Y-102430537D01*
X165855820Y-102489502D01*
X165975518Y-102525812D01*
X166100000Y-102538072D01*
X167900000Y-102538072D01*
X168024482Y-102525812D01*
X168144180Y-102489502D01*
X168254494Y-102430537D01*
X168351185Y-102351185D01*
X168430537Y-102254494D01*
X168489502Y-102144180D01*
X168525812Y-102024482D01*
X168538072Y-101900000D01*
X168538072Y-100100000D01*
X168525812Y-99975518D01*
X168489502Y-99855820D01*
X168430537Y-99745506D01*
X168351185Y-99648815D01*
X168254494Y-99569463D01*
X168144180Y-99510498D01*
X168024482Y-99474188D01*
X167900000Y-99461928D01*
X166100000Y-99461928D01*
X165975518Y-99474188D01*
X165855820Y-99510498D01*
X165745506Y-99569463D01*
X165648815Y-99648815D01*
X165569463Y-99745506D01*
X165516120Y-99845303D01*
X165478505Y-99807688D01*
X165227095Y-99639701D01*
X164947743Y-99523989D01*
X164651184Y-99465000D01*
X164348816Y-99465000D01*
X164052257Y-99523989D01*
X163772905Y-99639701D01*
X163521495Y-99807688D01*
X163307688Y-100021495D01*
X163212262Y-100164310D01*
X163064080Y-100115525D01*
X162179605Y-101000000D01*
X161820395Y-101000000D01*
X160935920Y-100115525D01*
X160681739Y-100199208D01*
X160550842Y-100471775D01*
X160475635Y-100764642D01*
X160459009Y-101066553D01*
X145538072Y-101066553D01*
X145538072Y-100100000D01*
X145525812Y-99975518D01*
X145513801Y-99935920D01*
X161115525Y-99935920D01*
X162000000Y-100820395D01*
X162884475Y-99935920D01*
X162800792Y-99681739D01*
X162528225Y-99550842D01*
X162235358Y-99475635D01*
X161933447Y-99459009D01*
X161634093Y-99501603D01*
X161348801Y-99601778D01*
X161199208Y-99681739D01*
X161115525Y-99935920D01*
X145513801Y-99935920D01*
X145489502Y-99855820D01*
X145430537Y-99745506D01*
X145351185Y-99648815D01*
X145254494Y-99569463D01*
X145144180Y-99510498D01*
X145024482Y-99474188D01*
X144900000Y-99461928D01*
X143100000Y-99461928D01*
X142975518Y-99474188D01*
X142855820Y-99510498D01*
X142745506Y-99569463D01*
X142648815Y-99648815D01*
X142569463Y-99745506D01*
X142516120Y-99845303D01*
X142478505Y-99807688D01*
X142227095Y-99639701D01*
X141947743Y-99523989D01*
X141651184Y-99465000D01*
X141348816Y-99465000D01*
X141052257Y-99523989D01*
X140772905Y-99639701D01*
X140521495Y-99807688D01*
X140307688Y-100021495D01*
X140212262Y-100164310D01*
X140064080Y-100115525D01*
X139179605Y-101000000D01*
X138820395Y-101000000D01*
X137935920Y-100115525D01*
X137681739Y-100199208D01*
X137550842Y-100471775D01*
X137475635Y-100764642D01*
X137459009Y-101066553D01*
X122538072Y-101066553D01*
X122538072Y-100100000D01*
X122525812Y-99975518D01*
X122513801Y-99935920D01*
X138115525Y-99935920D01*
X139000000Y-100820395D01*
X139884475Y-99935920D01*
X139800792Y-99681739D01*
X139528225Y-99550842D01*
X139235358Y-99475635D01*
X138933447Y-99459009D01*
X138634093Y-99501603D01*
X138348801Y-99601778D01*
X138199208Y-99681739D01*
X138115525Y-99935920D01*
X122513801Y-99935920D01*
X122489502Y-99855820D01*
X122430537Y-99745506D01*
X122351185Y-99648815D01*
X122254494Y-99569463D01*
X122144180Y-99510498D01*
X122024482Y-99474188D01*
X121900000Y-99461928D01*
X120100000Y-99461928D01*
X119975518Y-99474188D01*
X119855820Y-99510498D01*
X119745506Y-99569463D01*
X119648815Y-99648815D01*
X119569463Y-99745506D01*
X119516120Y-99845303D01*
X119478505Y-99807688D01*
X119227095Y-99639701D01*
X118947743Y-99523989D01*
X118651184Y-99465000D01*
X118348816Y-99465000D01*
X118052257Y-99523989D01*
X117772905Y-99639701D01*
X117521495Y-99807688D01*
X117307688Y-100021495D01*
X117212262Y-100164310D01*
X117064080Y-100115525D01*
X116179605Y-101000000D01*
X115820395Y-101000000D01*
X114935920Y-100115525D01*
X114681739Y-100199208D01*
X114550842Y-100471775D01*
X114475635Y-100764642D01*
X114459009Y-101066553D01*
X60660000Y-101066553D01*
X60660000Y-99420000D01*
X61051928Y-99420000D01*
X61064188Y-99544482D01*
X61100498Y-99664180D01*
X61159463Y-99774494D01*
X61238815Y-99871185D01*
X61335506Y-99950537D01*
X61445820Y-100009502D01*
X61565518Y-100045812D01*
X61690000Y-100058072D01*
X62204250Y-100055000D01*
X62363000Y-99896250D01*
X62363000Y-98747000D01*
X61213750Y-98747000D01*
X61055000Y-98905750D01*
X61051928Y-99420000D01*
X60660000Y-99420000D01*
X60660000Y-97820000D01*
X61051928Y-97820000D01*
X61055000Y-98334250D01*
X61213750Y-98493000D01*
X62363000Y-98493000D01*
X62363000Y-97343750D01*
X62617000Y-97343750D01*
X62617000Y-98493000D01*
X62637000Y-98493000D01*
X62637000Y-98747000D01*
X62617000Y-98747000D01*
X62617000Y-99896250D01*
X62775750Y-100055000D01*
X63290000Y-100058072D01*
X63414482Y-100045812D01*
X63534180Y-100009502D01*
X63644494Y-99950537D01*
X63741185Y-99871185D01*
X63820537Y-99774494D01*
X63879502Y-99664180D01*
X63915812Y-99544482D01*
X63916643Y-99536039D01*
X64115241Y-99734637D01*
X64350273Y-99891680D01*
X64611426Y-99999853D01*
X64888665Y-100055000D01*
X65171335Y-100055000D01*
X65448574Y-99999853D01*
X65709727Y-99891680D01*
X65944759Y-99734637D01*
X66144637Y-99534759D01*
X66300000Y-99302241D01*
X66455363Y-99534759D01*
X66655241Y-99734637D01*
X66890273Y-99891680D01*
X67151426Y-99999853D01*
X67428665Y-100055000D01*
X67711335Y-100055000D01*
X67988574Y-99999853D01*
X68249727Y-99891680D01*
X68484759Y-99734637D01*
X68684637Y-99534759D01*
X68840000Y-99302241D01*
X68995363Y-99534759D01*
X69195241Y-99734637D01*
X69430273Y-99891680D01*
X69691426Y-99999853D01*
X69968665Y-100055000D01*
X70251335Y-100055000D01*
X70528574Y-99999853D01*
X70789727Y-99891680D01*
X71024759Y-99734637D01*
X71224637Y-99534759D01*
X71380000Y-99302241D01*
X71535363Y-99534759D01*
X71735241Y-99734637D01*
X71970273Y-99891680D01*
X72231426Y-99999853D01*
X72508665Y-100055000D01*
X72791335Y-100055000D01*
X73068574Y-99999853D01*
X73329727Y-99891680D01*
X73564759Y-99734637D01*
X73764637Y-99534759D01*
X73920000Y-99302241D01*
X74075363Y-99534759D01*
X74275241Y-99734637D01*
X74510273Y-99891680D01*
X74771426Y-99999853D01*
X75048665Y-100055000D01*
X75331335Y-100055000D01*
X75608574Y-99999853D01*
X75869727Y-99891680D01*
X76104759Y-99734637D01*
X76304637Y-99534759D01*
X76460000Y-99302241D01*
X76615363Y-99534759D01*
X76815241Y-99734637D01*
X77050273Y-99891680D01*
X77311426Y-99999853D01*
X77588665Y-100055000D01*
X77871335Y-100055000D01*
X78148574Y-99999853D01*
X78409727Y-99891680D01*
X78644759Y-99734637D01*
X78844637Y-99534759D01*
X79000000Y-99302241D01*
X79155363Y-99534759D01*
X79355241Y-99734637D01*
X79590273Y-99891680D01*
X79851426Y-99999853D01*
X80128665Y-100055000D01*
X80411335Y-100055000D01*
X80688574Y-99999853D01*
X80949727Y-99891680D01*
X81184759Y-99734637D01*
X81384637Y-99534759D01*
X81540000Y-99302241D01*
X81695363Y-99534759D01*
X81895241Y-99734637D01*
X82130273Y-99891680D01*
X82391426Y-99999853D01*
X82668665Y-100055000D01*
X82951335Y-100055000D01*
X83228574Y-99999853D01*
X83489727Y-99891680D01*
X83724759Y-99734637D01*
X83924637Y-99534759D01*
X84080000Y-99302241D01*
X84235363Y-99534759D01*
X84435241Y-99734637D01*
X84670273Y-99891680D01*
X84931426Y-99999853D01*
X85208665Y-100055000D01*
X85491335Y-100055000D01*
X85768574Y-99999853D01*
X86029727Y-99891680D01*
X86264759Y-99734637D01*
X86464637Y-99534759D01*
X86620000Y-99302241D01*
X86775363Y-99534759D01*
X86975241Y-99734637D01*
X87210273Y-99891680D01*
X87471426Y-99999853D01*
X87748665Y-100055000D01*
X88031335Y-100055000D01*
X88308574Y-99999853D01*
X88569727Y-99891680D01*
X88804759Y-99734637D01*
X89004637Y-99534759D01*
X89160000Y-99302241D01*
X89315363Y-99534759D01*
X89515241Y-99734637D01*
X89750273Y-99891680D01*
X90011426Y-99999853D01*
X90288665Y-100055000D01*
X90571335Y-100055000D01*
X90848574Y-99999853D01*
X91109727Y-99891680D01*
X91344759Y-99734637D01*
X91544637Y-99534759D01*
X91700000Y-99302241D01*
X91855363Y-99534759D01*
X92055241Y-99734637D01*
X92290273Y-99891680D01*
X92551426Y-99999853D01*
X92828665Y-100055000D01*
X93111335Y-100055000D01*
X93388574Y-99999853D01*
X93649727Y-99891680D01*
X93884759Y-99734637D01*
X94084637Y-99534759D01*
X94240000Y-99302241D01*
X94395363Y-99534759D01*
X94595241Y-99734637D01*
X94830273Y-99891680D01*
X95091426Y-99999853D01*
X95368665Y-100055000D01*
X95651335Y-100055000D01*
X95928574Y-99999853D01*
X96082922Y-99935920D01*
X115115525Y-99935920D01*
X116000000Y-100820395D01*
X116884475Y-99935920D01*
X116800792Y-99681739D01*
X116528225Y-99550842D01*
X116235358Y-99475635D01*
X115933447Y-99459009D01*
X115634093Y-99501603D01*
X115348801Y-99601778D01*
X115199208Y-99681739D01*
X115115525Y-99935920D01*
X96082922Y-99935920D01*
X96189727Y-99891680D01*
X96424759Y-99734637D01*
X96624637Y-99534759D01*
X96781680Y-99299727D01*
X96889853Y-99038574D01*
X96945000Y-98761335D01*
X96945000Y-98478665D01*
X96889853Y-98201426D01*
X96781680Y-97940273D01*
X96624637Y-97705241D01*
X96424759Y-97505363D01*
X96189727Y-97348320D01*
X95928574Y-97240147D01*
X95651335Y-97185000D01*
X95368665Y-97185000D01*
X95091426Y-97240147D01*
X94830273Y-97348320D01*
X94595241Y-97505363D01*
X94395363Y-97705241D01*
X94240000Y-97937759D01*
X94084637Y-97705241D01*
X93884759Y-97505363D01*
X93649727Y-97348320D01*
X93388574Y-97240147D01*
X93111335Y-97185000D01*
X92828665Y-97185000D01*
X92551426Y-97240147D01*
X92290273Y-97348320D01*
X92055241Y-97505363D01*
X91855363Y-97705241D01*
X91700000Y-97937759D01*
X91544637Y-97705241D01*
X91344759Y-97505363D01*
X91109727Y-97348320D01*
X90848574Y-97240147D01*
X90571335Y-97185000D01*
X90288665Y-97185000D01*
X90011426Y-97240147D01*
X89750273Y-97348320D01*
X89515241Y-97505363D01*
X89315363Y-97705241D01*
X89160000Y-97937759D01*
X89004637Y-97705241D01*
X88804759Y-97505363D01*
X88569727Y-97348320D01*
X88308574Y-97240147D01*
X88031335Y-97185000D01*
X87748665Y-97185000D01*
X87471426Y-97240147D01*
X87210273Y-97348320D01*
X86975241Y-97505363D01*
X86775363Y-97705241D01*
X86620000Y-97937759D01*
X86464637Y-97705241D01*
X86264759Y-97505363D01*
X86029727Y-97348320D01*
X85768574Y-97240147D01*
X85491335Y-97185000D01*
X85208665Y-97185000D01*
X84931426Y-97240147D01*
X84670273Y-97348320D01*
X84435241Y-97505363D01*
X84235363Y-97705241D01*
X84080000Y-97937759D01*
X83924637Y-97705241D01*
X83724759Y-97505363D01*
X83489727Y-97348320D01*
X83228574Y-97240147D01*
X82951335Y-97185000D01*
X82668665Y-97185000D01*
X82391426Y-97240147D01*
X82130273Y-97348320D01*
X81895241Y-97505363D01*
X81695363Y-97705241D01*
X81540000Y-97937759D01*
X81384637Y-97705241D01*
X81184759Y-97505363D01*
X80949727Y-97348320D01*
X80688574Y-97240147D01*
X80411335Y-97185000D01*
X80128665Y-97185000D01*
X79851426Y-97240147D01*
X79590273Y-97348320D01*
X79355241Y-97505363D01*
X79155363Y-97705241D01*
X79000000Y-97937759D01*
X78844637Y-97705241D01*
X78644759Y-97505363D01*
X78409727Y-97348320D01*
X78148574Y-97240147D01*
X77871335Y-97185000D01*
X77588665Y-97185000D01*
X77311426Y-97240147D01*
X77050273Y-97348320D01*
X76815241Y-97505363D01*
X76615363Y-97705241D01*
X76460000Y-97937759D01*
X76304637Y-97705241D01*
X76104759Y-97505363D01*
X75869727Y-97348320D01*
X75608574Y-97240147D01*
X75331335Y-97185000D01*
X75048665Y-97185000D01*
X74771426Y-97240147D01*
X74510273Y-97348320D01*
X74275241Y-97505363D01*
X74075363Y-97705241D01*
X73920000Y-97937759D01*
X73764637Y-97705241D01*
X73564759Y-97505363D01*
X73329727Y-97348320D01*
X73068574Y-97240147D01*
X72791335Y-97185000D01*
X72508665Y-97185000D01*
X72231426Y-97240147D01*
X71970273Y-97348320D01*
X71735241Y-97505363D01*
X71535363Y-97705241D01*
X71380000Y-97937759D01*
X71224637Y-97705241D01*
X71024759Y-97505363D01*
X70789727Y-97348320D01*
X70528574Y-97240147D01*
X70251335Y-97185000D01*
X69968665Y-97185000D01*
X69691426Y-97240147D01*
X69430273Y-97348320D01*
X69195241Y-97505363D01*
X68995363Y-97705241D01*
X68840000Y-97937759D01*
X68684637Y-97705241D01*
X68484759Y-97505363D01*
X68249727Y-97348320D01*
X67988574Y-97240147D01*
X67711335Y-97185000D01*
X67428665Y-97185000D01*
X67151426Y-97240147D01*
X66890273Y-97348320D01*
X66655241Y-97505363D01*
X66455363Y-97705241D01*
X66300000Y-97937759D01*
X66144637Y-97705241D01*
X65944759Y-97505363D01*
X65709727Y-97348320D01*
X65448574Y-97240147D01*
X65171335Y-97185000D01*
X64888665Y-97185000D01*
X64611426Y-97240147D01*
X64350273Y-97348320D01*
X64115241Y-97505363D01*
X63916643Y-97703961D01*
X63915812Y-97695518D01*
X63879502Y-97575820D01*
X63820537Y-97465506D01*
X63741185Y-97368815D01*
X63644494Y-97289463D01*
X63534180Y-97230498D01*
X63414482Y-97194188D01*
X63290000Y-97181928D01*
X62775750Y-97185000D01*
X62617000Y-97343750D01*
X62363000Y-97343750D01*
X62204250Y-97185000D01*
X61690000Y-97181928D01*
X61565518Y-97194188D01*
X61445820Y-97230498D01*
X61335506Y-97289463D01*
X61238815Y-97368815D01*
X61159463Y-97465506D01*
X61100498Y-97575820D01*
X61064188Y-97695518D01*
X61051928Y-97820000D01*
X60660000Y-97820000D01*
X60660000Y-91100000D01*
X100461928Y-91100000D01*
X100461928Y-92900000D01*
X100474188Y-93024482D01*
X100510498Y-93144180D01*
X100569463Y-93254494D01*
X100648815Y-93351185D01*
X100745506Y-93430537D01*
X100855820Y-93489502D01*
X100975518Y-93525812D01*
X101100000Y-93538072D01*
X102900000Y-93538072D01*
X103024482Y-93525812D01*
X103144180Y-93489502D01*
X103254494Y-93430537D01*
X103351185Y-93351185D01*
X103430537Y-93254494D01*
X103483880Y-93154697D01*
X103521495Y-93192312D01*
X103772905Y-93360299D01*
X104052257Y-93476011D01*
X104348816Y-93535000D01*
X104651184Y-93535000D01*
X104947743Y-93476011D01*
X105227095Y-93360299D01*
X105478505Y-93192312D01*
X105606737Y-93064080D01*
X106115525Y-93064080D01*
X106199208Y-93318261D01*
X106471775Y-93449158D01*
X106764642Y-93524365D01*
X107066553Y-93540991D01*
X107365907Y-93498397D01*
X107651199Y-93398222D01*
X107800792Y-93318261D01*
X107884475Y-93064080D01*
X107000000Y-92179605D01*
X106115525Y-93064080D01*
X105606737Y-93064080D01*
X105692312Y-92978505D01*
X105787738Y-92835690D01*
X105935920Y-92884475D01*
X106820395Y-92000000D01*
X107179605Y-92000000D01*
X108064080Y-92884475D01*
X108318261Y-92800792D01*
X108449158Y-92528225D01*
X108524365Y-92235358D01*
X108540991Y-91933447D01*
X108498397Y-91634093D01*
X108398222Y-91348801D01*
X108318261Y-91199208D01*
X108064080Y-91115525D01*
X107179605Y-92000000D01*
X106820395Y-92000000D01*
X105935920Y-91115525D01*
X105787738Y-91164310D01*
X105692312Y-91021495D01*
X105606737Y-90935920D01*
X106115525Y-90935920D01*
X107000000Y-91820395D01*
X107720395Y-91100000D01*
X123461928Y-91100000D01*
X123461928Y-92900000D01*
X123474188Y-93024482D01*
X123510498Y-93144180D01*
X123569463Y-93254494D01*
X123648815Y-93351185D01*
X123745506Y-93430537D01*
X123855820Y-93489502D01*
X123975518Y-93525812D01*
X124100000Y-93538072D01*
X125900000Y-93538072D01*
X126024482Y-93525812D01*
X126144180Y-93489502D01*
X126254494Y-93430537D01*
X126351185Y-93351185D01*
X126430537Y-93254494D01*
X126483880Y-93154697D01*
X126521495Y-93192312D01*
X126772905Y-93360299D01*
X127052257Y-93476011D01*
X127348816Y-93535000D01*
X127651184Y-93535000D01*
X127947743Y-93476011D01*
X128227095Y-93360299D01*
X128478505Y-93192312D01*
X128606737Y-93064080D01*
X129115525Y-93064080D01*
X129199208Y-93318261D01*
X129471775Y-93449158D01*
X129764642Y-93524365D01*
X130066553Y-93540991D01*
X130365907Y-93498397D01*
X130651199Y-93398222D01*
X130800792Y-93318261D01*
X130884475Y-93064080D01*
X130000000Y-92179605D01*
X129115525Y-93064080D01*
X128606737Y-93064080D01*
X128692312Y-92978505D01*
X128787738Y-92835690D01*
X128935920Y-92884475D01*
X129820395Y-92000000D01*
X130179605Y-92000000D01*
X131064080Y-92884475D01*
X131318261Y-92800792D01*
X131449158Y-92528225D01*
X131524365Y-92235358D01*
X131540991Y-91933447D01*
X131498397Y-91634093D01*
X131398222Y-91348801D01*
X131318261Y-91199208D01*
X131064080Y-91115525D01*
X130179605Y-92000000D01*
X129820395Y-92000000D01*
X128935920Y-91115525D01*
X128787738Y-91164310D01*
X128692312Y-91021495D01*
X128606737Y-90935920D01*
X129115525Y-90935920D01*
X130000000Y-91820395D01*
X130720395Y-91100000D01*
X146461928Y-91100000D01*
X146461928Y-92900000D01*
X146474188Y-93024482D01*
X146510498Y-93144180D01*
X146569463Y-93254494D01*
X146648815Y-93351185D01*
X146745506Y-93430537D01*
X146855820Y-93489502D01*
X146975518Y-93525812D01*
X147100000Y-93538072D01*
X148900000Y-93538072D01*
X149024482Y-93525812D01*
X149144180Y-93489502D01*
X149254494Y-93430537D01*
X149351185Y-93351185D01*
X149430537Y-93254494D01*
X149483880Y-93154697D01*
X149521495Y-93192312D01*
X149772905Y-93360299D01*
X150052257Y-93476011D01*
X150348816Y-93535000D01*
X150651184Y-93535000D01*
X150947743Y-93476011D01*
X151227095Y-93360299D01*
X151478505Y-93192312D01*
X151606737Y-93064080D01*
X152115525Y-93064080D01*
X152199208Y-93318261D01*
X152471775Y-93449158D01*
X152764642Y-93524365D01*
X153066553Y-93540991D01*
X153365907Y-93498397D01*
X153651199Y-93398222D01*
X153800792Y-93318261D01*
X153884475Y-93064080D01*
X153000000Y-92179605D01*
X152115525Y-93064080D01*
X151606737Y-93064080D01*
X151692312Y-92978505D01*
X151787738Y-92835690D01*
X151935920Y-92884475D01*
X152820395Y-92000000D01*
X153179605Y-92000000D01*
X154064080Y-92884475D01*
X154318261Y-92800792D01*
X154449158Y-92528225D01*
X154524365Y-92235358D01*
X154540991Y-91933447D01*
X154498397Y-91634093D01*
X154398222Y-91348801D01*
X154318261Y-91199208D01*
X154064080Y-91115525D01*
X153179605Y-92000000D01*
X152820395Y-92000000D01*
X151935920Y-91115525D01*
X151787738Y-91164310D01*
X151692312Y-91021495D01*
X151606737Y-90935920D01*
X152115525Y-90935920D01*
X153000000Y-91820395D01*
X153720395Y-91100000D01*
X169461928Y-91100000D01*
X169461928Y-92900000D01*
X169474188Y-93024482D01*
X169510498Y-93144180D01*
X169569463Y-93254494D01*
X169648815Y-93351185D01*
X169745506Y-93430537D01*
X169855820Y-93489502D01*
X169975518Y-93525812D01*
X170100000Y-93538072D01*
X171900000Y-93538072D01*
X172024482Y-93525812D01*
X172144180Y-93489502D01*
X172254494Y-93430537D01*
X172351185Y-93351185D01*
X172430537Y-93254494D01*
X172483880Y-93154697D01*
X172521495Y-93192312D01*
X172772905Y-93360299D01*
X173052257Y-93476011D01*
X173348816Y-93535000D01*
X173651184Y-93535000D01*
X173947743Y-93476011D01*
X174227095Y-93360299D01*
X174478505Y-93192312D01*
X174606737Y-93064080D01*
X175115525Y-93064080D01*
X175199208Y-93318261D01*
X175471775Y-93449158D01*
X175764642Y-93524365D01*
X176066553Y-93540991D01*
X176365907Y-93498397D01*
X176651199Y-93398222D01*
X176800792Y-93318261D01*
X176884475Y-93064080D01*
X176000000Y-92179605D01*
X175115525Y-93064080D01*
X174606737Y-93064080D01*
X174692312Y-92978505D01*
X174787738Y-92835690D01*
X174935920Y-92884475D01*
X175820395Y-92000000D01*
X176179605Y-92000000D01*
X177064080Y-92884475D01*
X177318261Y-92800792D01*
X177449158Y-92528225D01*
X177524365Y-92235358D01*
X177540991Y-91933447D01*
X177498397Y-91634093D01*
X177398222Y-91348801D01*
X177318261Y-91199208D01*
X177064080Y-91115525D01*
X176179605Y-92000000D01*
X175820395Y-92000000D01*
X174935920Y-91115525D01*
X174787738Y-91164310D01*
X174692312Y-91021495D01*
X174606737Y-90935920D01*
X175115525Y-90935920D01*
X176000000Y-91820395D01*
X176884475Y-90935920D01*
X176800792Y-90681739D01*
X176528225Y-90550842D01*
X176235358Y-90475635D01*
X175933447Y-90459009D01*
X175634093Y-90501603D01*
X175348801Y-90601778D01*
X175199208Y-90681739D01*
X175115525Y-90935920D01*
X174606737Y-90935920D01*
X174478505Y-90807688D01*
X174227095Y-90639701D01*
X173947743Y-90523989D01*
X173651184Y-90465000D01*
X173348816Y-90465000D01*
X173052257Y-90523989D01*
X172772905Y-90639701D01*
X172521495Y-90807688D01*
X172483880Y-90845303D01*
X172430537Y-90745506D01*
X172351185Y-90648815D01*
X172254494Y-90569463D01*
X172144180Y-90510498D01*
X172024482Y-90474188D01*
X171900000Y-90461928D01*
X170100000Y-90461928D01*
X169975518Y-90474188D01*
X169855820Y-90510498D01*
X169745506Y-90569463D01*
X169648815Y-90648815D01*
X169569463Y-90745506D01*
X169510498Y-90855820D01*
X169474188Y-90975518D01*
X169461928Y-91100000D01*
X153720395Y-91100000D01*
X153884475Y-90935920D01*
X153800792Y-90681739D01*
X153528225Y-90550842D01*
X153235358Y-90475635D01*
X152933447Y-90459009D01*
X152634093Y-90501603D01*
X152348801Y-90601778D01*
X152199208Y-90681739D01*
X152115525Y-90935920D01*
X151606737Y-90935920D01*
X151478505Y-90807688D01*
X151227095Y-90639701D01*
X150947743Y-90523989D01*
X150651184Y-90465000D01*
X150348816Y-90465000D01*
X150052257Y-90523989D01*
X149772905Y-90639701D01*
X149521495Y-90807688D01*
X149483880Y-90845303D01*
X149430537Y-90745506D01*
X149351185Y-90648815D01*
X149254494Y-90569463D01*
X149144180Y-90510498D01*
X149024482Y-90474188D01*
X148900000Y-90461928D01*
X147100000Y-90461928D01*
X146975518Y-90474188D01*
X146855820Y-90510498D01*
X146745506Y-90569463D01*
X146648815Y-90648815D01*
X146569463Y-90745506D01*
X146510498Y-90855820D01*
X146474188Y-90975518D01*
X146461928Y-91100000D01*
X130720395Y-91100000D01*
X130884475Y-90935920D01*
X130800792Y-90681739D01*
X130528225Y-90550842D01*
X130235358Y-90475635D01*
X129933447Y-90459009D01*
X129634093Y-90501603D01*
X129348801Y-90601778D01*
X129199208Y-90681739D01*
X129115525Y-90935920D01*
X128606737Y-90935920D01*
X128478505Y-90807688D01*
X128227095Y-90639701D01*
X127947743Y-90523989D01*
X127651184Y-90465000D01*
X127348816Y-90465000D01*
X127052257Y-90523989D01*
X126772905Y-90639701D01*
X126521495Y-90807688D01*
X126483880Y-90845303D01*
X126430537Y-90745506D01*
X126351185Y-90648815D01*
X126254494Y-90569463D01*
X126144180Y-90510498D01*
X126024482Y-90474188D01*
X125900000Y-90461928D01*
X124100000Y-90461928D01*
X123975518Y-90474188D01*
X123855820Y-90510498D01*
X123745506Y-90569463D01*
X123648815Y-90648815D01*
X123569463Y-90745506D01*
X123510498Y-90855820D01*
X123474188Y-90975518D01*
X123461928Y-91100000D01*
X107720395Y-91100000D01*
X107884475Y-90935920D01*
X107800792Y-90681739D01*
X107528225Y-90550842D01*
X107235358Y-90475635D01*
X106933447Y-90459009D01*
X106634093Y-90501603D01*
X106348801Y-90601778D01*
X106199208Y-90681739D01*
X106115525Y-90935920D01*
X105606737Y-90935920D01*
X105478505Y-90807688D01*
X105227095Y-90639701D01*
X104947743Y-90523989D01*
X104651184Y-90465000D01*
X104348816Y-90465000D01*
X104052257Y-90523989D01*
X103772905Y-90639701D01*
X103521495Y-90807688D01*
X103483880Y-90845303D01*
X103430537Y-90745506D01*
X103351185Y-90648815D01*
X103254494Y-90569463D01*
X103144180Y-90510498D01*
X103024482Y-90474188D01*
X102900000Y-90461928D01*
X101100000Y-90461928D01*
X100975518Y-90474188D01*
X100855820Y-90510498D01*
X100745506Y-90569463D01*
X100648815Y-90648815D01*
X100569463Y-90745506D01*
X100510498Y-90855820D01*
X100474188Y-90975518D01*
X100461928Y-91100000D01*
X60660000Y-91100000D01*
X60660000Y-83238665D01*
X61055000Y-83238665D01*
X61055000Y-83521335D01*
X61110147Y-83798574D01*
X61218320Y-84059727D01*
X61375363Y-84294759D01*
X61575241Y-84494637D01*
X61810273Y-84651680D01*
X62071426Y-84759853D01*
X62348665Y-84815000D01*
X62631335Y-84815000D01*
X62908574Y-84759853D01*
X63169727Y-84651680D01*
X63404759Y-84494637D01*
X63526694Y-84372702D01*
X64216903Y-84372702D01*
X64288486Y-84616671D01*
X64543996Y-84737571D01*
X64818184Y-84806300D01*
X65100512Y-84820217D01*
X65380130Y-84778787D01*
X65646292Y-84683603D01*
X65771514Y-84616671D01*
X65843097Y-84372702D01*
X65030000Y-83559605D01*
X64216903Y-84372702D01*
X63526694Y-84372702D01*
X63604637Y-84294759D01*
X63760915Y-84060872D01*
X63793329Y-84121514D01*
X64037298Y-84193097D01*
X64850395Y-83380000D01*
X65209605Y-83380000D01*
X66022702Y-84193097D01*
X66266671Y-84121514D01*
X66297194Y-84057008D01*
X66298320Y-84059727D01*
X66455363Y-84294759D01*
X66655241Y-84494637D01*
X66890273Y-84651680D01*
X67151426Y-84759853D01*
X67428665Y-84815000D01*
X67711335Y-84815000D01*
X67988574Y-84759853D01*
X68249727Y-84651680D01*
X68484759Y-84494637D01*
X68684637Y-84294759D01*
X68840000Y-84062241D01*
X68995363Y-84294759D01*
X69195241Y-84494637D01*
X69430273Y-84651680D01*
X69691426Y-84759853D01*
X69968665Y-84815000D01*
X70251335Y-84815000D01*
X70528574Y-84759853D01*
X70789727Y-84651680D01*
X71024759Y-84494637D01*
X71224637Y-84294759D01*
X71380000Y-84062241D01*
X71535363Y-84294759D01*
X71735241Y-84494637D01*
X71970273Y-84651680D01*
X72231426Y-84759853D01*
X72508665Y-84815000D01*
X72791335Y-84815000D01*
X73068574Y-84759853D01*
X73329727Y-84651680D01*
X73564759Y-84494637D01*
X73764637Y-84294759D01*
X73920000Y-84062241D01*
X74075363Y-84294759D01*
X74275241Y-84494637D01*
X74510273Y-84651680D01*
X74771426Y-84759853D01*
X75048665Y-84815000D01*
X75331335Y-84815000D01*
X75608574Y-84759853D01*
X75869727Y-84651680D01*
X76104759Y-84494637D01*
X76304637Y-84294759D01*
X76460000Y-84062241D01*
X76615363Y-84294759D01*
X76815241Y-84494637D01*
X77050273Y-84651680D01*
X77311426Y-84759853D01*
X77588665Y-84815000D01*
X77871335Y-84815000D01*
X78148574Y-84759853D01*
X78409727Y-84651680D01*
X78644759Y-84494637D01*
X78844637Y-84294759D01*
X79000000Y-84062241D01*
X79155363Y-84294759D01*
X79355241Y-84494637D01*
X79590273Y-84651680D01*
X79851426Y-84759853D01*
X80128665Y-84815000D01*
X80411335Y-84815000D01*
X80688574Y-84759853D01*
X80949727Y-84651680D01*
X81184759Y-84494637D01*
X81384637Y-84294759D01*
X81540000Y-84062241D01*
X81695363Y-84294759D01*
X81895241Y-84494637D01*
X82130273Y-84651680D01*
X82391426Y-84759853D01*
X82668665Y-84815000D01*
X82951335Y-84815000D01*
X83228574Y-84759853D01*
X83489727Y-84651680D01*
X83724759Y-84494637D01*
X83924637Y-84294759D01*
X84080000Y-84062241D01*
X84235363Y-84294759D01*
X84435241Y-84494637D01*
X84670273Y-84651680D01*
X84931426Y-84759853D01*
X85208665Y-84815000D01*
X85491335Y-84815000D01*
X85768574Y-84759853D01*
X86029727Y-84651680D01*
X86264759Y-84494637D01*
X86464637Y-84294759D01*
X86620000Y-84062241D01*
X86775363Y-84294759D01*
X86975241Y-84494637D01*
X87210273Y-84651680D01*
X87471426Y-84759853D01*
X87748665Y-84815000D01*
X88031335Y-84815000D01*
X88308574Y-84759853D01*
X88569727Y-84651680D01*
X88804759Y-84494637D01*
X89004637Y-84294759D01*
X89160000Y-84062241D01*
X89315363Y-84294759D01*
X89515241Y-84494637D01*
X89750273Y-84651680D01*
X90011426Y-84759853D01*
X90288665Y-84815000D01*
X90571335Y-84815000D01*
X90848574Y-84759853D01*
X91109727Y-84651680D01*
X91344759Y-84494637D01*
X91544637Y-84294759D01*
X91700000Y-84062241D01*
X91855363Y-84294759D01*
X92055241Y-84494637D01*
X92290273Y-84651680D01*
X92551426Y-84759853D01*
X92828665Y-84815000D01*
X93111335Y-84815000D01*
X93388574Y-84759853D01*
X93649727Y-84651680D01*
X93884759Y-84494637D01*
X94084637Y-84294759D01*
X94240000Y-84062241D01*
X94395363Y-84294759D01*
X94595241Y-84494637D01*
X94830273Y-84651680D01*
X95091426Y-84759853D01*
X95368665Y-84815000D01*
X95651335Y-84815000D01*
X95928574Y-84759853D01*
X96189727Y-84651680D01*
X96424759Y-84494637D01*
X96624637Y-84294759D01*
X96726705Y-84142002D01*
X97705000Y-84142002D01*
X97705000Y-84857997D01*
X97733867Y-85151087D01*
X97847943Y-85527146D01*
X98033193Y-85873725D01*
X98282497Y-86177503D01*
X98586275Y-86426807D01*
X98932853Y-86612057D01*
X99308912Y-86726133D01*
X99700000Y-86764652D01*
X100091087Y-86726133D01*
X100467146Y-86612057D01*
X100813725Y-86426807D01*
X101117503Y-86177503D01*
X101366807Y-85873725D01*
X101552057Y-85527147D01*
X101666133Y-85151088D01*
X101695000Y-84857998D01*
X101695000Y-84142003D01*
X101695000Y-84142002D01*
X107305000Y-84142002D01*
X107305000Y-84857997D01*
X107333867Y-85151087D01*
X107447943Y-85527146D01*
X107633193Y-85873725D01*
X107882497Y-86177503D01*
X108186275Y-86426807D01*
X108532853Y-86612057D01*
X108908912Y-86726133D01*
X109300000Y-86764652D01*
X109691087Y-86726133D01*
X110067146Y-86612057D01*
X110413725Y-86426807D01*
X110717503Y-86177503D01*
X110966807Y-85873725D01*
X111152057Y-85527147D01*
X111266133Y-85151088D01*
X111295000Y-84857998D01*
X111295000Y-84142003D01*
X111295000Y-84142002D01*
X120705000Y-84142002D01*
X120705000Y-84857997D01*
X120733867Y-85151087D01*
X120847943Y-85527146D01*
X121033193Y-85873725D01*
X121282497Y-86177503D01*
X121586275Y-86426807D01*
X121932853Y-86612057D01*
X122308912Y-86726133D01*
X122700000Y-86764652D01*
X123091087Y-86726133D01*
X123467146Y-86612057D01*
X123813725Y-86426807D01*
X124117503Y-86177503D01*
X124366807Y-85873725D01*
X124552057Y-85527147D01*
X124666133Y-85151088D01*
X124695000Y-84857998D01*
X124695000Y-84142003D01*
X124695000Y-84142002D01*
X130305000Y-84142002D01*
X130305000Y-84857997D01*
X130333867Y-85151087D01*
X130447943Y-85527146D01*
X130633193Y-85873725D01*
X130882497Y-86177503D01*
X131186275Y-86426807D01*
X131532853Y-86612057D01*
X131908912Y-86726133D01*
X132300000Y-86764652D01*
X132691087Y-86726133D01*
X133067146Y-86612057D01*
X133413725Y-86426807D01*
X133717503Y-86177503D01*
X133966807Y-85873725D01*
X134152057Y-85527147D01*
X134266133Y-85151088D01*
X134295000Y-84857998D01*
X134295000Y-84142003D01*
X134295000Y-84142002D01*
X143705000Y-84142002D01*
X143705000Y-84857997D01*
X143733867Y-85151087D01*
X143847943Y-85527146D01*
X144033193Y-85873725D01*
X144282497Y-86177503D01*
X144586275Y-86426807D01*
X144932853Y-86612057D01*
X145308912Y-86726133D01*
X145700000Y-86764652D01*
X146091087Y-86726133D01*
X146467146Y-86612057D01*
X146813725Y-86426807D01*
X147117503Y-86177503D01*
X147366807Y-85873725D01*
X147552057Y-85527147D01*
X147666133Y-85151088D01*
X147695000Y-84857998D01*
X147695000Y-84142003D01*
X147695000Y-84142002D01*
X153305000Y-84142002D01*
X153305000Y-84857997D01*
X153333867Y-85151087D01*
X153447943Y-85527146D01*
X153633193Y-85873725D01*
X153882497Y-86177503D01*
X154186275Y-86426807D01*
X154532853Y-86612057D01*
X154908912Y-86726133D01*
X155300000Y-86764652D01*
X155691087Y-86726133D01*
X156067146Y-86612057D01*
X156413725Y-86426807D01*
X156717503Y-86177503D01*
X156966807Y-85873725D01*
X157152057Y-85527147D01*
X157266133Y-85151088D01*
X157295000Y-84857998D01*
X157295000Y-84142003D01*
X157295000Y-84142002D01*
X166705000Y-84142002D01*
X166705000Y-84857997D01*
X166733867Y-85151087D01*
X166847943Y-85527146D01*
X167033193Y-85873725D01*
X167282497Y-86177503D01*
X167586275Y-86426807D01*
X167932853Y-86612057D01*
X168308912Y-86726133D01*
X168700000Y-86764652D01*
X169091087Y-86726133D01*
X169467146Y-86612057D01*
X169813725Y-86426807D01*
X170117503Y-86177503D01*
X170366807Y-85873725D01*
X170552057Y-85527147D01*
X170666133Y-85151088D01*
X170695000Y-84857998D01*
X170695000Y-84142003D01*
X170695000Y-84142002D01*
X176305000Y-84142002D01*
X176305000Y-84857997D01*
X176333867Y-85151087D01*
X176447943Y-85527146D01*
X176633193Y-85873725D01*
X176882497Y-86177503D01*
X177186275Y-86426807D01*
X177532853Y-86612057D01*
X177908912Y-86726133D01*
X178300000Y-86764652D01*
X178691087Y-86726133D01*
X179067146Y-86612057D01*
X179413725Y-86426807D01*
X179717503Y-86177503D01*
X179966807Y-85873725D01*
X180152057Y-85527147D01*
X180266133Y-85151088D01*
X180295000Y-84857998D01*
X180295000Y-84142003D01*
X180266133Y-83848913D01*
X180152057Y-83472853D01*
X179966807Y-83126275D01*
X179717503Y-82822497D01*
X179413725Y-82573193D01*
X179067147Y-82387943D01*
X178691088Y-82273867D01*
X178300000Y-82235348D01*
X177908913Y-82273867D01*
X177532854Y-82387943D01*
X177186276Y-82573193D01*
X176882498Y-82822497D01*
X176633193Y-83126275D01*
X176447943Y-83472853D01*
X176333867Y-83848912D01*
X176305000Y-84142002D01*
X170695000Y-84142002D01*
X170666133Y-83848913D01*
X170552057Y-83472853D01*
X170366807Y-83126275D01*
X170117503Y-82822497D01*
X169813725Y-82573193D01*
X169467147Y-82387943D01*
X169091088Y-82273867D01*
X168700000Y-82235348D01*
X168308913Y-82273867D01*
X167932854Y-82387943D01*
X167586276Y-82573193D01*
X167282498Y-82822497D01*
X167033193Y-83126275D01*
X166847943Y-83472853D01*
X166733867Y-83848912D01*
X166705000Y-84142002D01*
X157295000Y-84142002D01*
X157266133Y-83848913D01*
X157152057Y-83472853D01*
X156966807Y-83126275D01*
X156717503Y-82822497D01*
X156413725Y-82573193D01*
X156067147Y-82387943D01*
X155691088Y-82273867D01*
X155300000Y-82235348D01*
X154908913Y-82273867D01*
X154532854Y-82387943D01*
X154186276Y-82573193D01*
X153882498Y-82822497D01*
X153633193Y-83126275D01*
X153447943Y-83472853D01*
X153333867Y-83848912D01*
X153305000Y-84142002D01*
X147695000Y-84142002D01*
X147666133Y-83848913D01*
X147552057Y-83472853D01*
X147366807Y-83126275D01*
X147117503Y-82822497D01*
X146813725Y-82573193D01*
X146467147Y-82387943D01*
X146091088Y-82273867D01*
X145700000Y-82235348D01*
X145308913Y-82273867D01*
X144932854Y-82387943D01*
X144586276Y-82573193D01*
X144282498Y-82822497D01*
X144033193Y-83126275D01*
X143847943Y-83472853D01*
X143733867Y-83848912D01*
X143705000Y-84142002D01*
X134295000Y-84142002D01*
X134266133Y-83848913D01*
X134152057Y-83472853D01*
X133966807Y-83126275D01*
X133717503Y-82822497D01*
X133413725Y-82573193D01*
X133067147Y-82387943D01*
X132691088Y-82273867D01*
X132300000Y-82235348D01*
X131908913Y-82273867D01*
X131532854Y-82387943D01*
X131186276Y-82573193D01*
X130882498Y-82822497D01*
X130633193Y-83126275D01*
X130447943Y-83472853D01*
X130333867Y-83848912D01*
X130305000Y-84142002D01*
X124695000Y-84142002D01*
X124666133Y-83848913D01*
X124552057Y-83472853D01*
X124366807Y-83126275D01*
X124117503Y-82822497D01*
X123813725Y-82573193D01*
X123467147Y-82387943D01*
X123091088Y-82273867D01*
X122700000Y-82235348D01*
X122308913Y-82273867D01*
X121932854Y-82387943D01*
X121586276Y-82573193D01*
X121282498Y-82822497D01*
X121033193Y-83126275D01*
X120847943Y-83472853D01*
X120733867Y-83848912D01*
X120705000Y-84142002D01*
X111295000Y-84142002D01*
X111266133Y-83848913D01*
X111152057Y-83472853D01*
X110966807Y-83126275D01*
X110717503Y-82822497D01*
X110413725Y-82573193D01*
X110067147Y-82387943D01*
X109691088Y-82273867D01*
X109300000Y-82235348D01*
X108908913Y-82273867D01*
X108532854Y-82387943D01*
X108186276Y-82573193D01*
X107882498Y-82822497D01*
X107633193Y-83126275D01*
X107447943Y-83472853D01*
X107333867Y-83848912D01*
X107305000Y-84142002D01*
X101695000Y-84142002D01*
X101666133Y-83848913D01*
X101552057Y-83472853D01*
X101366807Y-83126275D01*
X101117503Y-82822497D01*
X100813725Y-82573193D01*
X100467147Y-82387943D01*
X100091088Y-82273867D01*
X99700000Y-82235348D01*
X99308913Y-82273867D01*
X98932854Y-82387943D01*
X98586276Y-82573193D01*
X98282498Y-82822497D01*
X98033193Y-83126275D01*
X97847943Y-83472853D01*
X97733867Y-83848912D01*
X97705000Y-84142002D01*
X96726705Y-84142002D01*
X96781680Y-84059727D01*
X96889853Y-83798574D01*
X96945000Y-83521335D01*
X96945000Y-83238665D01*
X96889853Y-82961426D01*
X96781680Y-82700273D01*
X96624637Y-82465241D01*
X96424759Y-82265363D01*
X96189727Y-82108320D01*
X95928574Y-82000147D01*
X95651335Y-81945000D01*
X95368665Y-81945000D01*
X95091426Y-82000147D01*
X94830273Y-82108320D01*
X94595241Y-82265363D01*
X94395363Y-82465241D01*
X94240000Y-82697759D01*
X94084637Y-82465241D01*
X93884759Y-82265363D01*
X93649727Y-82108320D01*
X93388574Y-82000147D01*
X93111335Y-81945000D01*
X92828665Y-81945000D01*
X92551426Y-82000147D01*
X92290273Y-82108320D01*
X92055241Y-82265363D01*
X91855363Y-82465241D01*
X91700000Y-82697759D01*
X91544637Y-82465241D01*
X91344759Y-82265363D01*
X91109727Y-82108320D01*
X90848574Y-82000147D01*
X90571335Y-81945000D01*
X90288665Y-81945000D01*
X90011426Y-82000147D01*
X89750273Y-82108320D01*
X89515241Y-82265363D01*
X89315363Y-82465241D01*
X89160000Y-82697759D01*
X89004637Y-82465241D01*
X88804759Y-82265363D01*
X88569727Y-82108320D01*
X88308574Y-82000147D01*
X88031335Y-81945000D01*
X87748665Y-81945000D01*
X87471426Y-82000147D01*
X87210273Y-82108320D01*
X86975241Y-82265363D01*
X86775363Y-82465241D01*
X86620000Y-82697759D01*
X86464637Y-82465241D01*
X86264759Y-82265363D01*
X86029727Y-82108320D01*
X85768574Y-82000147D01*
X85491335Y-81945000D01*
X85208665Y-81945000D01*
X84931426Y-82000147D01*
X84670273Y-82108320D01*
X84435241Y-82265363D01*
X84235363Y-82465241D01*
X84080000Y-82697759D01*
X83924637Y-82465241D01*
X83724759Y-82265363D01*
X83489727Y-82108320D01*
X83228574Y-82000147D01*
X82951335Y-81945000D01*
X82668665Y-81945000D01*
X82391426Y-82000147D01*
X82130273Y-82108320D01*
X81895241Y-82265363D01*
X81695363Y-82465241D01*
X81540000Y-82697759D01*
X81384637Y-82465241D01*
X81184759Y-82265363D01*
X80949727Y-82108320D01*
X80688574Y-82000147D01*
X80411335Y-81945000D01*
X80128665Y-81945000D01*
X79851426Y-82000147D01*
X79590273Y-82108320D01*
X79355241Y-82265363D01*
X79155363Y-82465241D01*
X79000000Y-82697759D01*
X78844637Y-82465241D01*
X78644759Y-82265363D01*
X78409727Y-82108320D01*
X78148574Y-82000147D01*
X77871335Y-81945000D01*
X77588665Y-81945000D01*
X77311426Y-82000147D01*
X77050273Y-82108320D01*
X76815241Y-82265363D01*
X76615363Y-82465241D01*
X76460000Y-82697759D01*
X76304637Y-82465241D01*
X76104759Y-82265363D01*
X75869727Y-82108320D01*
X75608574Y-82000147D01*
X75331335Y-81945000D01*
X75048665Y-81945000D01*
X74771426Y-82000147D01*
X74510273Y-82108320D01*
X74275241Y-82265363D01*
X74075363Y-82465241D01*
X73920000Y-82697759D01*
X73764637Y-82465241D01*
X73564759Y-82265363D01*
X73329727Y-82108320D01*
X73068574Y-82000147D01*
X72791335Y-81945000D01*
X72508665Y-81945000D01*
X72231426Y-82000147D01*
X71970273Y-82108320D01*
X71735241Y-82265363D01*
X71535363Y-82465241D01*
X71380000Y-82697759D01*
X71224637Y-82465241D01*
X71024759Y-82265363D01*
X70789727Y-82108320D01*
X70528574Y-82000147D01*
X70251335Y-81945000D01*
X69968665Y-81945000D01*
X69691426Y-82000147D01*
X69430273Y-82108320D01*
X69195241Y-82265363D01*
X68995363Y-82465241D01*
X68840000Y-82697759D01*
X68684637Y-82465241D01*
X68484759Y-82265363D01*
X68249727Y-82108320D01*
X67988574Y-82000147D01*
X67711335Y-81945000D01*
X67428665Y-81945000D01*
X67151426Y-82000147D01*
X66890273Y-82108320D01*
X66655241Y-82265363D01*
X66455363Y-82465241D01*
X66299085Y-82699128D01*
X66266671Y-82638486D01*
X66022702Y-82566903D01*
X65209605Y-83380000D01*
X64850395Y-83380000D01*
X64037298Y-82566903D01*
X63793329Y-82638486D01*
X63762806Y-82702992D01*
X63761680Y-82700273D01*
X63604637Y-82465241D01*
X63526694Y-82387298D01*
X64216903Y-82387298D01*
X65030000Y-83200395D01*
X65843097Y-82387298D01*
X65771514Y-82143329D01*
X65516004Y-82022429D01*
X65241816Y-81953700D01*
X64959488Y-81939783D01*
X64679870Y-81981213D01*
X64413708Y-82076397D01*
X64288486Y-82143329D01*
X64216903Y-82387298D01*
X63526694Y-82387298D01*
X63404759Y-82265363D01*
X63169727Y-82108320D01*
X62908574Y-82000147D01*
X62631335Y-81945000D01*
X62348665Y-81945000D01*
X62071426Y-82000147D01*
X61810273Y-82108320D01*
X61575241Y-82265363D01*
X61375363Y-82465241D01*
X61218320Y-82700273D01*
X61110147Y-82961426D01*
X61055000Y-83238665D01*
X60660000Y-83238665D01*
X60660000Y-78032278D01*
X60691991Y-77706003D01*
X61015000Y-77706003D01*
X61015000Y-78293997D01*
X61129712Y-78870692D01*
X61354727Y-79413928D01*
X61681399Y-79902826D01*
X62097174Y-80318601D01*
X62586072Y-80645273D01*
X63129308Y-80870288D01*
X63706003Y-80985000D01*
X64293997Y-80985000D01*
X64870692Y-80870288D01*
X65413928Y-80645273D01*
X65902826Y-80318601D01*
X66318601Y-79902826D01*
X66645273Y-79413928D01*
X66870288Y-78870692D01*
X66985000Y-78293997D01*
X66985000Y-77706003D01*
X179015000Y-77706003D01*
X179015000Y-78293997D01*
X179129712Y-78870692D01*
X179354727Y-79413928D01*
X179681399Y-79902826D01*
X180097174Y-80318601D01*
X180586072Y-80645273D01*
X181129308Y-80870288D01*
X181706003Y-80985000D01*
X182293997Y-80985000D01*
X182870692Y-80870288D01*
X183413928Y-80645273D01*
X183902826Y-80318601D01*
X184318601Y-79902826D01*
X184645273Y-79413928D01*
X184870288Y-78870692D01*
X184985000Y-78293997D01*
X184985000Y-77706003D01*
X184870288Y-77129308D01*
X184645273Y-76586072D01*
X184318601Y-76097174D01*
X183902826Y-75681399D01*
X183413928Y-75354727D01*
X182870692Y-75129712D01*
X182293997Y-75015000D01*
X181706003Y-75015000D01*
X181129308Y-75129712D01*
X180586072Y-75354727D01*
X180097174Y-75681399D01*
X179681399Y-76097174D01*
X179354727Y-76586072D01*
X179129712Y-77129308D01*
X179015000Y-77706003D01*
X66985000Y-77706003D01*
X66870288Y-77129308D01*
X66645273Y-76586072D01*
X66318601Y-76097174D01*
X65902826Y-75681399D01*
X65413928Y-75354727D01*
X64870692Y-75129712D01*
X64293997Y-75015000D01*
X63706003Y-75015000D01*
X63129308Y-75129712D01*
X62586072Y-75354727D01*
X62097174Y-75681399D01*
X61681399Y-76097174D01*
X61354727Y-76586072D01*
X61129712Y-77129308D01*
X61015000Y-77706003D01*
X60691991Y-77706003D01*
X60726714Y-77351874D01*
X60914943Y-76728428D01*
X61220681Y-76153421D01*
X61632279Y-75648753D01*
X62134067Y-75233638D01*
X62706924Y-74923895D01*
X63329039Y-74731318D01*
X64007584Y-74660000D01*
X181967722Y-74660000D01*
X182648126Y-74726714D01*
%TA.AperFunction,Conductor*%
D18*
G36*
X182648126Y-74726714D02*
G01*
X183271572Y-74914943D01*
X183846579Y-75220681D01*
X184351247Y-75632279D01*
X184766362Y-76134067D01*
X185076105Y-76706924D01*
X185268682Y-77329039D01*
X185340001Y-78007594D01*
X185340000Y-115967721D01*
X185273286Y-116648126D01*
X185085057Y-117271570D01*
X184779323Y-117846573D01*
X184367721Y-118351248D01*
X183865933Y-118766362D01*
X183293077Y-119076104D01*
X182670961Y-119268682D01*
X181992417Y-119340000D01*
X64032279Y-119340000D01*
X63351874Y-119273286D01*
X62728430Y-119085057D01*
X62153427Y-118779323D01*
X61648752Y-118367721D01*
X61233638Y-117865933D01*
X60923896Y-117293077D01*
X60731318Y-116670961D01*
X60660000Y-115992417D01*
X60660000Y-115706003D01*
X61015000Y-115706003D01*
X61015000Y-116293997D01*
X61129712Y-116870692D01*
X61354727Y-117413928D01*
X61681399Y-117902826D01*
X62097174Y-118318601D01*
X62586072Y-118645273D01*
X63129308Y-118870288D01*
X63706003Y-118985000D01*
X64293997Y-118985000D01*
X64870692Y-118870288D01*
X65413928Y-118645273D01*
X65902826Y-118318601D01*
X66318601Y-117902826D01*
X66645273Y-117413928D01*
X66870288Y-116870692D01*
X66985000Y-116293997D01*
X66985000Y-115706003D01*
X179015000Y-115706003D01*
X179015000Y-116293997D01*
X179129712Y-116870692D01*
X179354727Y-117413928D01*
X179681399Y-117902826D01*
X180097174Y-118318601D01*
X180586072Y-118645273D01*
X181129308Y-118870288D01*
X181706003Y-118985000D01*
X182293997Y-118985000D01*
X182870692Y-118870288D01*
X183413928Y-118645273D01*
X183902826Y-118318601D01*
X184318601Y-117902826D01*
X184645273Y-117413928D01*
X184870288Y-116870692D01*
X184985000Y-116293997D01*
X184985000Y-115706003D01*
X184870288Y-115129308D01*
X184645273Y-114586072D01*
X184318601Y-114097174D01*
X183902826Y-113681399D01*
X183413928Y-113354727D01*
X182870692Y-113129712D01*
X182293997Y-113015000D01*
X181706003Y-113015000D01*
X181129308Y-113129712D01*
X180586072Y-113354727D01*
X180097174Y-113681399D01*
X179681399Y-114097174D01*
X179354727Y-114586072D01*
X179129712Y-115129308D01*
X179015000Y-115706003D01*
X66985000Y-115706003D01*
X66870288Y-115129308D01*
X66645273Y-114586072D01*
X66318601Y-114097174D01*
X65902826Y-113681399D01*
X65413928Y-113354727D01*
X65281805Y-113300000D01*
X70235348Y-113300000D01*
X70273867Y-113691088D01*
X70387943Y-114067147D01*
X70573193Y-114413725D01*
X70822497Y-114717503D01*
X71126275Y-114966807D01*
X71472853Y-115152057D01*
X71848912Y-115266133D01*
X72142002Y-115295000D01*
X72857998Y-115295000D01*
X73151088Y-115266133D01*
X73527147Y-115152057D01*
X73873725Y-114966807D01*
X74177503Y-114717503D01*
X74426807Y-114413725D01*
X74612057Y-114067147D01*
X74726133Y-113691088D01*
X74764652Y-113300000D01*
X93235348Y-113300000D01*
X93273867Y-113691088D01*
X93387943Y-114067147D01*
X93573193Y-114413725D01*
X93822497Y-114717503D01*
X94126275Y-114966807D01*
X94472853Y-115152057D01*
X94848912Y-115266133D01*
X95142002Y-115295000D01*
X95857998Y-115295000D01*
X96151088Y-115266133D01*
X96527147Y-115152057D01*
X96873725Y-114966807D01*
X97177503Y-114717503D01*
X97426807Y-114413725D01*
X97612057Y-114067147D01*
X97726133Y-113691088D01*
X97764652Y-113300000D01*
X97726133Y-112908912D01*
X97612057Y-112532853D01*
X97426807Y-112186275D01*
X97177503Y-111882497D01*
X96873725Y-111633193D01*
X96527147Y-111447943D01*
X96151088Y-111333867D01*
X95857998Y-111305000D01*
X95142002Y-111305000D01*
X94848912Y-111333867D01*
X94472853Y-111447943D01*
X94126275Y-111633193D01*
X93822497Y-111882497D01*
X93573193Y-112186275D01*
X93387943Y-112532853D01*
X93273867Y-112908912D01*
X93235348Y-113300000D01*
X74764652Y-113300000D01*
X74726133Y-112908912D01*
X74612057Y-112532853D01*
X74426807Y-112186275D01*
X74177503Y-111882497D01*
X73873725Y-111633193D01*
X73527147Y-111447943D01*
X73151088Y-111333867D01*
X72857998Y-111305000D01*
X72142002Y-111305000D01*
X71848912Y-111333867D01*
X71472853Y-111447943D01*
X71126275Y-111633193D01*
X70822497Y-111882497D01*
X70573193Y-112186275D01*
X70387943Y-112532853D01*
X70273867Y-112908912D01*
X70235348Y-113300000D01*
X65281805Y-113300000D01*
X64870692Y-113129712D01*
X64293997Y-113015000D01*
X63706003Y-113015000D01*
X63129308Y-113129712D01*
X62586072Y-113354727D01*
X62097174Y-113681399D01*
X61681399Y-114097174D01*
X61354727Y-114586072D01*
X61129712Y-115129308D01*
X61015000Y-115706003D01*
X60660000Y-115706003D01*
X60660000Y-110100000D01*
X78461928Y-110100000D01*
X78461928Y-111900000D01*
X78474188Y-112024482D01*
X78510498Y-112144180D01*
X78569463Y-112254494D01*
X78648815Y-112351185D01*
X78745506Y-112430537D01*
X78855820Y-112489502D01*
X78975518Y-112525812D01*
X79100000Y-112538072D01*
X80900000Y-112538072D01*
X81024482Y-112525812D01*
X81144180Y-112489502D01*
X81254494Y-112430537D01*
X81351185Y-112351185D01*
X81430537Y-112254494D01*
X81489502Y-112144180D01*
X81525812Y-112024482D01*
X81538072Y-111900000D01*
X81538072Y-110100000D01*
X101461928Y-110100000D01*
X101461928Y-111900000D01*
X101474188Y-112024482D01*
X101510498Y-112144180D01*
X101569463Y-112254494D01*
X101648815Y-112351185D01*
X101745506Y-112430537D01*
X101855820Y-112489502D01*
X101975518Y-112525812D01*
X102100000Y-112538072D01*
X103900000Y-112538072D01*
X104024482Y-112525812D01*
X104144180Y-112489502D01*
X104254494Y-112430537D01*
X104351185Y-112351185D01*
X104430537Y-112254494D01*
X104489502Y-112144180D01*
X104525812Y-112024482D01*
X104538072Y-111900000D01*
X104538072Y-110100000D01*
X104525812Y-109975518D01*
X104489502Y-109855820D01*
X104430537Y-109745506D01*
X104351185Y-109648815D01*
X104254494Y-109569463D01*
X104154697Y-109516120D01*
X104192312Y-109478505D01*
X104360299Y-109227095D01*
X104476011Y-108947743D01*
X104535000Y-108651184D01*
X104535000Y-108348816D01*
X104493863Y-108142003D01*
X111705000Y-108142003D01*
X111705000Y-108857998D01*
X111733867Y-109151088D01*
X111847943Y-109527147D01*
X112033193Y-109873725D01*
X112282498Y-110177503D01*
X112586276Y-110426807D01*
X112932854Y-110612057D01*
X113308913Y-110726133D01*
X113700000Y-110764652D01*
X114091088Y-110726133D01*
X114467147Y-110612057D01*
X114813725Y-110426807D01*
X115117503Y-110177503D01*
X115366807Y-109873725D01*
X115552057Y-109527147D01*
X115666133Y-109151087D01*
X115695000Y-108857997D01*
X115695000Y-108142003D01*
X121305000Y-108142003D01*
X121305000Y-108857998D01*
X121333867Y-109151088D01*
X121447943Y-109527147D01*
X121633193Y-109873725D01*
X121882498Y-110177503D01*
X122186276Y-110426807D01*
X122532854Y-110612057D01*
X122908913Y-110726133D01*
X123300000Y-110764652D01*
X123691088Y-110726133D01*
X124067147Y-110612057D01*
X124413725Y-110426807D01*
X124717503Y-110177503D01*
X124966807Y-109873725D01*
X125152057Y-109527147D01*
X125266133Y-109151087D01*
X125295000Y-108857997D01*
X125295000Y-108142003D01*
X134705000Y-108142003D01*
X134705000Y-108857998D01*
X134733867Y-109151088D01*
X134847943Y-109527147D01*
X135033193Y-109873725D01*
X135282498Y-110177503D01*
X135586276Y-110426807D01*
X135932854Y-110612057D01*
X136308913Y-110726133D01*
X136700000Y-110764652D01*
X137091088Y-110726133D01*
X137467147Y-110612057D01*
X137813725Y-110426807D01*
X138117503Y-110177503D01*
X138366807Y-109873725D01*
X138552057Y-109527147D01*
X138666133Y-109151087D01*
X138695000Y-108857997D01*
X138695000Y-108142003D01*
X144305000Y-108142003D01*
X144305000Y-108857998D01*
X144333867Y-109151088D01*
X144447943Y-109527147D01*
X144633193Y-109873725D01*
X144882498Y-110177503D01*
X145186276Y-110426807D01*
X145532854Y-110612057D01*
X145908913Y-110726133D01*
X146300000Y-110764652D01*
X146691088Y-110726133D01*
X147067147Y-110612057D01*
X147413725Y-110426807D01*
X147717503Y-110177503D01*
X147966807Y-109873725D01*
X148152057Y-109527147D01*
X148266133Y-109151087D01*
X148295000Y-108857997D01*
X148295000Y-108142003D01*
X157705000Y-108142003D01*
X157705000Y-108857998D01*
X157733867Y-109151088D01*
X157847943Y-109527147D01*
X158033193Y-109873725D01*
X158282498Y-110177503D01*
X158586276Y-110426807D01*
X158932854Y-110612057D01*
X159308913Y-110726133D01*
X159700000Y-110764652D01*
X160091088Y-110726133D01*
X160467147Y-110612057D01*
X160813725Y-110426807D01*
X161117503Y-110177503D01*
X161366807Y-109873725D01*
X161552057Y-109527147D01*
X161666133Y-109151087D01*
X161695000Y-108857997D01*
X161695000Y-108142003D01*
X167305000Y-108142003D01*
X167305000Y-108857998D01*
X167333867Y-109151088D01*
X167447943Y-109527147D01*
X167633193Y-109873725D01*
X167882498Y-110177503D01*
X168186276Y-110426807D01*
X168532854Y-110612057D01*
X168908913Y-110726133D01*
X169300000Y-110764652D01*
X169691088Y-110726133D01*
X170067147Y-110612057D01*
X170413725Y-110426807D01*
X170717503Y-110177503D01*
X170966807Y-109873725D01*
X171152057Y-109527147D01*
X171266133Y-109151087D01*
X171295000Y-108857997D01*
X171295000Y-108142002D01*
X171266133Y-107848912D01*
X171152057Y-107472853D01*
X170966807Y-107126275D01*
X170717503Y-106822497D01*
X170413725Y-106573193D01*
X170067146Y-106387943D01*
X169691087Y-106273867D01*
X169300000Y-106235348D01*
X168908912Y-106273867D01*
X168532853Y-106387943D01*
X168186275Y-106573193D01*
X167882497Y-106822497D01*
X167633193Y-107126275D01*
X167447943Y-107472854D01*
X167333867Y-107848913D01*
X167305000Y-108142003D01*
X161695000Y-108142003D01*
X161695000Y-108142002D01*
X161666133Y-107848912D01*
X161552057Y-107472853D01*
X161366807Y-107126275D01*
X161117503Y-106822497D01*
X160813725Y-106573193D01*
X160467146Y-106387943D01*
X160091087Y-106273867D01*
X159700000Y-106235348D01*
X159308912Y-106273867D01*
X158932853Y-106387943D01*
X158586275Y-106573193D01*
X158282497Y-106822497D01*
X158033193Y-107126275D01*
X157847943Y-107472854D01*
X157733867Y-107848913D01*
X157705000Y-108142003D01*
X148295000Y-108142003D01*
X148295000Y-108142002D01*
X148266133Y-107848912D01*
X148152057Y-107472853D01*
X147966807Y-107126275D01*
X147717503Y-106822497D01*
X147413725Y-106573193D01*
X147067146Y-106387943D01*
X146691087Y-106273867D01*
X146300000Y-106235348D01*
X145908912Y-106273867D01*
X145532853Y-106387943D01*
X145186275Y-106573193D01*
X144882497Y-106822497D01*
X144633193Y-107126275D01*
X144447943Y-107472854D01*
X144333867Y-107848913D01*
X144305000Y-108142003D01*
X138695000Y-108142003D01*
X138695000Y-108142002D01*
X138666133Y-107848912D01*
X138552057Y-107472853D01*
X138366807Y-107126275D01*
X138117503Y-106822497D01*
X137813725Y-106573193D01*
X137467146Y-106387943D01*
X137091087Y-106273867D01*
X136700000Y-106235348D01*
X136308912Y-106273867D01*
X135932853Y-106387943D01*
X135586275Y-106573193D01*
X135282497Y-106822497D01*
X135033193Y-107126275D01*
X134847943Y-107472854D01*
X134733867Y-107848913D01*
X134705000Y-108142003D01*
X125295000Y-108142003D01*
X125295000Y-108142002D01*
X125266133Y-107848912D01*
X125152057Y-107472853D01*
X124966807Y-107126275D01*
X124717503Y-106822497D01*
X124413725Y-106573193D01*
X124067146Y-106387943D01*
X123691087Y-106273867D01*
X123300000Y-106235348D01*
X122908912Y-106273867D01*
X122532853Y-106387943D01*
X122186275Y-106573193D01*
X121882497Y-106822497D01*
X121633193Y-107126275D01*
X121447943Y-107472854D01*
X121333867Y-107848913D01*
X121305000Y-108142003D01*
X115695000Y-108142003D01*
X115695000Y-108142002D01*
X115666133Y-107848912D01*
X115552057Y-107472853D01*
X115366807Y-107126275D01*
X115117503Y-106822497D01*
X114813725Y-106573193D01*
X114467146Y-106387943D01*
X114091087Y-106273867D01*
X113700000Y-106235348D01*
X113308912Y-106273867D01*
X112932853Y-106387943D01*
X112586275Y-106573193D01*
X112282497Y-106822497D01*
X112033193Y-107126275D01*
X111847943Y-107472854D01*
X111733867Y-107848913D01*
X111705000Y-108142003D01*
X104493863Y-108142003D01*
X104476011Y-108052257D01*
X104360299Y-107772905D01*
X104192312Y-107521495D01*
X103978505Y-107307688D01*
X103835690Y-107212262D01*
X103884475Y-107064080D01*
X103000000Y-106179605D01*
X102115525Y-107064080D01*
X102164310Y-107212262D01*
X102021495Y-107307688D01*
X101807688Y-107521495D01*
X101639701Y-107772905D01*
X101523989Y-108052257D01*
X101465000Y-108348816D01*
X101465000Y-108651184D01*
X101523989Y-108947743D01*
X101639701Y-109227095D01*
X101807688Y-109478505D01*
X101845303Y-109516120D01*
X101745506Y-109569463D01*
X101648815Y-109648815D01*
X101569463Y-109745506D01*
X101510498Y-109855820D01*
X101474188Y-109975518D01*
X101461928Y-110100000D01*
X81538072Y-110100000D01*
X81525812Y-109975518D01*
X81489502Y-109855820D01*
X81430537Y-109745506D01*
X81351185Y-109648815D01*
X81254494Y-109569463D01*
X81154697Y-109516120D01*
X81192312Y-109478505D01*
X81360299Y-109227095D01*
X81476011Y-108947743D01*
X81535000Y-108651184D01*
X81535000Y-108348816D01*
X81476011Y-108052257D01*
X81360299Y-107772905D01*
X81192312Y-107521495D01*
X80978505Y-107307688D01*
X80835690Y-107212262D01*
X80884475Y-107064080D01*
X80000000Y-106179605D01*
X79115525Y-107064080D01*
X79164310Y-107212262D01*
X79021495Y-107307688D01*
X78807688Y-107521495D01*
X78639701Y-107772905D01*
X78523989Y-108052257D01*
X78465000Y-108348816D01*
X78465000Y-108651184D01*
X78523989Y-108947743D01*
X78639701Y-109227095D01*
X78807688Y-109478505D01*
X78845303Y-109516120D01*
X78745506Y-109569463D01*
X78648815Y-109648815D01*
X78569463Y-109745506D01*
X78510498Y-109855820D01*
X78474188Y-109975518D01*
X78461928Y-110100000D01*
X60660000Y-110100000D01*
X60660000Y-106066553D01*
X78459009Y-106066553D01*
X78501603Y-106365907D01*
X78601778Y-106651199D01*
X78681739Y-106800792D01*
X78935920Y-106884475D01*
X79820395Y-106000000D01*
X80179605Y-106000000D01*
X81064080Y-106884475D01*
X81318261Y-106800792D01*
X81449158Y-106528225D01*
X81524365Y-106235358D01*
X81533660Y-106066553D01*
X101459009Y-106066553D01*
X101501603Y-106365907D01*
X101601778Y-106651199D01*
X101681739Y-106800792D01*
X101935920Y-106884475D01*
X102820395Y-106000000D01*
X103179605Y-106000000D01*
X104064080Y-106884475D01*
X104318261Y-106800792D01*
X104449158Y-106528225D01*
X104524365Y-106235358D01*
X104540991Y-105933447D01*
X104498397Y-105634093D01*
X104398222Y-105348801D01*
X104318261Y-105199208D01*
X104064080Y-105115525D01*
X103179605Y-106000000D01*
X102820395Y-106000000D01*
X101935920Y-105115525D01*
X101681739Y-105199208D01*
X101550842Y-105471775D01*
X101475635Y-105764642D01*
X101459009Y-106066553D01*
X81533660Y-106066553D01*
X81540991Y-105933447D01*
X81498397Y-105634093D01*
X81398222Y-105348801D01*
X81318261Y-105199208D01*
X81064080Y-105115525D01*
X80179605Y-106000000D01*
X79820395Y-106000000D01*
X78935920Y-105115525D01*
X78681739Y-105199208D01*
X78550842Y-105471775D01*
X78475635Y-105764642D01*
X78459009Y-106066553D01*
X60660000Y-106066553D01*
X60660000Y-103700000D01*
X70235348Y-103700000D01*
X70273867Y-104091088D01*
X70387943Y-104467147D01*
X70573193Y-104813725D01*
X70822497Y-105117503D01*
X71126275Y-105366807D01*
X71472853Y-105552057D01*
X71848912Y-105666133D01*
X72142002Y-105695000D01*
X72857998Y-105695000D01*
X73151088Y-105666133D01*
X73527147Y-105552057D01*
X73873725Y-105366807D01*
X74177503Y-105117503D01*
X74326524Y-104935920D01*
X79115525Y-104935920D01*
X80000000Y-105820395D01*
X80884475Y-104935920D01*
X80800792Y-104681739D01*
X80528225Y-104550842D01*
X80235358Y-104475635D01*
X79933447Y-104459009D01*
X79634093Y-104501603D01*
X79348801Y-104601778D01*
X79199208Y-104681739D01*
X79115525Y-104935920D01*
X74326524Y-104935920D01*
X74426807Y-104813725D01*
X74612057Y-104467147D01*
X74726133Y-104091088D01*
X74764652Y-103700000D01*
X93235348Y-103700000D01*
X93273867Y-104091088D01*
X93387943Y-104467147D01*
X93573193Y-104813725D01*
X93822497Y-105117503D01*
X94126275Y-105366807D01*
X94472853Y-105552057D01*
X94848912Y-105666133D01*
X95142002Y-105695000D01*
X95857998Y-105695000D01*
X96151088Y-105666133D01*
X96527147Y-105552057D01*
X96873725Y-105366807D01*
X97177503Y-105117503D01*
X97326524Y-104935920D01*
X102115525Y-104935920D01*
X103000000Y-105820395D01*
X103884475Y-104935920D01*
X103800792Y-104681739D01*
X103528225Y-104550842D01*
X103235358Y-104475635D01*
X102933447Y-104459009D01*
X102634093Y-104501603D01*
X102348801Y-104601778D01*
X102199208Y-104681739D01*
X102115525Y-104935920D01*
X97326524Y-104935920D01*
X97426807Y-104813725D01*
X97612057Y-104467147D01*
X97726133Y-104091088D01*
X97764652Y-103700000D01*
X97726133Y-103308912D01*
X97612057Y-102932853D01*
X97426807Y-102586275D01*
X97177503Y-102282497D01*
X96911361Y-102064080D01*
X115115525Y-102064080D01*
X115199208Y-102318261D01*
X115471775Y-102449158D01*
X115764642Y-102524365D01*
X116066553Y-102540991D01*
X116365907Y-102498397D01*
X116651199Y-102398222D01*
X116800792Y-102318261D01*
X116884475Y-102064080D01*
X116000000Y-101179605D01*
X115115525Y-102064080D01*
X96911361Y-102064080D01*
X96873725Y-102033193D01*
X96527147Y-101847943D01*
X96151088Y-101733867D01*
X95857998Y-101705000D01*
X95142002Y-101705000D01*
X94848912Y-101733867D01*
X94472853Y-101847943D01*
X94126275Y-102033193D01*
X93822497Y-102282497D01*
X93573193Y-102586275D01*
X93387943Y-102932853D01*
X93273867Y-103308912D01*
X93235348Y-103700000D01*
X74764652Y-103700000D01*
X74726133Y-103308912D01*
X74612057Y-102932853D01*
X74426807Y-102586275D01*
X74177503Y-102282497D01*
X73873725Y-102033193D01*
X73527147Y-101847943D01*
X73151088Y-101733867D01*
X72857998Y-101705000D01*
X72142002Y-101705000D01*
X71848912Y-101733867D01*
X71472853Y-101847943D01*
X71126275Y-102033193D01*
X70822497Y-102282497D01*
X70573193Y-102586275D01*
X70387943Y-102932853D01*
X70273867Y-103308912D01*
X70235348Y-103700000D01*
X60660000Y-103700000D01*
X60660000Y-101066553D01*
X114459009Y-101066553D01*
X114501603Y-101365907D01*
X114601778Y-101651199D01*
X114681739Y-101800792D01*
X114935920Y-101884475D01*
X115820395Y-101000000D01*
X116179605Y-101000000D01*
X117064080Y-101884475D01*
X117212262Y-101835690D01*
X117307688Y-101978505D01*
X117521495Y-102192312D01*
X117772905Y-102360299D01*
X118052257Y-102476011D01*
X118348816Y-102535000D01*
X118651184Y-102535000D01*
X118947743Y-102476011D01*
X119227095Y-102360299D01*
X119478505Y-102192312D01*
X119516120Y-102154697D01*
X119569463Y-102254494D01*
X119648815Y-102351185D01*
X119745506Y-102430537D01*
X119855820Y-102489502D01*
X119975518Y-102525812D01*
X120100000Y-102538072D01*
X121900000Y-102538072D01*
X122024482Y-102525812D01*
X122144180Y-102489502D01*
X122254494Y-102430537D01*
X122351185Y-102351185D01*
X122430537Y-102254494D01*
X122489502Y-102144180D01*
X122513800Y-102064080D01*
X138115525Y-102064080D01*
X138199208Y-102318261D01*
X138471775Y-102449158D01*
X138764642Y-102524365D01*
X139066553Y-102540991D01*
X139365907Y-102498397D01*
X139651199Y-102398222D01*
X139800792Y-102318261D01*
X139884475Y-102064080D01*
X139000000Y-101179605D01*
X138115525Y-102064080D01*
X122513800Y-102064080D01*
X122525812Y-102024482D01*
X122538072Y-101900000D01*
X122538072Y-101066553D01*
X137459009Y-101066553D01*
X137501603Y-101365907D01*
X137601778Y-101651199D01*
X137681739Y-101800792D01*
X137935920Y-101884475D01*
X138820395Y-101000000D01*
X139179605Y-101000000D01*
X140064080Y-101884475D01*
X140212262Y-101835690D01*
X140307688Y-101978505D01*
X140521495Y-102192312D01*
X140772905Y-102360299D01*
X141052257Y-102476011D01*
X141348816Y-102535000D01*
X141651184Y-102535000D01*
X141947743Y-102476011D01*
X142227095Y-102360299D01*
X142478505Y-102192312D01*
X142516120Y-102154697D01*
X142569463Y-102254494D01*
X142648815Y-102351185D01*
X142745506Y-102430537D01*
X142855820Y-102489502D01*
X142975518Y-102525812D01*
X143100000Y-102538072D01*
X144900000Y-102538072D01*
X145024482Y-102525812D01*
X145144180Y-102489502D01*
X145254494Y-102430537D01*
X145351185Y-102351185D01*
X145430537Y-102254494D01*
X145489502Y-102144180D01*
X145513800Y-102064080D01*
X161115525Y-102064080D01*
X161199208Y-102318261D01*
X161471775Y-102449158D01*
X161764642Y-102524365D01*
X162066553Y-102540991D01*
X162365907Y-102498397D01*
X162651199Y-102398222D01*
X162800792Y-102318261D01*
X162884475Y-102064080D01*
X162000000Y-101179605D01*
X161115525Y-102064080D01*
X145513800Y-102064080D01*
X145525812Y-102024482D01*
X145538072Y-101900000D01*
X145538072Y-101066553D01*
X160459009Y-101066553D01*
X160501603Y-101365907D01*
X160601778Y-101651199D01*
X160681739Y-101800792D01*
X160935920Y-101884475D01*
X161820395Y-101000000D01*
X162179605Y-101000000D01*
X163064080Y-101884475D01*
X163212262Y-101835690D01*
X163307688Y-101978505D01*
X163521495Y-102192312D01*
X163772905Y-102360299D01*
X164052257Y-102476011D01*
X164348816Y-102535000D01*
X164651184Y-102535000D01*
X164947743Y-102476011D01*
X165227095Y-102360299D01*
X165478505Y-102192312D01*
X165516120Y-102154697D01*
X165569463Y-102254494D01*
X165648815Y-102351185D01*
X165745506Y-102430537D01*
X165855820Y-102489502D01*
X165975518Y-102525812D01*
X166100000Y-102538072D01*
X167900000Y-102538072D01*
X168024482Y-102525812D01*
X168144180Y-102489502D01*
X168254494Y-102430537D01*
X168351185Y-102351185D01*
X168430537Y-102254494D01*
X168489502Y-102144180D01*
X168525812Y-102024482D01*
X168538072Y-101900000D01*
X168538072Y-100100000D01*
X168525812Y-99975518D01*
X168489502Y-99855820D01*
X168430537Y-99745506D01*
X168351185Y-99648815D01*
X168254494Y-99569463D01*
X168144180Y-99510498D01*
X168024482Y-99474188D01*
X167900000Y-99461928D01*
X166100000Y-99461928D01*
X165975518Y-99474188D01*
X165855820Y-99510498D01*
X165745506Y-99569463D01*
X165648815Y-99648815D01*
X165569463Y-99745506D01*
X165516120Y-99845303D01*
X165478505Y-99807688D01*
X165227095Y-99639701D01*
X164947743Y-99523989D01*
X164651184Y-99465000D01*
X164348816Y-99465000D01*
X164052257Y-99523989D01*
X163772905Y-99639701D01*
X163521495Y-99807688D01*
X163307688Y-100021495D01*
X163212262Y-100164310D01*
X163064080Y-100115525D01*
X162179605Y-101000000D01*
X161820395Y-101000000D01*
X160935920Y-100115525D01*
X160681739Y-100199208D01*
X160550842Y-100471775D01*
X160475635Y-100764642D01*
X160459009Y-101066553D01*
X145538072Y-101066553D01*
X145538072Y-100100000D01*
X145525812Y-99975518D01*
X145513801Y-99935920D01*
X161115525Y-99935920D01*
X162000000Y-100820395D01*
X162884475Y-99935920D01*
X162800792Y-99681739D01*
X162528225Y-99550842D01*
X162235358Y-99475635D01*
X161933447Y-99459009D01*
X161634093Y-99501603D01*
X161348801Y-99601778D01*
X161199208Y-99681739D01*
X161115525Y-99935920D01*
X145513801Y-99935920D01*
X145489502Y-99855820D01*
X145430537Y-99745506D01*
X145351185Y-99648815D01*
X145254494Y-99569463D01*
X145144180Y-99510498D01*
X145024482Y-99474188D01*
X144900000Y-99461928D01*
X143100000Y-99461928D01*
X142975518Y-99474188D01*
X142855820Y-99510498D01*
X142745506Y-99569463D01*
X142648815Y-99648815D01*
X142569463Y-99745506D01*
X142516120Y-99845303D01*
X142478505Y-99807688D01*
X142227095Y-99639701D01*
X141947743Y-99523989D01*
X141651184Y-99465000D01*
X141348816Y-99465000D01*
X141052257Y-99523989D01*
X140772905Y-99639701D01*
X140521495Y-99807688D01*
X140307688Y-100021495D01*
X140212262Y-100164310D01*
X140064080Y-100115525D01*
X139179605Y-101000000D01*
X138820395Y-101000000D01*
X137935920Y-100115525D01*
X137681739Y-100199208D01*
X137550842Y-100471775D01*
X137475635Y-100764642D01*
X137459009Y-101066553D01*
X122538072Y-101066553D01*
X122538072Y-100100000D01*
X122525812Y-99975518D01*
X122513801Y-99935920D01*
X138115525Y-99935920D01*
X139000000Y-100820395D01*
X139884475Y-99935920D01*
X139800792Y-99681739D01*
X139528225Y-99550842D01*
X139235358Y-99475635D01*
X138933447Y-99459009D01*
X138634093Y-99501603D01*
X138348801Y-99601778D01*
X138199208Y-99681739D01*
X138115525Y-99935920D01*
X122513801Y-99935920D01*
X122489502Y-99855820D01*
X122430537Y-99745506D01*
X122351185Y-99648815D01*
X122254494Y-99569463D01*
X122144180Y-99510498D01*
X122024482Y-99474188D01*
X121900000Y-99461928D01*
X120100000Y-99461928D01*
X119975518Y-99474188D01*
X119855820Y-99510498D01*
X119745506Y-99569463D01*
X119648815Y-99648815D01*
X119569463Y-99745506D01*
X119516120Y-99845303D01*
X119478505Y-99807688D01*
X119227095Y-99639701D01*
X118947743Y-99523989D01*
X118651184Y-99465000D01*
X118348816Y-99465000D01*
X118052257Y-99523989D01*
X117772905Y-99639701D01*
X117521495Y-99807688D01*
X117307688Y-100021495D01*
X117212262Y-100164310D01*
X117064080Y-100115525D01*
X116179605Y-101000000D01*
X115820395Y-101000000D01*
X114935920Y-100115525D01*
X114681739Y-100199208D01*
X114550842Y-100471775D01*
X114475635Y-100764642D01*
X114459009Y-101066553D01*
X60660000Y-101066553D01*
X60660000Y-99420000D01*
X61051928Y-99420000D01*
X61064188Y-99544482D01*
X61100498Y-99664180D01*
X61159463Y-99774494D01*
X61238815Y-99871185D01*
X61335506Y-99950537D01*
X61445820Y-100009502D01*
X61565518Y-100045812D01*
X61690000Y-100058072D01*
X62204250Y-100055000D01*
X62363000Y-99896250D01*
X62363000Y-98747000D01*
X61213750Y-98747000D01*
X61055000Y-98905750D01*
X61051928Y-99420000D01*
X60660000Y-99420000D01*
X60660000Y-97820000D01*
X61051928Y-97820000D01*
X61055000Y-98334250D01*
X61213750Y-98493000D01*
X62363000Y-98493000D01*
X62363000Y-97343750D01*
X62617000Y-97343750D01*
X62617000Y-98493000D01*
X62637000Y-98493000D01*
X62637000Y-98747000D01*
X62617000Y-98747000D01*
X62617000Y-99896250D01*
X62775750Y-100055000D01*
X63290000Y-100058072D01*
X63414482Y-100045812D01*
X63534180Y-100009502D01*
X63644494Y-99950537D01*
X63741185Y-99871185D01*
X63820537Y-99774494D01*
X63879502Y-99664180D01*
X63915812Y-99544482D01*
X63916643Y-99536039D01*
X64115241Y-99734637D01*
X64350273Y-99891680D01*
X64611426Y-99999853D01*
X64888665Y-100055000D01*
X65171335Y-100055000D01*
X65448574Y-99999853D01*
X65709727Y-99891680D01*
X65944759Y-99734637D01*
X66144637Y-99534759D01*
X66300000Y-99302241D01*
X66455363Y-99534759D01*
X66655241Y-99734637D01*
X66890273Y-99891680D01*
X67151426Y-99999853D01*
X67428665Y-100055000D01*
X67711335Y-100055000D01*
X67988574Y-99999853D01*
X68249727Y-99891680D01*
X68484759Y-99734637D01*
X68684637Y-99534759D01*
X68840000Y-99302241D01*
X68995363Y-99534759D01*
X69195241Y-99734637D01*
X69430273Y-99891680D01*
X69691426Y-99999853D01*
X69968665Y-100055000D01*
X70251335Y-100055000D01*
X70528574Y-99999853D01*
X70789727Y-99891680D01*
X71024759Y-99734637D01*
X71224637Y-99534759D01*
X71380000Y-99302241D01*
X71535363Y-99534759D01*
X71735241Y-99734637D01*
X71970273Y-99891680D01*
X72231426Y-99999853D01*
X72508665Y-100055000D01*
X72791335Y-100055000D01*
X73068574Y-99999853D01*
X73329727Y-99891680D01*
X73564759Y-99734637D01*
X73764637Y-99534759D01*
X73920000Y-99302241D01*
X74075363Y-99534759D01*
X74275241Y-99734637D01*
X74510273Y-99891680D01*
X74771426Y-99999853D01*
X75048665Y-100055000D01*
X75331335Y-100055000D01*
X75608574Y-99999853D01*
X75869727Y-99891680D01*
X76104759Y-99734637D01*
X76304637Y-99534759D01*
X76460000Y-99302241D01*
X76615363Y-99534759D01*
X76815241Y-99734637D01*
X77050273Y-99891680D01*
X77311426Y-99999853D01*
X77588665Y-100055000D01*
X77871335Y-100055000D01*
X78148574Y-99999853D01*
X78409727Y-99891680D01*
X78644759Y-99734637D01*
X78844637Y-99534759D01*
X79000000Y-99302241D01*
X79155363Y-99534759D01*
X79355241Y-99734637D01*
X79590273Y-99891680D01*
X79851426Y-99999853D01*
X80128665Y-100055000D01*
X80411335Y-100055000D01*
X80688574Y-99999853D01*
X80949727Y-99891680D01*
X81184759Y-99734637D01*
X81384637Y-99534759D01*
X81540000Y-99302241D01*
X81695363Y-99534759D01*
X81895241Y-99734637D01*
X82130273Y-99891680D01*
X82391426Y-99999853D01*
X82668665Y-100055000D01*
X82951335Y-100055000D01*
X83228574Y-99999853D01*
X83489727Y-99891680D01*
X83724759Y-99734637D01*
X83924637Y-99534759D01*
X84080000Y-99302241D01*
X84235363Y-99534759D01*
X84435241Y-99734637D01*
X84670273Y-99891680D01*
X84931426Y-99999853D01*
X85208665Y-100055000D01*
X85491335Y-100055000D01*
X85768574Y-99999853D01*
X86029727Y-99891680D01*
X86264759Y-99734637D01*
X86464637Y-99534759D01*
X86620000Y-99302241D01*
X86775363Y-99534759D01*
X86975241Y-99734637D01*
X87210273Y-99891680D01*
X87471426Y-99999853D01*
X87748665Y-100055000D01*
X88031335Y-100055000D01*
X88308574Y-99999853D01*
X88569727Y-99891680D01*
X88804759Y-99734637D01*
X89004637Y-99534759D01*
X89160000Y-99302241D01*
X89315363Y-99534759D01*
X89515241Y-99734637D01*
X89750273Y-99891680D01*
X90011426Y-99999853D01*
X90288665Y-100055000D01*
X90571335Y-100055000D01*
X90848574Y-99999853D01*
X91109727Y-99891680D01*
X91344759Y-99734637D01*
X91544637Y-99534759D01*
X91700000Y-99302241D01*
X91855363Y-99534759D01*
X92055241Y-99734637D01*
X92290273Y-99891680D01*
X92551426Y-99999853D01*
X92828665Y-100055000D01*
X93111335Y-100055000D01*
X93388574Y-99999853D01*
X93649727Y-99891680D01*
X93884759Y-99734637D01*
X94084637Y-99534759D01*
X94240000Y-99302241D01*
X94395363Y-99534759D01*
X94595241Y-99734637D01*
X94830273Y-99891680D01*
X95091426Y-99999853D01*
X95368665Y-100055000D01*
X95651335Y-100055000D01*
X95928574Y-99999853D01*
X96082922Y-99935920D01*
X115115525Y-99935920D01*
X116000000Y-100820395D01*
X116884475Y-99935920D01*
X116800792Y-99681739D01*
X116528225Y-99550842D01*
X116235358Y-99475635D01*
X115933447Y-99459009D01*
X115634093Y-99501603D01*
X115348801Y-99601778D01*
X115199208Y-99681739D01*
X115115525Y-99935920D01*
X96082922Y-99935920D01*
X96189727Y-99891680D01*
X96424759Y-99734637D01*
X96624637Y-99534759D01*
X96781680Y-99299727D01*
X96889853Y-99038574D01*
X96945000Y-98761335D01*
X96945000Y-98478665D01*
X96889853Y-98201426D01*
X96781680Y-97940273D01*
X96624637Y-97705241D01*
X96424759Y-97505363D01*
X96189727Y-97348320D01*
X95928574Y-97240147D01*
X95651335Y-97185000D01*
X95368665Y-97185000D01*
X95091426Y-97240147D01*
X94830273Y-97348320D01*
X94595241Y-97505363D01*
X94395363Y-97705241D01*
X94240000Y-97937759D01*
X94084637Y-97705241D01*
X93884759Y-97505363D01*
X93649727Y-97348320D01*
X93388574Y-97240147D01*
X93111335Y-97185000D01*
X92828665Y-97185000D01*
X92551426Y-97240147D01*
X92290273Y-97348320D01*
X92055241Y-97505363D01*
X91855363Y-97705241D01*
X91700000Y-97937759D01*
X91544637Y-97705241D01*
X91344759Y-97505363D01*
X91109727Y-97348320D01*
X90848574Y-97240147D01*
X90571335Y-97185000D01*
X90288665Y-97185000D01*
X90011426Y-97240147D01*
X89750273Y-97348320D01*
X89515241Y-97505363D01*
X89315363Y-97705241D01*
X89160000Y-97937759D01*
X89004637Y-97705241D01*
X88804759Y-97505363D01*
X88569727Y-97348320D01*
X88308574Y-97240147D01*
X88031335Y-97185000D01*
X87748665Y-97185000D01*
X87471426Y-97240147D01*
X87210273Y-97348320D01*
X86975241Y-97505363D01*
X86775363Y-97705241D01*
X86620000Y-97937759D01*
X86464637Y-97705241D01*
X86264759Y-97505363D01*
X86029727Y-97348320D01*
X85768574Y-97240147D01*
X85491335Y-97185000D01*
X85208665Y-97185000D01*
X84931426Y-97240147D01*
X84670273Y-97348320D01*
X84435241Y-97505363D01*
X84235363Y-97705241D01*
X84080000Y-97937759D01*
X83924637Y-97705241D01*
X83724759Y-97505363D01*
X83489727Y-97348320D01*
X83228574Y-97240147D01*
X82951335Y-97185000D01*
X82668665Y-97185000D01*
X82391426Y-97240147D01*
X82130273Y-97348320D01*
X81895241Y-97505363D01*
X81695363Y-97705241D01*
X81540000Y-97937759D01*
X81384637Y-97705241D01*
X81184759Y-97505363D01*
X80949727Y-97348320D01*
X80688574Y-97240147D01*
X80411335Y-97185000D01*
X80128665Y-97185000D01*
X79851426Y-97240147D01*
X79590273Y-97348320D01*
X79355241Y-97505363D01*
X79155363Y-97705241D01*
X79000000Y-97937759D01*
X78844637Y-97705241D01*
X78644759Y-97505363D01*
X78409727Y-97348320D01*
X78148574Y-97240147D01*
X77871335Y-97185000D01*
X77588665Y-97185000D01*
X77311426Y-97240147D01*
X77050273Y-97348320D01*
X76815241Y-97505363D01*
X76615363Y-97705241D01*
X76460000Y-97937759D01*
X76304637Y-97705241D01*
X76104759Y-97505363D01*
X75869727Y-97348320D01*
X75608574Y-97240147D01*
X75331335Y-97185000D01*
X75048665Y-97185000D01*
X74771426Y-97240147D01*
X74510273Y-97348320D01*
X74275241Y-97505363D01*
X74075363Y-97705241D01*
X73920000Y-97937759D01*
X73764637Y-97705241D01*
X73564759Y-97505363D01*
X73329727Y-97348320D01*
X73068574Y-97240147D01*
X72791335Y-97185000D01*
X72508665Y-97185000D01*
X72231426Y-97240147D01*
X71970273Y-97348320D01*
X71735241Y-97505363D01*
X71535363Y-97705241D01*
X71380000Y-97937759D01*
X71224637Y-97705241D01*
X71024759Y-97505363D01*
X70789727Y-97348320D01*
X70528574Y-97240147D01*
X70251335Y-97185000D01*
X69968665Y-97185000D01*
X69691426Y-97240147D01*
X69430273Y-97348320D01*
X69195241Y-97505363D01*
X68995363Y-97705241D01*
X68840000Y-97937759D01*
X68684637Y-97705241D01*
X68484759Y-97505363D01*
X68249727Y-97348320D01*
X67988574Y-97240147D01*
X67711335Y-97185000D01*
X67428665Y-97185000D01*
X67151426Y-97240147D01*
X66890273Y-97348320D01*
X66655241Y-97505363D01*
X66455363Y-97705241D01*
X66300000Y-97937759D01*
X66144637Y-97705241D01*
X65944759Y-97505363D01*
X65709727Y-97348320D01*
X65448574Y-97240147D01*
X65171335Y-97185000D01*
X64888665Y-97185000D01*
X64611426Y-97240147D01*
X64350273Y-97348320D01*
X64115241Y-97505363D01*
X63916643Y-97703961D01*
X63915812Y-97695518D01*
X63879502Y-97575820D01*
X63820537Y-97465506D01*
X63741185Y-97368815D01*
X63644494Y-97289463D01*
X63534180Y-97230498D01*
X63414482Y-97194188D01*
X63290000Y-97181928D01*
X62775750Y-97185000D01*
X62617000Y-97343750D01*
X62363000Y-97343750D01*
X62204250Y-97185000D01*
X61690000Y-97181928D01*
X61565518Y-97194188D01*
X61445820Y-97230498D01*
X61335506Y-97289463D01*
X61238815Y-97368815D01*
X61159463Y-97465506D01*
X61100498Y-97575820D01*
X61064188Y-97695518D01*
X61051928Y-97820000D01*
X60660000Y-97820000D01*
X60660000Y-91100000D01*
X100461928Y-91100000D01*
X100461928Y-92900000D01*
X100474188Y-93024482D01*
X100510498Y-93144180D01*
X100569463Y-93254494D01*
X100648815Y-93351185D01*
X100745506Y-93430537D01*
X100855820Y-93489502D01*
X100975518Y-93525812D01*
X101100000Y-93538072D01*
X102900000Y-93538072D01*
X103024482Y-93525812D01*
X103144180Y-93489502D01*
X103254494Y-93430537D01*
X103351185Y-93351185D01*
X103430537Y-93254494D01*
X103483880Y-93154697D01*
X103521495Y-93192312D01*
X103772905Y-93360299D01*
X104052257Y-93476011D01*
X104348816Y-93535000D01*
X104651184Y-93535000D01*
X104947743Y-93476011D01*
X105227095Y-93360299D01*
X105478505Y-93192312D01*
X105606737Y-93064080D01*
X106115525Y-93064080D01*
X106199208Y-93318261D01*
X106471775Y-93449158D01*
X106764642Y-93524365D01*
X107066553Y-93540991D01*
X107365907Y-93498397D01*
X107651199Y-93398222D01*
X107800792Y-93318261D01*
X107884475Y-93064080D01*
X107000000Y-92179605D01*
X106115525Y-93064080D01*
X105606737Y-93064080D01*
X105692312Y-92978505D01*
X105787738Y-92835690D01*
X105935920Y-92884475D01*
X106820395Y-92000000D01*
X107179605Y-92000000D01*
X108064080Y-92884475D01*
X108318261Y-92800792D01*
X108449158Y-92528225D01*
X108524365Y-92235358D01*
X108540991Y-91933447D01*
X108498397Y-91634093D01*
X108398222Y-91348801D01*
X108318261Y-91199208D01*
X108064080Y-91115525D01*
X107179605Y-92000000D01*
X106820395Y-92000000D01*
X105935920Y-91115525D01*
X105787738Y-91164310D01*
X105692312Y-91021495D01*
X105606737Y-90935920D01*
X106115525Y-90935920D01*
X107000000Y-91820395D01*
X107720395Y-91100000D01*
X123461928Y-91100000D01*
X123461928Y-92900000D01*
X123474188Y-93024482D01*
X123510498Y-93144180D01*
X123569463Y-93254494D01*
X123648815Y-93351185D01*
X123745506Y-93430537D01*
X123855820Y-93489502D01*
X123975518Y-93525812D01*
X124100000Y-93538072D01*
X125900000Y-93538072D01*
X126024482Y-93525812D01*
X126144180Y-93489502D01*
X126254494Y-93430537D01*
X126351185Y-93351185D01*
X126430537Y-93254494D01*
X126483880Y-93154697D01*
X126521495Y-93192312D01*
X126772905Y-93360299D01*
X127052257Y-93476011D01*
X127348816Y-93535000D01*
X127651184Y-93535000D01*
X127947743Y-93476011D01*
X128227095Y-93360299D01*
X128478505Y-93192312D01*
X128606737Y-93064080D01*
X129115525Y-93064080D01*
X129199208Y-93318261D01*
X129471775Y-93449158D01*
X129764642Y-93524365D01*
X130066553Y-93540991D01*
X130365907Y-93498397D01*
X130651199Y-93398222D01*
X130800792Y-93318261D01*
X130884475Y-93064080D01*
X130000000Y-92179605D01*
X129115525Y-93064080D01*
X128606737Y-93064080D01*
X128692312Y-92978505D01*
X128787738Y-92835690D01*
X128935920Y-92884475D01*
X129820395Y-92000000D01*
X130179605Y-92000000D01*
X131064080Y-92884475D01*
X131318261Y-92800792D01*
X131449158Y-92528225D01*
X131524365Y-92235358D01*
X131540991Y-91933447D01*
X131498397Y-91634093D01*
X131398222Y-91348801D01*
X131318261Y-91199208D01*
X131064080Y-91115525D01*
X130179605Y-92000000D01*
X129820395Y-92000000D01*
X128935920Y-91115525D01*
X128787738Y-91164310D01*
X128692312Y-91021495D01*
X128606737Y-90935920D01*
X129115525Y-90935920D01*
X130000000Y-91820395D01*
X130720395Y-91100000D01*
X146461928Y-91100000D01*
X146461928Y-92900000D01*
X146474188Y-93024482D01*
X146510498Y-93144180D01*
X146569463Y-93254494D01*
X146648815Y-93351185D01*
X146745506Y-93430537D01*
X146855820Y-93489502D01*
X146975518Y-93525812D01*
X147100000Y-93538072D01*
X148900000Y-93538072D01*
X149024482Y-93525812D01*
X149144180Y-93489502D01*
X149254494Y-93430537D01*
X149351185Y-93351185D01*
X149430537Y-93254494D01*
X149483880Y-93154697D01*
X149521495Y-93192312D01*
X149772905Y-93360299D01*
X150052257Y-93476011D01*
X150348816Y-93535000D01*
X150651184Y-93535000D01*
X150947743Y-93476011D01*
X151227095Y-93360299D01*
X151478505Y-93192312D01*
X151606737Y-93064080D01*
X152115525Y-93064080D01*
X152199208Y-93318261D01*
X152471775Y-93449158D01*
X152764642Y-93524365D01*
X153066553Y-93540991D01*
X153365907Y-93498397D01*
X153651199Y-93398222D01*
X153800792Y-93318261D01*
X153884475Y-93064080D01*
X153000000Y-92179605D01*
X152115525Y-93064080D01*
X151606737Y-93064080D01*
X151692312Y-92978505D01*
X151787738Y-92835690D01*
X151935920Y-92884475D01*
X152820395Y-92000000D01*
X153179605Y-92000000D01*
X154064080Y-92884475D01*
X154318261Y-92800792D01*
X154449158Y-92528225D01*
X154524365Y-92235358D01*
X154540991Y-91933447D01*
X154498397Y-91634093D01*
X154398222Y-91348801D01*
X154318261Y-91199208D01*
X154064080Y-91115525D01*
X153179605Y-92000000D01*
X152820395Y-92000000D01*
X151935920Y-91115525D01*
X151787738Y-91164310D01*
X151692312Y-91021495D01*
X151606737Y-90935920D01*
X152115525Y-90935920D01*
X153000000Y-91820395D01*
X153720395Y-91100000D01*
X169461928Y-91100000D01*
X169461928Y-92900000D01*
X169474188Y-93024482D01*
X169510498Y-93144180D01*
X169569463Y-93254494D01*
X169648815Y-93351185D01*
X169745506Y-93430537D01*
X169855820Y-93489502D01*
X169975518Y-93525812D01*
X170100000Y-93538072D01*
X171900000Y-93538072D01*
X172024482Y-93525812D01*
X172144180Y-93489502D01*
X172254494Y-93430537D01*
X172351185Y-93351185D01*
X172430537Y-93254494D01*
X172483880Y-93154697D01*
X172521495Y-93192312D01*
X172772905Y-93360299D01*
X173052257Y-93476011D01*
X173348816Y-93535000D01*
X173651184Y-93535000D01*
X173947743Y-93476011D01*
X174227095Y-93360299D01*
X174478505Y-93192312D01*
X174606737Y-93064080D01*
X175115525Y-93064080D01*
X175199208Y-93318261D01*
X175471775Y-93449158D01*
X175764642Y-93524365D01*
X176066553Y-93540991D01*
X176365907Y-93498397D01*
X176651199Y-93398222D01*
X176800792Y-93318261D01*
X176884475Y-93064080D01*
X176000000Y-92179605D01*
X175115525Y-93064080D01*
X174606737Y-93064080D01*
X174692312Y-92978505D01*
X174787738Y-92835690D01*
X174935920Y-92884475D01*
X175820395Y-92000000D01*
X176179605Y-92000000D01*
X177064080Y-92884475D01*
X177318261Y-92800792D01*
X177449158Y-92528225D01*
X177524365Y-92235358D01*
X177540991Y-91933447D01*
X177498397Y-91634093D01*
X177398222Y-91348801D01*
X177318261Y-91199208D01*
X177064080Y-91115525D01*
X176179605Y-92000000D01*
X175820395Y-92000000D01*
X174935920Y-91115525D01*
X174787738Y-91164310D01*
X174692312Y-91021495D01*
X174606737Y-90935920D01*
X175115525Y-90935920D01*
X176000000Y-91820395D01*
X176884475Y-90935920D01*
X176800792Y-90681739D01*
X176528225Y-90550842D01*
X176235358Y-90475635D01*
X175933447Y-90459009D01*
X175634093Y-90501603D01*
X175348801Y-90601778D01*
X175199208Y-90681739D01*
X175115525Y-90935920D01*
X174606737Y-90935920D01*
X174478505Y-90807688D01*
X174227095Y-90639701D01*
X173947743Y-90523989D01*
X173651184Y-90465000D01*
X173348816Y-90465000D01*
X173052257Y-90523989D01*
X172772905Y-90639701D01*
X172521495Y-90807688D01*
X172483880Y-90845303D01*
X172430537Y-90745506D01*
X172351185Y-90648815D01*
X172254494Y-90569463D01*
X172144180Y-90510498D01*
X172024482Y-90474188D01*
X171900000Y-90461928D01*
X170100000Y-90461928D01*
X169975518Y-90474188D01*
X169855820Y-90510498D01*
X169745506Y-90569463D01*
X169648815Y-90648815D01*
X169569463Y-90745506D01*
X169510498Y-90855820D01*
X169474188Y-90975518D01*
X169461928Y-91100000D01*
X153720395Y-91100000D01*
X153884475Y-90935920D01*
X153800792Y-90681739D01*
X153528225Y-90550842D01*
X153235358Y-90475635D01*
X152933447Y-90459009D01*
X152634093Y-90501603D01*
X152348801Y-90601778D01*
X152199208Y-90681739D01*
X152115525Y-90935920D01*
X151606737Y-90935920D01*
X151478505Y-90807688D01*
X151227095Y-90639701D01*
X150947743Y-90523989D01*
X150651184Y-90465000D01*
X150348816Y-90465000D01*
X150052257Y-90523989D01*
X149772905Y-90639701D01*
X149521495Y-90807688D01*
X149483880Y-90845303D01*
X149430537Y-90745506D01*
X149351185Y-90648815D01*
X149254494Y-90569463D01*
X149144180Y-90510498D01*
X149024482Y-90474188D01*
X148900000Y-90461928D01*
X147100000Y-90461928D01*
X146975518Y-90474188D01*
X146855820Y-90510498D01*
X146745506Y-90569463D01*
X146648815Y-90648815D01*
X146569463Y-90745506D01*
X146510498Y-90855820D01*
X146474188Y-90975518D01*
X146461928Y-91100000D01*
X130720395Y-91100000D01*
X130884475Y-90935920D01*
X130800792Y-90681739D01*
X130528225Y-90550842D01*
X130235358Y-90475635D01*
X129933447Y-90459009D01*
X129634093Y-90501603D01*
X129348801Y-90601778D01*
X129199208Y-90681739D01*
X129115525Y-90935920D01*
X128606737Y-90935920D01*
X128478505Y-90807688D01*
X128227095Y-90639701D01*
X127947743Y-90523989D01*
X127651184Y-90465000D01*
X127348816Y-90465000D01*
X127052257Y-90523989D01*
X126772905Y-90639701D01*
X126521495Y-90807688D01*
X126483880Y-90845303D01*
X126430537Y-90745506D01*
X126351185Y-90648815D01*
X126254494Y-90569463D01*
X126144180Y-90510498D01*
X126024482Y-90474188D01*
X125900000Y-90461928D01*
X124100000Y-90461928D01*
X123975518Y-90474188D01*
X123855820Y-90510498D01*
X123745506Y-90569463D01*
X123648815Y-90648815D01*
X123569463Y-90745506D01*
X123510498Y-90855820D01*
X123474188Y-90975518D01*
X123461928Y-91100000D01*
X107720395Y-91100000D01*
X107884475Y-90935920D01*
X107800792Y-90681739D01*
X107528225Y-90550842D01*
X107235358Y-90475635D01*
X106933447Y-90459009D01*
X106634093Y-90501603D01*
X106348801Y-90601778D01*
X106199208Y-90681739D01*
X106115525Y-90935920D01*
X105606737Y-90935920D01*
X105478505Y-90807688D01*
X105227095Y-90639701D01*
X104947743Y-90523989D01*
X104651184Y-90465000D01*
X104348816Y-90465000D01*
X104052257Y-90523989D01*
X103772905Y-90639701D01*
X103521495Y-90807688D01*
X103483880Y-90845303D01*
X103430537Y-90745506D01*
X103351185Y-90648815D01*
X103254494Y-90569463D01*
X103144180Y-90510498D01*
X103024482Y-90474188D01*
X102900000Y-90461928D01*
X101100000Y-90461928D01*
X100975518Y-90474188D01*
X100855820Y-90510498D01*
X100745506Y-90569463D01*
X100648815Y-90648815D01*
X100569463Y-90745506D01*
X100510498Y-90855820D01*
X100474188Y-90975518D01*
X100461928Y-91100000D01*
X60660000Y-91100000D01*
X60660000Y-83238665D01*
X61055000Y-83238665D01*
X61055000Y-83521335D01*
X61110147Y-83798574D01*
X61218320Y-84059727D01*
X61375363Y-84294759D01*
X61575241Y-84494637D01*
X61810273Y-84651680D01*
X62071426Y-84759853D01*
X62348665Y-84815000D01*
X62631335Y-84815000D01*
X62908574Y-84759853D01*
X63169727Y-84651680D01*
X63404759Y-84494637D01*
X63526694Y-84372702D01*
X64216903Y-84372702D01*
X64288486Y-84616671D01*
X64543996Y-84737571D01*
X64818184Y-84806300D01*
X65100512Y-84820217D01*
X65380130Y-84778787D01*
X65646292Y-84683603D01*
X65771514Y-84616671D01*
X65843097Y-84372702D01*
X65030000Y-83559605D01*
X64216903Y-84372702D01*
X63526694Y-84372702D01*
X63604637Y-84294759D01*
X63760915Y-84060872D01*
X63793329Y-84121514D01*
X64037298Y-84193097D01*
X64850395Y-83380000D01*
X65209605Y-83380000D01*
X66022702Y-84193097D01*
X66266671Y-84121514D01*
X66297194Y-84057008D01*
X66298320Y-84059727D01*
X66455363Y-84294759D01*
X66655241Y-84494637D01*
X66890273Y-84651680D01*
X67151426Y-84759853D01*
X67428665Y-84815000D01*
X67711335Y-84815000D01*
X67988574Y-84759853D01*
X68249727Y-84651680D01*
X68484759Y-84494637D01*
X68684637Y-84294759D01*
X68840000Y-84062241D01*
X68995363Y-84294759D01*
X69195241Y-84494637D01*
X69430273Y-84651680D01*
X69691426Y-84759853D01*
X69968665Y-84815000D01*
X70251335Y-84815000D01*
X70528574Y-84759853D01*
X70789727Y-84651680D01*
X71024759Y-84494637D01*
X71224637Y-84294759D01*
X71380000Y-84062241D01*
X71535363Y-84294759D01*
X71735241Y-84494637D01*
X71970273Y-84651680D01*
X72231426Y-84759853D01*
X72508665Y-84815000D01*
X72791335Y-84815000D01*
X73068574Y-84759853D01*
X73329727Y-84651680D01*
X73564759Y-84494637D01*
X73764637Y-84294759D01*
X73920000Y-84062241D01*
X74075363Y-84294759D01*
X74275241Y-84494637D01*
X74510273Y-84651680D01*
X74771426Y-84759853D01*
X75048665Y-84815000D01*
X75331335Y-84815000D01*
X75608574Y-84759853D01*
X75869727Y-84651680D01*
X76104759Y-84494637D01*
X76304637Y-84294759D01*
X76460000Y-84062241D01*
X76615363Y-84294759D01*
X76815241Y-84494637D01*
X77050273Y-84651680D01*
X77311426Y-84759853D01*
X77588665Y-84815000D01*
X77871335Y-84815000D01*
X78148574Y-84759853D01*
X78409727Y-84651680D01*
X78644759Y-84494637D01*
X78844637Y-84294759D01*
X79000000Y-84062241D01*
X79155363Y-84294759D01*
X79355241Y-84494637D01*
X79590273Y-84651680D01*
X79851426Y-84759853D01*
X80128665Y-84815000D01*
X80411335Y-84815000D01*
X80688574Y-84759853D01*
X80949727Y-84651680D01*
X81184759Y-84494637D01*
X81384637Y-84294759D01*
X81540000Y-84062241D01*
X81695363Y-84294759D01*
X81895241Y-84494637D01*
X82130273Y-84651680D01*
X82391426Y-84759853D01*
X82668665Y-84815000D01*
X82951335Y-84815000D01*
X83228574Y-84759853D01*
X83489727Y-84651680D01*
X83724759Y-84494637D01*
X83924637Y-84294759D01*
X84080000Y-84062241D01*
X84235363Y-84294759D01*
X84435241Y-84494637D01*
X84670273Y-84651680D01*
X84931426Y-84759853D01*
X85208665Y-84815000D01*
X85491335Y-84815000D01*
X85768574Y-84759853D01*
X86029727Y-84651680D01*
X86264759Y-84494637D01*
X86464637Y-84294759D01*
X86620000Y-84062241D01*
X86775363Y-84294759D01*
X86975241Y-84494637D01*
X87210273Y-84651680D01*
X87471426Y-84759853D01*
X87748665Y-84815000D01*
X88031335Y-84815000D01*
X88308574Y-84759853D01*
X88569727Y-84651680D01*
X88804759Y-84494637D01*
X89004637Y-84294759D01*
X89160000Y-84062241D01*
X89315363Y-84294759D01*
X89515241Y-84494637D01*
X89750273Y-84651680D01*
X90011426Y-84759853D01*
X90288665Y-84815000D01*
X90571335Y-84815000D01*
X90848574Y-84759853D01*
X91109727Y-84651680D01*
X91344759Y-84494637D01*
X91544637Y-84294759D01*
X91700000Y-84062241D01*
X91855363Y-84294759D01*
X92055241Y-84494637D01*
X92290273Y-84651680D01*
X92551426Y-84759853D01*
X92828665Y-84815000D01*
X93111335Y-84815000D01*
X93388574Y-84759853D01*
X93649727Y-84651680D01*
X93884759Y-84494637D01*
X94084637Y-84294759D01*
X94240000Y-84062241D01*
X94395363Y-84294759D01*
X94595241Y-84494637D01*
X94830273Y-84651680D01*
X95091426Y-84759853D01*
X95368665Y-84815000D01*
X95651335Y-84815000D01*
X95928574Y-84759853D01*
X96189727Y-84651680D01*
X96424759Y-84494637D01*
X96624637Y-84294759D01*
X96726705Y-84142002D01*
X97705000Y-84142002D01*
X97705000Y-84857997D01*
X97733867Y-85151087D01*
X97847943Y-85527146D01*
X98033193Y-85873725D01*
X98282497Y-86177503D01*
X98586275Y-86426807D01*
X98932853Y-86612057D01*
X99308912Y-86726133D01*
X99700000Y-86764652D01*
X100091087Y-86726133D01*
X100467146Y-86612057D01*
X100813725Y-86426807D01*
X101117503Y-86177503D01*
X101366807Y-85873725D01*
X101552057Y-85527147D01*
X101666133Y-85151088D01*
X101695000Y-84857998D01*
X101695000Y-84142003D01*
X101695000Y-84142002D01*
X107305000Y-84142002D01*
X107305000Y-84857997D01*
X107333867Y-85151087D01*
X107447943Y-85527146D01*
X107633193Y-85873725D01*
X107882497Y-86177503D01*
X108186275Y-86426807D01*
X108532853Y-86612057D01*
X108908912Y-86726133D01*
X109300000Y-86764652D01*
X109691087Y-86726133D01*
X110067146Y-86612057D01*
X110413725Y-86426807D01*
X110717503Y-86177503D01*
X110966807Y-85873725D01*
X111152057Y-85527147D01*
X111266133Y-85151088D01*
X111295000Y-84857998D01*
X111295000Y-84142003D01*
X111295000Y-84142002D01*
X120705000Y-84142002D01*
X120705000Y-84857997D01*
X120733867Y-85151087D01*
X120847943Y-85527146D01*
X121033193Y-85873725D01*
X121282497Y-86177503D01*
X121586275Y-86426807D01*
X121932853Y-86612057D01*
X122308912Y-86726133D01*
X122700000Y-86764652D01*
X123091087Y-86726133D01*
X123467146Y-86612057D01*
X123813725Y-86426807D01*
X124117503Y-86177503D01*
X124366807Y-85873725D01*
X124552057Y-85527147D01*
X124666133Y-85151088D01*
X124695000Y-84857998D01*
X124695000Y-84142003D01*
X124695000Y-84142002D01*
X130305000Y-84142002D01*
X130305000Y-84857997D01*
X130333867Y-85151087D01*
X130447943Y-85527146D01*
X130633193Y-85873725D01*
X130882497Y-86177503D01*
X131186275Y-86426807D01*
X131532853Y-86612057D01*
X131908912Y-86726133D01*
X132300000Y-86764652D01*
X132691087Y-86726133D01*
X133067146Y-86612057D01*
X133413725Y-86426807D01*
X133717503Y-86177503D01*
X133966807Y-85873725D01*
X134152057Y-85527147D01*
X134266133Y-85151088D01*
X134295000Y-84857998D01*
X134295000Y-84142003D01*
X134295000Y-84142002D01*
X143705000Y-84142002D01*
X143705000Y-84857997D01*
X143733867Y-85151087D01*
X143847943Y-85527146D01*
X144033193Y-85873725D01*
X144282497Y-86177503D01*
X144586275Y-86426807D01*
X144932853Y-86612057D01*
X145308912Y-86726133D01*
X145700000Y-86764652D01*
X146091087Y-86726133D01*
X146467146Y-86612057D01*
X146813725Y-86426807D01*
X147117503Y-86177503D01*
X147366807Y-85873725D01*
X147552057Y-85527147D01*
X147666133Y-85151088D01*
X147695000Y-84857998D01*
X147695000Y-84142003D01*
X147695000Y-84142002D01*
X153305000Y-84142002D01*
X153305000Y-84857997D01*
X153333867Y-85151087D01*
X153447943Y-85527146D01*
X153633193Y-85873725D01*
X153882497Y-86177503D01*
X154186275Y-86426807D01*
X154532853Y-86612057D01*
X154908912Y-86726133D01*
X155300000Y-86764652D01*
X155691087Y-86726133D01*
X156067146Y-86612057D01*
X156413725Y-86426807D01*
X156717503Y-86177503D01*
X156966807Y-85873725D01*
X157152057Y-85527147D01*
X157266133Y-85151088D01*
X157295000Y-84857998D01*
X157295000Y-84142003D01*
X157295000Y-84142002D01*
X166705000Y-84142002D01*
X166705000Y-84857997D01*
X166733867Y-85151087D01*
X166847943Y-85527146D01*
X167033193Y-85873725D01*
X167282497Y-86177503D01*
X167586275Y-86426807D01*
X167932853Y-86612057D01*
X168308912Y-86726133D01*
X168700000Y-86764652D01*
X169091087Y-86726133D01*
X169467146Y-86612057D01*
X169813725Y-86426807D01*
X170117503Y-86177503D01*
X170366807Y-85873725D01*
X170552057Y-85527147D01*
X170666133Y-85151088D01*
X170695000Y-84857998D01*
X170695000Y-84142003D01*
X170695000Y-84142002D01*
X176305000Y-84142002D01*
X176305000Y-84857997D01*
X176333867Y-85151087D01*
X176447943Y-85527146D01*
X176633193Y-85873725D01*
X176882497Y-86177503D01*
X177186275Y-86426807D01*
X177532853Y-86612057D01*
X177908912Y-86726133D01*
X178300000Y-86764652D01*
X178691087Y-86726133D01*
X179067146Y-86612057D01*
X179413725Y-86426807D01*
X179717503Y-86177503D01*
X179966807Y-85873725D01*
X180152057Y-85527147D01*
X180266133Y-85151088D01*
X180295000Y-84857998D01*
X180295000Y-84142003D01*
X180266133Y-83848913D01*
X180152057Y-83472853D01*
X179966807Y-83126275D01*
X179717503Y-82822497D01*
X179413725Y-82573193D01*
X179067147Y-82387943D01*
X178691088Y-82273867D01*
X178300000Y-82235348D01*
X177908913Y-82273867D01*
X177532854Y-82387943D01*
X177186276Y-82573193D01*
X176882498Y-82822497D01*
X176633193Y-83126275D01*
X176447943Y-83472853D01*
X176333867Y-83848912D01*
X176305000Y-84142002D01*
X170695000Y-84142002D01*
X170666133Y-83848913D01*
X170552057Y-83472853D01*
X170366807Y-83126275D01*
X170117503Y-82822497D01*
X169813725Y-82573193D01*
X169467147Y-82387943D01*
X169091088Y-82273867D01*
X168700000Y-82235348D01*
X168308913Y-82273867D01*
X167932854Y-82387943D01*
X167586276Y-82573193D01*
X167282498Y-82822497D01*
X167033193Y-83126275D01*
X166847943Y-83472853D01*
X166733867Y-83848912D01*
X166705000Y-84142002D01*
X157295000Y-84142002D01*
X157266133Y-83848913D01*
X157152057Y-83472853D01*
X156966807Y-83126275D01*
X156717503Y-82822497D01*
X156413725Y-82573193D01*
X156067147Y-82387943D01*
X155691088Y-82273867D01*
X155300000Y-82235348D01*
X154908913Y-82273867D01*
X154532854Y-82387943D01*
X154186276Y-82573193D01*
X153882498Y-82822497D01*
X153633193Y-83126275D01*
X153447943Y-83472853D01*
X153333867Y-83848912D01*
X153305000Y-84142002D01*
X147695000Y-84142002D01*
X147666133Y-83848913D01*
X147552057Y-83472853D01*
X147366807Y-83126275D01*
X147117503Y-82822497D01*
X146813725Y-82573193D01*
X146467147Y-82387943D01*
X146091088Y-82273867D01*
X145700000Y-82235348D01*
X145308913Y-82273867D01*
X144932854Y-82387943D01*
X144586276Y-82573193D01*
X144282498Y-82822497D01*
X144033193Y-83126275D01*
X143847943Y-83472853D01*
X143733867Y-83848912D01*
X143705000Y-84142002D01*
X134295000Y-84142002D01*
X134266133Y-83848913D01*
X134152057Y-83472853D01*
X133966807Y-83126275D01*
X133717503Y-82822497D01*
X133413725Y-82573193D01*
X133067147Y-82387943D01*
X132691088Y-82273867D01*
X132300000Y-82235348D01*
X131908913Y-82273867D01*
X131532854Y-82387943D01*
X131186276Y-82573193D01*
X130882498Y-82822497D01*
X130633193Y-83126275D01*
X130447943Y-83472853D01*
X130333867Y-83848912D01*
X130305000Y-84142002D01*
X124695000Y-84142002D01*
X124666133Y-83848913D01*
X124552057Y-83472853D01*
X124366807Y-83126275D01*
X124117503Y-82822497D01*
X123813725Y-82573193D01*
X123467147Y-82387943D01*
X123091088Y-82273867D01*
X122700000Y-82235348D01*
X122308913Y-82273867D01*
X121932854Y-82387943D01*
X121586276Y-82573193D01*
X121282498Y-82822497D01*
X121033193Y-83126275D01*
X120847943Y-83472853D01*
X120733867Y-83848912D01*
X120705000Y-84142002D01*
X111295000Y-84142002D01*
X111266133Y-83848913D01*
X111152057Y-83472853D01*
X110966807Y-83126275D01*
X110717503Y-82822497D01*
X110413725Y-82573193D01*
X110067147Y-82387943D01*
X109691088Y-82273867D01*
X109300000Y-82235348D01*
X108908913Y-82273867D01*
X108532854Y-82387943D01*
X108186276Y-82573193D01*
X107882498Y-82822497D01*
X107633193Y-83126275D01*
X107447943Y-83472853D01*
X107333867Y-83848912D01*
X107305000Y-84142002D01*
X101695000Y-84142002D01*
X101666133Y-83848913D01*
X101552057Y-83472853D01*
X101366807Y-83126275D01*
X101117503Y-82822497D01*
X100813725Y-82573193D01*
X100467147Y-82387943D01*
X100091088Y-82273867D01*
X99700000Y-82235348D01*
X99308913Y-82273867D01*
X98932854Y-82387943D01*
X98586276Y-82573193D01*
X98282498Y-82822497D01*
X98033193Y-83126275D01*
X97847943Y-83472853D01*
X97733867Y-83848912D01*
X97705000Y-84142002D01*
X96726705Y-84142002D01*
X96781680Y-84059727D01*
X96889853Y-83798574D01*
X96945000Y-83521335D01*
X96945000Y-83238665D01*
X96889853Y-82961426D01*
X96781680Y-82700273D01*
X96624637Y-82465241D01*
X96424759Y-82265363D01*
X96189727Y-82108320D01*
X95928574Y-82000147D01*
X95651335Y-81945000D01*
X95368665Y-81945000D01*
X95091426Y-82000147D01*
X94830273Y-82108320D01*
X94595241Y-82265363D01*
X94395363Y-82465241D01*
X94240000Y-82697759D01*
X94084637Y-82465241D01*
X93884759Y-82265363D01*
X93649727Y-82108320D01*
X93388574Y-82000147D01*
X93111335Y-81945000D01*
X92828665Y-81945000D01*
X92551426Y-82000147D01*
X92290273Y-82108320D01*
X92055241Y-82265363D01*
X91855363Y-82465241D01*
X91700000Y-82697759D01*
X91544637Y-82465241D01*
X91344759Y-82265363D01*
X91109727Y-82108320D01*
X90848574Y-82000147D01*
X90571335Y-81945000D01*
X90288665Y-81945000D01*
X90011426Y-82000147D01*
X89750273Y-82108320D01*
X89515241Y-82265363D01*
X89315363Y-82465241D01*
X89160000Y-82697759D01*
X89004637Y-82465241D01*
X88804759Y-82265363D01*
X88569727Y-82108320D01*
X88308574Y-82000147D01*
X88031335Y-81945000D01*
X87748665Y-81945000D01*
X87471426Y-82000147D01*
X87210273Y-82108320D01*
X86975241Y-82265363D01*
X86775363Y-82465241D01*
X86620000Y-82697759D01*
X86464637Y-82465241D01*
X86264759Y-82265363D01*
X86029727Y-82108320D01*
X85768574Y-82000147D01*
X85491335Y-81945000D01*
X85208665Y-81945000D01*
X84931426Y-82000147D01*
X84670273Y-82108320D01*
X84435241Y-82265363D01*
X84235363Y-82465241D01*
X84080000Y-82697759D01*
X83924637Y-82465241D01*
X83724759Y-82265363D01*
X83489727Y-82108320D01*
X83228574Y-82000147D01*
X82951335Y-81945000D01*
X82668665Y-81945000D01*
X82391426Y-82000147D01*
X82130273Y-82108320D01*
X81895241Y-82265363D01*
X81695363Y-82465241D01*
X81540000Y-82697759D01*
X81384637Y-82465241D01*
X81184759Y-82265363D01*
X80949727Y-82108320D01*
X80688574Y-82000147D01*
X80411335Y-81945000D01*
X80128665Y-81945000D01*
X79851426Y-82000147D01*
X79590273Y-82108320D01*
X79355241Y-82265363D01*
X79155363Y-82465241D01*
X79000000Y-82697759D01*
X78844637Y-82465241D01*
X78644759Y-82265363D01*
X78409727Y-82108320D01*
X78148574Y-82000147D01*
X77871335Y-81945000D01*
X77588665Y-81945000D01*
X77311426Y-82000147D01*
X77050273Y-82108320D01*
X76815241Y-82265363D01*
X76615363Y-82465241D01*
X76460000Y-82697759D01*
X76304637Y-82465241D01*
X76104759Y-82265363D01*
X75869727Y-82108320D01*
X75608574Y-82000147D01*
X75331335Y-81945000D01*
X75048665Y-81945000D01*
X74771426Y-82000147D01*
X74510273Y-82108320D01*
X74275241Y-82265363D01*
X74075363Y-82465241D01*
X73920000Y-82697759D01*
X73764637Y-82465241D01*
X73564759Y-82265363D01*
X73329727Y-82108320D01*
X73068574Y-82000147D01*
X72791335Y-81945000D01*
X72508665Y-81945000D01*
X72231426Y-82000147D01*
X71970273Y-82108320D01*
X71735241Y-82265363D01*
X71535363Y-82465241D01*
X71380000Y-82697759D01*
X71224637Y-82465241D01*
X71024759Y-82265363D01*
X70789727Y-82108320D01*
X70528574Y-82000147D01*
X70251335Y-81945000D01*
X69968665Y-81945000D01*
X69691426Y-82000147D01*
X69430273Y-82108320D01*
X69195241Y-82265363D01*
X68995363Y-82465241D01*
X68840000Y-82697759D01*
X68684637Y-82465241D01*
X68484759Y-82265363D01*
X68249727Y-82108320D01*
X67988574Y-82000147D01*
X67711335Y-81945000D01*
X67428665Y-81945000D01*
X67151426Y-82000147D01*
X66890273Y-82108320D01*
X66655241Y-82265363D01*
X66455363Y-82465241D01*
X66299085Y-82699128D01*
X66266671Y-82638486D01*
X66022702Y-82566903D01*
X65209605Y-83380000D01*
X64850395Y-83380000D01*
X64037298Y-82566903D01*
X63793329Y-82638486D01*
X63762806Y-82702992D01*
X63761680Y-82700273D01*
X63604637Y-82465241D01*
X63526694Y-82387298D01*
X64216903Y-82387298D01*
X65030000Y-83200395D01*
X65843097Y-82387298D01*
X65771514Y-82143329D01*
X65516004Y-82022429D01*
X65241816Y-81953700D01*
X64959488Y-81939783D01*
X64679870Y-81981213D01*
X64413708Y-82076397D01*
X64288486Y-82143329D01*
X64216903Y-82387298D01*
X63526694Y-82387298D01*
X63404759Y-82265363D01*
X63169727Y-82108320D01*
X62908574Y-82000147D01*
X62631335Y-81945000D01*
X62348665Y-81945000D01*
X62071426Y-82000147D01*
X61810273Y-82108320D01*
X61575241Y-82265363D01*
X61375363Y-82465241D01*
X61218320Y-82700273D01*
X61110147Y-82961426D01*
X61055000Y-83238665D01*
X60660000Y-83238665D01*
X60660000Y-78032278D01*
X60691991Y-77706003D01*
X61015000Y-77706003D01*
X61015000Y-78293997D01*
X61129712Y-78870692D01*
X61354727Y-79413928D01*
X61681399Y-79902826D01*
X62097174Y-80318601D01*
X62586072Y-80645273D01*
X63129308Y-80870288D01*
X63706003Y-80985000D01*
X64293997Y-80985000D01*
X64870692Y-80870288D01*
X65413928Y-80645273D01*
X65902826Y-80318601D01*
X66318601Y-79902826D01*
X66645273Y-79413928D01*
X66870288Y-78870692D01*
X66985000Y-78293997D01*
X66985000Y-77706003D01*
X179015000Y-77706003D01*
X179015000Y-78293997D01*
X179129712Y-78870692D01*
X179354727Y-79413928D01*
X179681399Y-79902826D01*
X180097174Y-80318601D01*
X180586072Y-80645273D01*
X181129308Y-80870288D01*
X181706003Y-80985000D01*
X182293997Y-80985000D01*
X182870692Y-80870288D01*
X183413928Y-80645273D01*
X183902826Y-80318601D01*
X184318601Y-79902826D01*
X184645273Y-79413928D01*
X184870288Y-78870692D01*
X184985000Y-78293997D01*
X184985000Y-77706003D01*
X184870288Y-77129308D01*
X184645273Y-76586072D01*
X184318601Y-76097174D01*
X183902826Y-75681399D01*
X183413928Y-75354727D01*
X182870692Y-75129712D01*
X182293997Y-75015000D01*
X181706003Y-75015000D01*
X181129308Y-75129712D01*
X180586072Y-75354727D01*
X180097174Y-75681399D01*
X179681399Y-76097174D01*
X179354727Y-76586072D01*
X179129712Y-77129308D01*
X179015000Y-77706003D01*
X66985000Y-77706003D01*
X66870288Y-77129308D01*
X66645273Y-76586072D01*
X66318601Y-76097174D01*
X65902826Y-75681399D01*
X65413928Y-75354727D01*
X64870692Y-75129712D01*
X64293997Y-75015000D01*
X63706003Y-75015000D01*
X63129308Y-75129712D01*
X62586072Y-75354727D01*
X62097174Y-75681399D01*
X61681399Y-76097174D01*
X61354727Y-76586072D01*
X61129712Y-77129308D01*
X61015000Y-77706003D01*
X60691991Y-77706003D01*
X60726714Y-77351874D01*
X60914943Y-76728428D01*
X61220681Y-76153421D01*
X61632279Y-75648753D01*
X62134067Y-75233638D01*
X62706924Y-74923895D01*
X63329039Y-74731318D01*
X64007584Y-74660000D01*
X181967722Y-74660000D01*
X182648126Y-74726714D01*
G37*
%TD.AperFunction*%
%TD*%
M02*
